<svg xmlns="http://www.w3.org/2000/svg" width="100" height="96" viewBox="0 0 100 96">
    <g fill="none" fill-rule="evenodd" stroke="#FF6900" stroke-linecap="round" stroke-linejoin="round" stroke-width="4">
        <path d="M6.25 52l-2.03.054a2.083 2.083 0 0 1-2.137-2.083V10.333A8.333 8.333 0 0 1 10.417 2h79.166a8.333 8.333 0 0 1 8.334 8.333v39.584c0 1.15-.933 2.083-2.084 2.083H93.75"/>
        <path d="M11.925 46.683a2.083 2.083 0 0 1 1.862-3.016h72.426a2.083 2.083 0 0 1 1.862 3.016l-6.25 12.5a2.083 2.083 0 0 1-1.862 1.15H20.038c-.789 0-1.51-.445-1.863-1.15l-6.25-12.5zM14.583 10.333h70.834M14.583 18.667h70.834M68.75 25.958a1.042 1.042 0 1 1 0 2.084 1.042 1.042 0 0 1 0-2.084M81.25 25.958a1.042 1.042 0 1 1 0 2.084 1.042 1.042 0 0 1 0-2.084M2.083 35.333h95.834M22.917 68.667c7.262 7.258-7.109 17.891 0 25M47.917 68.667c7.262 7.258-7.109 17.891 0 25M75 68.667c7.263 7.258-7.108 17.891 0 25"/>
    </g>
</svg>
