<svg xmlns="http://www.w3.org/2000/svg" width="17" height="20" viewBox="0 0 17 20">
    <g fill="none" fill-rule="evenodd">
        <g>
            <g>
                <path fill="#FFF" fill-rule="nonzero" d="M11.357 2.3c.142 0 .279.045.392.127l.08.068 3.609 3.61c.1.1.165.228.187.366l.008.105v10.39c0 .694-.528 1.263-1.205 1.328l-.128.006H3.633c-.693 0-1.262-.529-1.327-1.205l-.006-.128V8.3h1.333v8.333c0 .161.115.296.266.327l.068.007h10c.16 0 .295-.115.326-.266l.007-.068V6.99c0-.066-.02-.13-.056-.185l-.041-.05-3.024-3.024c-.063-.063-.147-.098-.236-.098H8.3V2.3h3.057zm-2.78 6.883c.082-.009.159.044.18.124.293 1.072 1.132 1.91 2.204 2.2.08.021.134.098.124.18-.175 1.354-1.087 2.491-2.355 2.964l-.193.066-2.95.902c-.073.024-.15.037-.227.036-.239 0-.463-.115-.603-.308-.117-.161-.165-.36-.136-.554l.027-.115.902-2.947c.425-1.367 1.607-2.362 3.027-2.548zM7.66 11.52c-.31.128-.512.431-.512.767s.202.64.512.768.668.057.906-.18c.324-.325.324-.85 0-1.175-.238-.238-.595-.309-.906-.18zm3.024-4.69l.06.047 2.645 2.644c.13.13.13.342 0 .472-.86.86-2.255.86-3.116 0-.86-.86-.86-2.255 0-3.116.112-.111.283-.127.411-.047z" transform="translate(-31 -732) translate(32 733)"/>
                <g stroke="#FFF" stroke-linecap="round" stroke-width="1.4">
                    <path d="M3 6.048L3 0M0 3L6.048 3" transform="translate(-31 -732) translate(32 733)"/>
                </g>
            </g>
        </g>
    </g>
</svg>
