<svg xmlns="http://www.w3.org/2000/svg" width="133" height="43" viewBox="0 0 133 43">
    <g fill="none" fill-rule="nonzero">
        <path fill="#FFF" d="M0 19.499c0-.52.03-.999.092-1.438.061-.439.153-.913.276-1.423h2.846v1.175c0 .652.04 1.228.12 1.728.081.5.213.923.397 1.267.184.345.43.605.737.78.306.174.682.261 1.125.261.699 0 1.232-.191 1.6-.573.369-.383.553-.942.553-1.678 0-.378-.026-.725-.078-1.041a4.339 4.339 0 0 0-.27-.942 6.43 6.43 0 0 0-.516-.984c-.217-.344-.496-.73-.836-1.154l-3.823-4.545c-.68-.869-1.203-1.744-1.572-2.627A7.264 7.264 0 0 1 .1 5.48c0-.802.125-1.539.375-2.209.25-.67.612-1.248 1.084-1.735A4.833 4.833 0 0 1 3.306.404C4 .134 4.786 0 5.664 0c1.067 0 1.957.151 2.67.453.712.302 1.28.699 1.706 1.19.424.49.724 1.04.899 1.65.174.608.262 1.22.262 1.833 0 .52-.04.998-.12 1.437-.08.44-.173.923-.277 1.452H7.972V6.868c0-1.284-.184-2.268-.552-2.953-.368-.684-.968-1.026-1.798-1.026-.69 0-1.204.19-1.544.573-.34.382-.51.895-.51 1.537 0 .34.026.646.078.92.052.274.128.526.227.758.099.23.22.455.36.672.142.217.303.444.482.68l4.263 5.154c.774 1.01 1.368 1.98 1.784 2.91.415.93.623 1.914.623 2.952 0 .86-.135 1.634-.404 2.323a4.845 4.845 0 0 1-1.154 1.756c-.5.481-1.104.852-1.812 1.111-.708.26-1.506.39-2.393.39-1.095 0-2.004-.147-2.726-.44-.722-.292-1.298-.68-1.728-1.16a4.141 4.141 0 0 1-.906-1.643A6.847 6.847 0 0 1 0 19.499zM13.944.212h3.668v10.125h4.347V.212h3.668v24.186h-3.668V13.226h-4.347v11.172h-3.668V.212zm15.318 0h3.668v24.186h-3.668V.212zm7.275 0h2.974l5.862 16.185h.085a47.536 47.536 0 0 0-.113-1.26c-.047-.462-.09-.989-.128-1.579a67.045 67.045 0 0 1-.142-4.524V.212h3.286v24.186H45.36l-5.834-15.76h-.113c.028.425.066.885.113 1.38.047.496.09 1.079.128 1.75a97.032 97.032 0 0 1 .141 5.522v7.108h-3.257V.212zm15.432 0h8.963v2.89h-5.296v7.235h4.092v2.889h-4.092v8.283h5.438v2.889h-9.105V.212z"/>
        <path fill="#FF6900" d="M63.194.212h3.71c.548 0 1.114.02 1.7.057.585.038 1.156.118 1.713.24a7.235 7.235 0 0 1 1.586.546c.5.24.937.564 1.31.97.372.406.67.909.892 1.508.221.6.332 1.32.332 2.16v1.175c0 .642-.092 1.232-.276 1.77a5.251 5.251 0 0 1-.729 1.423c-.302.41-.647.75-1.034 1.02-.387.268-.783.45-1.19.544v.114c1.2.217 2.104.786 2.713 1.706.608.92.913 2.098.913 3.533v1.232c0 .878-.097 1.64-.29 2.287-.194.646-.465 1.199-.815 1.657a4.49 4.49 0 0 1-1.246 1.125 6.473 6.473 0 0 1-1.586.687c-.576.165-1.19.279-1.84.34-.652.061-1.322.092-2.011.092h-3.852V.212zM67.5 10.563c.49 0 .94-.059 1.345-.177a2.72 2.72 0 0 0 1.04-.552c.289-.25.51-.576.666-.977.156-.401.234-.885.234-1.451v-.991c0-.567-.057-1.067-.17-1.501a2.719 2.719 0 0 0-.56-1.105c-.259-.302-.599-.53-1.019-.687-.42-.155-.932-.233-1.536-.233h-.708v7.674h.708zm.34 11.286c.49 0 .937-.064 1.338-.191a2.678 2.678 0 0 0 1.034-.595c.287-.269.51-.611.665-1.026.156-.416.234-.907.234-1.473v-1.883c0-.567-.057-1.07-.17-1.508a2.66 2.66 0 0 0-.56-1.105 2.461 2.461 0 0 0-1.012-.68c-.415-.155-.925-.233-1.53-.233h-1.047v8.694h1.048zM77.493.212h3.979c.453 0 .95.02 1.494.057.542.038 1.085.13 1.628.276a6.5 6.5 0 0 1 1.572.659c.505.292.953.693 1.345 1.203.392.51.706 1.15.942 1.919.236.77.354 1.702.354 2.797v.608c0 1.841-.265 3.34-.793 4.496-.529 1.157-1.308 1.99-2.337 2.5l3.88 9.67h-3.88l-3.214-9.047h-1.374v9.048h-3.596V.212zm4.149 12.49c.641 0 1.184-.071 1.628-.213.444-.141.802-.38 1.076-.715.274-.335.472-.779.595-1.33.123-.553.184-1.235.184-2.047V6.485c0-.623-.057-1.16-.17-1.614-.113-.453-.304-.826-.573-1.119-.27-.292-.626-.51-1.07-.65-.443-.143-1-.213-1.67-.213h-.553v9.813h.553zM94.467.212h4.22l4.475 24.186h-3.71l-.666-4.333h-4.418l-.637 4.333h-3.724L94.467.212zm3.894 17.092l-1.699-12.05h-.156l-1.713 12.05h3.568zm6.61-17.092h2.973l5.863 16.185h.085a47.533 47.533 0 0 0-.114-1.26c-.047-.462-.09-.989-.127-1.579a67.046 67.046 0 0 1-.142-4.524V.212h3.286v24.186h-3.002l-5.834-15.76h-.114c.029.425.066.885.114 1.38.047.496.09 1.079.127 1.75a97.028 97.028 0 0 1 .142 5.522v7.108h-3.257V.212zm15.431 0h3.81c.575 0 1.172.017 1.79.05a8.087 8.087 0 0 1 1.813.304c.59.17 1.147.432 1.67.786.525.354.985.85 1.381 1.487.397.637.71 1.44.942 2.407.231.968.347 2.15.347 3.547v7.024c0 1.397-.116 2.582-.347 3.554-.231.972-.545 1.775-.942 2.407-.396.633-.856 1.126-1.38 1.48a5.873 5.873 0 0 1-1.671.786c-.59.17-1.194.271-1.813.304-.618.033-1.215.05-1.79.05h-3.81V.212zm4.602 21.623c.66 0 1.206-.085 1.636-.255.43-.17.769-.47 1.02-.9.25-.429.422-1.014.516-1.755.094-.741.142-1.678.142-2.81V8.608c0-1.132-.048-2.07-.142-2.81-.094-.741-.267-1.327-.517-1.756-.25-.43-.59-.73-1.02-.9-.429-.17-.974-.254-1.635-.254h-.935v18.946h.935z"/>
        <g>
            <path fill="#7D8D9A" d="M0 30.988h1.494c.22 0 .448.008.684.023.235.015.465.047.69.095.224.049.437.12.638.216.202.096.377.224.527.385.15.161.27.36.36.598.089.238.134.523.134.856v.466c0 .255-.037.489-.112.702a2.071 2.071 0 0 1-.293.565c-.122.163-.26.297-.416.404a1.4 1.4 0 0 1-.48.216v.045c.483.086.847.312 1.092.677.246.365.368.832.368 1.4v.49c0 .347-.039.65-.117.906a2.02 2.02 0 0 1-.327.657c-.141.182-.308.33-.502.446a2.627 2.627 0 0 1-.639.273c-.232.065-.479.11-.74.135a8.761 8.761 0 0 1-.81.036H0v-9.59zm1.733 4.105c.198 0 .378-.023.542-.07a1.1 1.1 0 0 0 .419-.22.964.964 0 0 0 .268-.387 1.57 1.57 0 0 0 .094-.575v-.393c0-.225-.023-.423-.069-.595a1.072 1.072 0 0 0-.225-.438.977.977 0 0 0-.41-.273 1.812 1.812 0 0 0-.619-.092h-.285v3.043h.285zm.137 4.475c.198 0 .377-.025.539-.075.161-.051.3-.13.416-.236a1.05 1.05 0 0 0 .268-.407 1.64 1.64 0 0 0 .094-.584v-.747c0-.225-.023-.424-.069-.598a1.049 1.049 0 0 0-.225-.438.992.992 0 0 0-.407-.27 1.788 1.788 0 0 0-.616-.092h-.422v3.447h.422zm3.887-8.58h1.602c.182 0 .383.008.601.023.219.015.437.051.656.11.218.057.43.144.632.26.204.116.384.275.542.478.158.202.284.455.38.76.094.306.142.675.142 1.11v.241c0 .73-.107 1.324-.32 1.783-.212.458-.526.789-.94.99l1.562 3.836H9.052l-1.294-3.588h-.553v3.588H5.757v-9.59zm1.67 4.953c.258 0 .477-.028.656-.084a.898.898 0 0 0 .433-.284c.11-.133.19-.309.24-.528.049-.219.073-.49.073-.811v-.758c0-.247-.022-.46-.068-.64a.995.995 0 0 0-.23-.444.974.974 0 0 0-.431-.258 2.278 2.278 0 0 0-.673-.084h-.222v3.89h.222zm5.164-4.953h1.699l1.801 9.591h-1.494l-.267-1.718h-1.78l-.256 1.718h-1.5l1.797-9.59zm1.567 6.778l-.684-4.779h-.062l-.69 4.779h1.436zm2.661-6.778h1.198l2.36 6.418h.034c-.011-.15-.026-.316-.046-.5a16.56 16.56 0 0 1-.05-.625 26.187 26.187 0 0 1-.057-1.794v-3.499h1.322v9.591H20.37l-2.349-6.25h-.045c.011.169.026.351.045.548.02.196.037.428.052.693a37.903 37.903 0 0 1 .057 2.19v2.82h-1.312v-9.592zm6.213 0h1.534c.232 0 .472.007.72.02.25.013.493.053.73.12.238.068.462.172.673.312.211.14.397.337.556.59.16.253.286.57.38.954.092.384.139.853.139 1.407v2.785c0 .554-.047 1.024-.14 1.41-.093.385-.22.703-.379.954-.16.251-.345.447-.556.587-.21.14-.435.244-.672.312-.238.067-.481.107-.73.12-.249.014-.49.02-.721.02h-1.534v-9.59zm1.853 8.575c.266 0 .486-.034.658-.101a.811.811 0 0 0 .41-.357c.102-.17.171-.402.209-.696a8.96 8.96 0 0 0 .057-1.115v-2.976c0-.45-.019-.82-.057-1.115-.038-.293-.107-.525-.208-.696a.811.811 0 0 0-.41-.356 1.832 1.832 0 0 0-.659-.101h-.376v7.513h.376z"/>
            <path fill="#506676" d="M34.014 30h1.254v12.41h-1.254z"/>
            <path fill="#7D8D9A" d="M42.938 30.988h1.698l1.802 9.591h-1.494l-.268-1.718h-1.778l-.257 1.718h-1.5l1.797-9.59zm1.567 6.778l-.684-4.779h-.062l-.69 4.779h1.436zm2.285.87c0-.206.012-.396.037-.57.025-.174.062-.362.111-.564h1.146v.466c0 .258.016.487.049.685.032.198.085.366.16.503.073.136.172.24.296.308.123.07.274.104.453.104.281 0 .496-.075.644-.227.148-.152.223-.373.223-.665 0-.15-.01-.288-.032-.413a1.7 1.7 0 0 0-.108-.374 2.536 2.536 0 0 0-.208-.39c-.088-.136-.2-.289-.337-.457l-1.539-1.803a4.511 4.511 0 0 1-.633-1.042 2.843 2.843 0 0 1-.222-1.12c0-.318.05-.61.151-.876.1-.266.246-.495.436-.688.19-.192.425-.342.704-.449.28-.107.596-.16.95-.16.429 0 .787.06 1.074.18.287.12.516.277.687.471.171.195.292.413.362.655.07.241.106.483.106.727 0 .206-.017.396-.049.57-.032.174-.07.366-.111.575H50v-.455c0-.509-.074-.899-.223-1.17-.148-.272-.39-.407-.724-.407-.277 0-.484.075-.621.227-.137.152-.205.355-.205.61 0 .134.01.256.031.364.021.109.051.209.091.3.04.092.089.181.146.267.057.086.121.176.194.27l1.715 2.044c.312.4.552.785.719 1.154.167.369.25.759.25 1.17 0 .341-.053.648-.162.921a1.919 1.919 0 0 1-.464.697c-.202.19-.445.338-.73.44a2.823 2.823 0 0 1-.964.155c-.44 0-.806-.058-1.097-.174a1.839 1.839 0 0 1-.696-.46 1.635 1.635 0 0 1-.364-.652 2.677 2.677 0 0 1-.106-.747zm5.238 0c0-.206.012-.396.037-.57.025-.174.062-.362.111-.564h1.146v.466c0 .258.016.487.048.685.033.198.086.366.16.503.074.136.173.24.297.308.123.07.274.104.453.104.281 0 .496-.075.644-.227.148-.152.222-.373.222-.665 0-.15-.01-.288-.031-.413a1.7 1.7 0 0 0-.108-.374 2.536 2.536 0 0 0-.208-.39c-.088-.136-.2-.289-.337-.457l-1.539-1.803a4.511 4.511 0 0 1-.633-1.042 2.843 2.843 0 0 1-.222-1.12c0-.318.05-.61.15-.876.102-.266.247-.495.437-.688.19-.192.425-.342.704-.449.28-.107.596-.16.95-.16.429 0 .787.06 1.074.18.287.12.516.277.687.471.17.195.292.413.362.655.07.241.105.483.105.727 0 .206-.016.396-.048.57-.032.174-.07.366-.111.575h-1.14v-.455c0-.509-.075-.899-.223-1.17-.148-.272-.39-.407-.724-.407-.277 0-.484.075-.621.227-.137.152-.205.355-.205.61 0 .134.01.256.03.364.022.109.052.209.092.3.04.092.089.181.146.267.057.086.121.176.193.27l1.716 2.044c.312.4.551.785.719 1.154.167.369.25.759.25 1.17 0 .341-.054.648-.162.921a1.919 1.919 0 0 1-.465.697c-.201.19-.444.338-.73.44a2.823 2.823 0 0 1-.963.155c-.44 0-.806-.058-1.097-.174a1.839 1.839 0 0 1-.696-.46 1.635 1.635 0 0 1-.365-.652 2.677 2.677 0 0 1-.105-.747zm5.614-7.648h3.609v1.146h-2.132v2.87h1.647v1.145H59.12v3.285h2.189v1.145h-3.666v-9.59zm5.42 1.146h-1.567v-1.146H66.1v1.146h-1.562v8.445h-1.477v-8.445zm3.448 6.502c0-.206.012-.396.037-.57.025-.174.062-.362.111-.564h1.146v.466c0 .258.016.487.049.685.032.198.085.366.16.503.073.136.172.24.296.308.123.07.274.104.453.104.281 0 .496-.075.644-.227.148-.152.222-.373.222-.665 0-.15-.01-.288-.03-.413a1.7 1.7 0 0 0-.11-.374 2.536 2.536 0 0 0-.207-.39c-.088-.136-.2-.289-.337-.457l-1.539-1.803a4.511 4.511 0 0 1-.633-1.042 2.843 2.843 0 0 1-.222-1.12c0-.318.05-.61.151-.876.1-.266.246-.495.436-.688.19-.192.425-.342.704-.449.28-.107.596-.16.95-.16.429 0 .787.06 1.074.18.287.12.516.277.687.471.171.195.292.413.362.655.07.241.105.483.105.727 0 .206-.016.396-.048.57-.032.174-.07.366-.111.575h-1.14v-.455c0-.509-.074-.899-.223-1.17-.148-.272-.39-.407-.724-.407-.277 0-.484.075-.621.227-.137.152-.205.355-.205.61 0 .134.01.256.031.364.02.109.051.209.091.3.04.092.089.181.146.267.057.086.121.176.193.27l1.716 2.044c.312.4.552.785.719 1.154.167.369.25.759.25 1.17 0 .341-.054.648-.162.921a1.919 1.919 0 0 1-.465.697c-.2.19-.444.338-.73.44a2.823 2.823 0 0 1-.963.155c-.44 0-.806-.058-1.097-.174a1.839 1.839 0 0 1-.696-.46 1.635 1.635 0 0 1-.365-.652 2.677 2.677 0 0 1-.105-.747z"/>
            <path fill="#506676" d="M77.27 30h1.254v12.41h-1.255z"/>
            <path fill="#7D8D9A" d="M87.088 40.669c-.114 0-.247-.012-.399-.037a1.687 1.687 0 0 1-.47-.154 1.989 1.989 0 0 1-.476-.334 2.072 2.072 0 0 1-.42-.573 3.565 3.565 0 0 1-.299-.876 5.847 5.847 0 0 1-.114-1.238V34.06c0-.483.04-.896.12-1.238.08-.343.186-.631.32-.865a1.918 1.918 0 0 1 .997-.876c.186-.073.37-.12.553-.143a4.17 4.17 0 0 1 .507-.034c.396 0 .73.053 1 .16.273.107.493.253.662.438.17.185.291.402.365.649.074.247.111.509.111.786 0 .206-.012.396-.037.57a10.53 10.53 0 0 1-.1.575h-1.18v-.455c0-1.051-.287-1.577-.86-1.577a.962.962 0 0 0-.405.078.655.655 0 0 0-.285.267 1.443 1.443 0 0 0-.169.497 4.564 4.564 0 0 0-.054.77v4.345c0 .3.018.549.054.747.037.199.092.358.166.477.074.12.167.205.28.256.111.05.245.076.401.076a.706.706 0 0 0 .422-.127.959.959 0 0 0 .29-.345c.077-.146.133-.318.169-.517a3.61 3.61 0 0 0 .054-.645v-1.252h-.758v-.955h2.195v4.857h-.98l-.16-.91c-.187.356-.4.612-.642.767a1.55 1.55 0 0 1-.858.233zm3.756-9.68h1.488v7.03c0 .299.015.548.045.746.03.199.08.357.146.475a.592.592 0 0 0 .256.253.85.85 0 0 0 .374.075c.144 0 .27-.025.379-.075a.615.615 0 0 0 .268-.253c.07-.118.123-.276.16-.475a4.28 4.28 0 0 0 .053-.746v-7.03h1.471v6.642c0 .468-.038.869-.114 1.202a3.164 3.164 0 0 1-.302.836 1.814 1.814 0 0 1-.932.834c-.173.07-.345.114-.516.132a4.328 4.328 0 0 1-.467.028c-.141 0-.296-.009-.465-.028a1.92 1.92 0 0 1-1.006-.432 1.838 1.838 0 0 1-.428-.534 3.103 3.103 0 0 1-.3-.833 5.603 5.603 0 0 1-.11-1.205v-6.643zm6.058 0h1.477v9.59h-1.477v-9.59zm2.93 0h1.533c.232 0 .472.006.721.019.25.013.492.053.73.12.237.068.462.172.673.312.21.14.396.337.555.59.16.253.286.57.38.954.093.384.14.853.14 1.407v2.785c0 .554-.047 1.024-.14 1.41-.094.385-.22.703-.38.954s-.344.447-.555.587c-.211.14-.436.244-.673.312-.238.067-.48.107-.73.12-.249.014-.49.02-.721.02h-1.534v-9.59zm1.852 8.574c.266 0 .486-.034.659-.101a.811.811 0 0 0 .41-.357c.1-.17.17-.402.208-.696a8.96 8.96 0 0 0 .057-1.115v-2.976c0-.45-.019-.82-.057-1.115-.038-.293-.107-.525-.208-.696a.811.811 0 0 0-.41-.356 1.832 1.832 0 0 0-.659-.101h-.376v7.513h.376zm3.984-8.575h3.609v1.146h-2.133v2.87h1.648v1.145h-1.648v3.285h2.19v1.145h-3.666v-9.59zm4.52 0h1.476v8.446h2.012v1.145h-3.489v-9.59zm4.211 0h1.477v9.591h-1.477v-9.59zm2.929 0h1.197l2.36 6.418h.035c-.012-.15-.027-.316-.046-.5a16.56 16.56 0 0 1-.051-.625 26.187 26.187 0 0 1-.057-1.794v-3.499h1.322v9.591h-1.208l-2.35-6.25h-.045c.012.169.027.351.046.548.019.196.036.428.051.693a37.901 37.901 0 0 1 .057 2.19v2.82h-1.311v-9.592zm6.213 0h3.608v1.146h-2.132v2.87h1.648v1.145h-1.648v3.285h2.19v1.145h-3.666v-9.59zm4.143 7.648c0-.206.012-.396.037-.57.025-.174.062-.362.111-.564h1.146v.466c0 .258.016.487.049.685.032.198.085.366.16.503.073.136.172.24.296.308.123.07.274.104.453.104.281 0 .496-.075.644-.227.148-.152.222-.373.222-.665 0-.15-.01-.288-.031-.413a1.7 1.7 0 0 0-.108-.374 2.536 2.536 0 0 0-.208-.39c-.088-.136-.2-.289-.337-.457l-1.539-1.803a4.511 4.511 0 0 1-.633-1.042 2.843 2.843 0 0 1-.222-1.12c0-.318.05-.61.15-.876.102-.266.247-.495.437-.688.19-.192.425-.342.704-.449.28-.107.596-.16.95-.16.429 0 .787.06 1.074.18.287.12.516.277.687.471.171.195.292.413.362.655.07.241.105.483.105.727 0 .206-.016.396-.048.57-.032.174-.07.366-.111.575h-1.14v-.455c0-.509-.075-.899-.223-1.17-.148-.272-.39-.407-.724-.407-.277 0-.484.075-.621.227-.137.152-.205.355-.205.61 0 .134.01.256.031.364.02.109.051.209.091.3.04.092.089.181.146.267.057.086.121.176.193.27l1.716 2.044c.312.4.551.785.719 1.154.167.369.25.759.25 1.17 0 .341-.054.648-.162.921a1.919 1.919 0 0 1-.465.697c-.201.19-.444.338-.73.44a2.823 2.823 0 0 1-.963.155c-.44 0-.806-.058-1.097-.174a1.839 1.839 0 0 1-.696-.46 1.635 1.635 0 0 1-.365-.652 2.677 2.677 0 0 1-.105-.747z"/>
        </g>
    </g>
</svg>
