<svg xmlns="http://www.w3.org/2000/svg" width="193" height="135" viewBox="0 0 193 135">
    <g fill="#FFF" fill-rule="evenodd">
        <path d="M72.822 114.755V96.371c0-.174-.005-.349.008-.522a.912.912 0 0 1 .931-.846.89.89 0 0 1 .905.823c.013.13.009.26.009.391v21.056c-.012.588-.227.916-.704 1.072-.452.148-.934-.024-1.256-.457-1.324-1.78-2.646-3.56-3.967-5.342L58.742 99.07c-.05-.068-.109-.13-.246-.294v.547c0 5.975 0 11.95.002 17.924 0 .343-.016.663-.31.905-.296.243-.614.318-.971.174-.357-.144-.548-.413-.57-.799-.005-.087-.003-.174-.003-.26 0-7.02.002-14.038-.004-21.056 0-.465.07-.872.526-1.102.475-.239.976-.088 1.36.425.946 1.265 1.883 2.538 2.824 3.807l11.22 15.12c.057.077.124.146.252.295M8.424 118.73c-3.118.06-5.684-1.178-7.848-3.347-.483-.484-.477-1.078-.004-1.534.44-.425.992-.417 1.457.081 1.328 1.425 2.916 2.373 4.85 2.686 1.723.279 3.403.183 5.003-.613 2.855-1.421 2.887-5.012.41-6.676-1.206-.812-2.563-1.271-3.923-1.726-1.414-.472-2.847-.896-4.15-1.648-2.18-1.26-3.241-3.13-3.043-5.657.18-2.295 1.448-3.89 3.491-4.757 3.42-1.45 6.754-1.196 9.87.927.492.336.899.78 1.21 1.295.295.488.195.944-.264 1.298-.419.323-.921.297-1.287-.102-2.082-2.272-5.633-2.871-8.382-1.79-2.107.83-3.037 2.705-2.388 4.793.243.784.756 1.359 1.429 1.802 1.37.904 2.898 1.442 4.45 1.926 1.342.418 2.685.841 3.904 1.559 2.3 1.354 3.18 3.336 2.947 5.844-.266 2.857-2.158 4.356-4.693 5.213-.982.331-2.007.435-3.039.427M47.51 106.712l.001-10.438c0-.694.209-1.041.71-1.206.67-.22 1.314.176 1.408.877.022.157.014.318.014.478l.001 20.528c0 .232.003.464-.07.689-.164.503-.609.798-1.135.752-.517-.047-.853-.385-.917-.938-.018-.157-.01-.318-.01-.478l-.001-10.264M95.52 116.418c-.13-.01-.262-.005-.392-.005-3.438 0-6.875-.005-10.312.008-.363.002-.492-.063-.49-.466.006-2.87 0-5.74 0-8.61 1.389-.011 4.147-.003 5.227-.003 1.188 0 2.377.006 3.565-.002.643-.005 1.056-.393 1.056-.963 0-.582-.403-1.012-1.018-1.015-2.27-.01-6.337-.003-8.83-.008 0-2.644.006-5.287 0-7.93 0-.377.116-.447.465-.445 3.452.012 6.904.007 10.355.007.16 0 .321.01.479-.01.643-.08 1.01-.65.824-1.265-.149-.488-.504-.71-1.156-.71h-11.79c-.954 0-1.266.317-1.266 1.286v10.397c0 3.523-.002 7.047 0 10.57.001.741.341 1.138 1.01 1.138 4.076.007 8.152.007 12.227.002.614-.001 1.024-.399 1.03-.95.005-.533-.419-.976-.985-1.026M24.316 96.214c-.001-.655-.314-1.082-.856-1.192-.748-.153-1.272.375-1.273 1.292l.001 20.75c0 .173.01.349.042.519.088.486.442.788.932.81.691.033 1.153-.47 1.154-1.275V96.214zM39.979 95.947c-.062-.573-.448-.932-1.007-.944a1.057 1.057 0 0 0-1.078.928c-.025.201-.031.405-.031.607-.003 2.828-.005 5.655.003 8.483.001.296-.041.44-.395.44-3.6-.01-7.61-.008-11.21-.003a.28.28 0 0 0-.278.28v1.332c0 .188.152.34.34.341 3.54.01 7.491.01 11.033-.005.442-.002.516.144.514.543-.016 2.987-.01 5.974-.007 8.962 0 .181.003.365.025.545.072.566.593.997 1.16.934.578-.065.938-.541.938-1.258.002-3.48.001-6.96.001-10.44v-10.31c0-.146.007-.292-.008-.435M107.156 107.8v-2.793a.5.5 0 0 1 .5-.5h8.433v-7.588c0-.572.21-1.05.627-1.435a2.078 2.078 0 0 1 1.452-.577c.616 0 1.111.187 1.485.56.374.374.561.858.561 1.452v19.069c0 .571-.198 1.05-.594 1.435-.396.385-.902.577-1.518.577-.55 0-1.023-.192-1.419-.577-.396-.385-.594-.864-.594-1.435V108.3h-8.433a.5.5 0 0 1-.5-.5zm-1.593 8.188c0 .571-.209 1.05-.627 1.435a2.078 2.078 0 0 1-1.452.577c-.594 0-1.083-.192-1.468-.577-.385-.385-.578-.864-.578-1.435V96.919c0-.572.198-1.05.594-1.435.396-.385.902-.577 1.518-.577.55 0 1.023.192 1.42.577.395.385.593.863.593 1.435v19.069zM146.037 106.783c0 2.178-.484 4.174-1.452 5.988s-2.304 3.25-4.009 4.305c-1.705 1.056-3.624 1.584-5.758 1.584s-4.053-.528-5.758-1.584c-1.705-1.055-3.036-2.49-3.993-4.305-.957-1.814-1.435-3.81-1.435-5.988 0-2.177.478-4.173 1.435-5.987.957-1.815 2.288-3.25 3.993-4.306 1.705-1.055 3.624-1.583 5.758-1.583s4.053.528 5.758 1.583c1.705 1.056 3.041 2.491 4.01 4.306.967 1.814 1.451 3.81 1.451 5.987zm-4.29 0c0-1.473-.296-2.81-.89-4.008-.594-1.199-1.42-2.15-2.475-2.854-1.056-.704-2.244-1.055-3.564-1.055-1.342 0-2.535.346-3.58 1.039s-1.859 1.644-2.442 2.853c-.583 1.21-.874 2.552-.874 4.025 0 1.474.291 2.815.874 4.025.583 1.21 1.397 2.161 2.442 2.854 1.045.693 2.238 1.039 3.58 1.039 1.32 0 2.508-.352 3.564-1.056 1.056-.704 1.88-1.655 2.475-2.853.594-1.2.89-2.535.89-4.009zM170.651 94.907c.55 0 1.029.192 1.436.577.407.385.61.863.61 1.435v19.102c0 .571-.187 1.05-.56 1.435-.375.385-.87.577-1.486.577s-1.116-.187-1.501-.56c-.385-.375-.577-.859-.577-1.452v-13.296l-5.445 8.314c-.22.264-.473.478-.759.643a1.532 1.532 0 0 1-.89.215 1.47 1.47 0 0 1-.859-.215 2.814 2.814 0 0 1-.759-.643l-5.444-8.61v13.592c0 .593-.176 1.077-.528 1.451-.352.374-.814.561-1.386.561-.55 0-1.001-.192-1.353-.577-.352-.385-.528-.864-.528-1.435V96.919c0-.55.203-1.023.61-1.418a2.03 2.03 0 0 1 1.469-.594c.33 0 .66.082.99.247.33.165.583.38.759.643l7.193 11.052 7.392-11.052c.176-.263.412-.478.709-.643.297-.165.6-.247.907-.247zM190.37 114.206c.572 0 1.05.193 1.436.577.384.385.577.83.577 1.337 0 .55-.193 1-.577 1.352-.385.352-.864.528-1.436.528h-11.054c-.572 0-1.05-.192-1.435-.577-.385-.385-.578-.864-.578-1.435V96.919c0-.572.193-1.05.578-1.435.385-.385.863-.577 1.435-.577h11.054c.572 0 1.05.181 1.436.544.384.363.577.83.577 1.402 0 .55-.187.995-.561 1.336-.374.341-.858.512-1.452.512h-8.942v5.608h7.457c.572 0 1.05.181 1.436.544.385.363.577.83.577 1.402 0 .55-.187.996-.56 1.337-.375.34-.859.51-1.453.51h-7.457v6.104h8.942z"/>
        <path fill-opacity=".5" d="M6.55 132.506c.224 0 .411.076.562.226.15.15.225.324.225.522a.684.684 0 0 1-.225.529.8.8 0 0 1-.561.206H2.23a.762.762 0 0 1-.562-.226.761.761 0 0 1-.225-.56v-7.453c0-.223.075-.41.225-.56a.762.762 0 0 1 .561-.226h4.32c.224 0 .411.07.562.212a.72.72 0 0 1 .225.548.673.673 0 0 1-.219.523.81.81 0 0 1-.567.2H3.056v2.191H5.97c.224 0 .41.071.561.213a.72.72 0 0 1 .226.548.673.673 0 0 1-.22.522.81.81 0 0 1-.567.2H3.056v2.385H6.55zm13.718-7.542c.206 0 .374.069.503.206.129.138.193.31.193.516v7.517c0 .223-.075.41-.226.56a.762.762 0 0 1-.56.226c-.12 0-.24-.02-.355-.058a.502.502 0 0 1-.252-.161l-4.732-6.008v5.505a.695.695 0 0 1-.722.722.658.658 0 0 1-.504-.206.725.725 0 0 1-.193-.516v-7.517c0-.223.075-.41.226-.56a.762.762 0 0 1 .56-.226c.13 0 .256.026.381.077.125.052.217.12.277.206l4.694 5.983v-5.544c0-.207.067-.378.2-.516a.679.679 0 0 1 .51-.206zm12.337 7.542c.224 0 .41.076.56.226.151.15.227.324.227.522a.684.684 0 0 1-.226.529.8.8 0 0 1-.561.206h-4.32a.762.762 0 0 1-.561-.226.761.761 0 0 1-.226-.56v-7.453c0-.223.075-.41.226-.56a.762.762 0 0 1 .56-.226h4.321c.224 0 .41.07.56.212a.72.72 0 0 1 .227.548.673.673 0 0 1-.22.523.81.81 0 0 1-.567.2H29.11v2.191h2.915c.223 0 .41.071.56.213a.72.72 0 0 1 .226.548.673.673 0 0 1-.219.522.81.81 0 0 1-.567.2H29.11v2.385h3.495zm13.95.22a.76.76 0 0 1 .264.27.666.666 0 0 1-.058.774c-.13.155-.327.232-.594.232-.206 0-.395-.047-.567-.142-.62-.352-.929-1.07-.929-2.153 0-.31-.1-.554-.303-.735-.202-.18-.492-.27-.87-.27h-2.412v2.5a.844.844 0 0 1-.187.568.62.62 0 0 1-.496.219 1 1 0 0 1-.651-.226.696.696 0 0 1-.278-.56v-7.453c0-.223.075-.41.226-.56a.762.762 0 0 1 .56-.226h3.715c.447 0 .868.12 1.264.36.395.241.711.572.948.994.236.42.354.893.354 1.418 0 .43-.116.849-.348 1.257a2.774 2.774 0 0 1-.903.973c.542.379.839.886.89 1.522.026.137.039.27.039.4.034.266.069.457.103.573a.425.425 0 0 0 .232.264zm-2.644-3.353c.154 0 .305-.073.45-.219.147-.146.267-.342.362-.587.095-.245.142-.509.142-.793 0-.24-.047-.462-.142-.664a1.36 1.36 0 0 0-.361-.483.705.705 0 0 0-.451-.18h-2.825v2.926h2.825zm15.548-.258a.74.74 0 0 1 .554.226c.147.15.22.337.22.56v2.734c0 .301-.134.533-.4.696a5.146 5.146 0 0 1-2.773.787 4.638 4.638 0 0 1-2.36-.625 4.684 4.684 0 0 1-1.715-1.69 4.474 4.474 0 0 1-.632-2.327c0-.842.21-1.618.632-2.327a4.684 4.684 0 0 1 1.715-1.689 4.638 4.638 0 0 1 2.36-.625c.851 0 1.59.172 2.218.516a.71.71 0 0 1 .29.27.71.71 0 0 1 .097.361c0 .215-.07.402-.213.561a.673.673 0 0 1-.522.239c-.129 0-.27-.035-.425-.103a3.65 3.65 0 0 0-1.445-.297c-.55 0-1.057.14-1.522.419-.464.28-.831.655-1.102 1.128-.271.473-.406.989-.406 1.547 0 .56.135 1.075.406 1.548.27.472.638.848 1.102 1.128.465.28.972.419 1.522.419.24 0 .499-.022.774-.065.275-.043.516-.099.722-.167v-1.676h-1.212a.773.773 0 0 1-.561-.22.74.74 0 0 1-.226-.554.74.74 0 0 1 .226-.554.773.773 0 0 1 .56-.22h2.116zm13.137-3.39a.86.86 0 0 1-.142.477l-2.695 3.855v3.146c0 .223-.074.41-.22.56a.71.71 0 0 1-.528.226.746.746 0 0 1-.549-.226.761.761 0 0 1-.225-.56v-3.327l-2.683-3.558c-.154-.207-.232-.409-.232-.606 0-.224.088-.41.265-.561a.852.852 0 0 1 .56-.226c.241 0 .452.12.633.361l2.27 3.133 2.127-3.107c.18-.258.396-.387.645-.387.206 0 .387.077.542.232a.772.772 0 0 1 .232.567zm15.153 8.393c-.62 0-1.17-.077-1.651-.232a3.821 3.821 0 0 1-1.354-.787c-.232-.206-.348-.434-.348-.683 0-.198.073-.372.219-.522a.71.71 0 0 1 .529-.226c.163 0 .309.052.438.155.344.284.68.49 1.006.619.327.129.713.193 1.16.193.482 0 .897-.107 1.245-.322.348-.215.522-.481.522-.8 0-.386-.172-.69-.516-.908-.343-.22-.89-.385-1.637-.497-1.883-.275-2.825-1.152-2.825-2.63 0-.542.142-1.012.426-1.412.284-.4.67-.705 1.16-.915a4.107 4.107 0 0 1 1.638-.316c.542 0 1.051.081 1.529.245.477.163.874.378 1.192.644.25.198.374.426.374.684a.727.727 0 0 1-.219.522.696.696 0 0 1-.516.226.566.566 0 0 1-.348-.116c-.223-.18-.535-.346-.935-.497-.4-.15-.758-.225-1.077-.225-.541 0-.96.1-1.257.303-.297.202-.445.466-.445.792 0 .37.153.65.458.839.305.189.784.343 1.438.464.74.129 1.33.294 1.773.496.443.202.776.477 1 .825.223.348.335.81.335 1.386 0 .542-.153 1.017-.458 1.425a2.943 2.943 0 0 1-1.219.941 4.084 4.084 0 0 1-1.637.329zm17.701-4.642c0 .851-.189 1.631-.567 2.34-.378.71-.9 1.27-1.567 1.683-.666.413-1.416.619-2.25.619-.834 0-1.584-.206-2.25-.619a4.298 4.298 0 0 1-1.561-1.682 4.939 4.939 0 0 1-.56-2.34c0-.852.186-1.632.56-2.34.374-.71.894-1.27 1.56-1.683.667-.413 1.417-.62 2.25-.62.835 0 1.585.207 2.251.62a4.345 4.345 0 0 1 1.567 1.682c.378.71.567 1.49.567 2.34zm-1.676 0a3.48 3.48 0 0 0-.348-1.566 2.81 2.81 0 0 0-.967-1.115 2.455 2.455 0 0 0-1.393-.413c-.525 0-.991.135-1.4.406-.408.27-.726.643-.954 1.115a3.576 3.576 0 0 0-.341 1.573c0 .576.113 1.1.341 1.573.228.473.546.845.955 1.116.408.27.874.406 1.399.406.516 0 .98-.138 1.393-.413a2.81 2.81 0 0 0 .967-1.115 3.48 3.48 0 0 0 .348-1.567zm12.737 3.005c.224 0 .41.07.561.212a.72.72 0 0 1 .226.548.704.704 0 0 1-.226.535.786.786 0 0 1-.561.213h-4.191a.762.762 0 0 1-.561-.226.761.761 0 0 1-.226-.56v-7.453a.75.75 0 0 1 .232-.56.816.816 0 0 1 .593-.226c.215 0 .4.075.555.225a.75.75 0 0 1 .232.561v6.73h3.366zm13.02-7.53a.71.71 0 0 1 .542.219.794.794 0 0 1 .207.567v4.668c0 .713-.15 1.345-.452 1.895-.3.55-.722.98-1.263 1.29-.542.309-1.161.464-1.858.464-.696 0-1.317-.155-1.863-.465-.546-.31-.97-.739-1.27-1.289-.301-.55-.452-1.182-.452-1.895v-4.668a.75.75 0 0 1 .233-.56.816.816 0 0 1 .593-.226c.206 0 .387.075.541.225a.75.75 0 0 1 .232.561v4.668c0 .412.09.78.271 1.102.18.322.424.57.729.741.305.172.634.258.986.258.37 0 .716-.086 1.039-.258.322-.171.58-.419.773-.74a2.1 2.1 0 0 0 .29-1.103v-4.668c0-.232.065-.42.194-.567a.669.669 0 0 1 .529-.22zm13.215.013c.232 0 .421.069.567.206a.71.71 0 0 1 .22.542.689.689 0 0 1-.22.535.81.81 0 0 1-.567.2h-2.025v6.756c0 .223-.081.41-.245.56a.861.861 0 0 1-.606.226.816.816 0 0 1-.593-.226.75.75 0 0 1-.232-.56v-6.757h-2.025a.794.794 0 0 1-.567-.206.71.71 0 0 1-.22-.541c0-.215.076-.391.226-.529a.8.8 0 0 1 .561-.206h5.726zm8.352 8.239c0 .223-.081.41-.245.56a.812.812 0 0 1-.567.226.778.778 0 0 1-.574-.226.761.761 0 0 1-.226-.56v-7.453a.75.75 0 0 1 .232-.56.816.816 0 0 1 .594-.226c.215 0 .4.075.554.225a.75.75 0 0 1 .232.561v7.453zm14.84-3.727c0 .851-.19 1.631-.568 2.34-.378.71-.9 1.27-1.567 1.683-.666.413-1.416.619-2.25.619-.834 0-1.584-.206-2.25-.619a4.298 4.298 0 0 1-1.561-1.682 4.939 4.939 0 0 1-.561-2.34c0-.852.187-1.632.56-2.34.375-.71.895-1.27 1.561-1.683.667-.413 1.417-.62 2.25-.62.835 0 1.585.207 2.251.62a4.345 4.345 0 0 1 1.567 1.682c.378.71.567 1.49.567 2.34zm-1.677 0a3.48 3.48 0 0 0-.348-1.566 2.81 2.81 0 0 0-.968-1.115 2.455 2.455 0 0 0-1.392-.413c-.525 0-.991.135-1.4.406-.408.27-.726.643-.954 1.115a3.576 3.576 0 0 0-.342 1.573c0 .576.114 1.1.342 1.573.228.473.546.845.954 1.116.409.27.875.406 1.4.406.515 0 .98-.138 1.392-.413a2.81 2.81 0 0 0 .968-1.115 3.48 3.48 0 0 0 .348-1.567zm14.607-4.512c.206 0 .374.069.503.206.129.138.193.31.193.516v7.517c0 .223-.075.41-.226.56a.762.762 0 0 1-.56.226c-.12 0-.24-.02-.355-.058a.502.502 0 0 1-.252-.161l-4.733-6.008v5.505a.695.695 0 0 1-.722.722.658.658 0 0 1-.503-.206.725.725 0 0 1-.193-.516v-7.517c0-.223.075-.41.226-.56a.762.762 0 0 1 .56-.226c.13 0 .256.026.381.077.125.052.217.12.277.206l4.694 5.983v-5.544c0-.207.067-.378.2-.516a.679.679 0 0 1 .51-.206zM189 134.118c-.62 0-1.17-.077-1.651-.232a3.821 3.821 0 0 1-1.354-.787c-.232-.206-.348-.434-.348-.683 0-.198.073-.372.219-.522a.71.71 0 0 1 .529-.226c.163 0 .31.052.438.155.344.284.68.49 1.006.619.327.129.714.193 1.16.193.482 0 .897-.107 1.245-.322.348-.215.522-.481.522-.8 0-.386-.171-.69-.515-.908-.344-.22-.89-.385-1.638-.497-1.883-.275-2.824-1.152-2.824-2.63 0-.542.141-1.012.425-1.412.284-.4.67-.705 1.16-.915a4.107 4.107 0 0 1 1.639-.316c.541 0 1.05.081 1.528.245.477.163.875.378 1.193.644.249.198.374.426.374.684a.727.727 0 0 1-.22.522.696.696 0 0 1-.515.226.566.566 0 0 1-.349-.116c-.223-.18-.535-.346-.935-.497-.4-.15-.758-.225-1.076-.225-.542 0-.961.1-1.258.303-.296.202-.445.466-.445.792 0 .37.153.65.458.839.305.189.785.343 1.438.464.74.129 1.33.294 1.773.496.443.202.776.477 1 .825.223.348.335.81.335 1.386 0 .542-.153 1.017-.458 1.425a2.943 2.943 0 0 1-1.218.941 4.084 4.084 0 0 1-1.638.329z"/>
        <g>
            <path d="M135.67 50.425a1.602 1.602 0 0 1-1.961 1.13l-8.498-2.274a1.6 1.6 0 1 1 .83-3.09l8.497 2.275a1.6 1.6 0 0 1 1.132 1.959M137.058 40.064a1.6 1.6 0 0 1-1.601 1.6h-8.798a1.6 1.6 0 1 1 0-3.2h8.798a1.6 1.6 0 0 1 1.6 1.6M56.993 40.064a1.6 1.6 0 0 1 1.601-1.6h8.798a1.6 1.6 0 1 1 0 3.2h-8.798a1.6 1.6 0 0 1-1.601-1.6M58.366 50.413a1.6 1.6 0 0 1 1.132-1.958l8.498-2.275a1.599 1.599 0 1 1 .829 3.09l-8.498 2.274a1.601 1.601 0 0 1-1.961-1.13M97.025.08a1.6 1.6 0 0 1 1.601 1.6v8.786a1.6 1.6 0 0 1-3.202 0V1.68a1.6 1.6 0 0 1 1.601-1.6M68.745 11.818a1.603 1.603 0 0 1 2.264 0l6.221 6.213a1.598 1.598 0 0 1 0 2.262 1.603 1.603 0 0 1-2.264 0l-6.221-6.213a1.598 1.598 0 0 1 0-2.262M62.351 20.07a1.602 1.602 0 0 1 2.188-.586l7.619 4.393a1.598 1.598 0 0 1 .586 2.185 1.602 1.602 0 0 1-2.188.585l-7.619-4.393a1.598 1.598 0 0 1-.586-2.185M58.38 29.703a1.602 1.602 0 0 1 1.962-1.13l8.497 2.273a1.6 1.6 0 1 1-.828 3.09l-8.498-2.274a1.6 1.6 0 0 1-1.132-1.959M135.685 29.715a1.6 1.6 0 0 1-1.132 1.958l-8.498 2.275a1.6 1.6 0 1 1-.829-3.09l8.498-2.274a1.601 1.601 0 0 1 1.96 1.13M131.683 20.112c.442.765.18 1.743-.586 2.185l-7.619 4.393a1.602 1.602 0 0 1-2.187-.585 1.598 1.598 0 0 1 .586-2.185l7.619-4.393a1.602 1.602 0 0 1 2.187.585M125.305 11.818a1.598 1.598 0 0 1 0 2.262l-6.22 6.213a1.603 1.603 0 0 1-2.265 0 1.598 1.598 0 0 1 0-2.262l6.22-6.213a1.603 1.603 0 0 1 2.265 0M117.044 5.432a1.598 1.598 0 0 1 .586 2.185l-4.398 7.61a1.602 1.602 0 0 1-2.188.585 1.598 1.598 0 0 1-.586-2.185l4.399-7.61a1.602 1.602 0 0 1 2.187-.585M107.399 1.466a1.6 1.6 0 0 1 1.132 1.959l-2.277 8.487a1.602 1.602 0 0 1-3.094-.828l2.277-8.487a1.601 1.601 0 0 1 1.962-1.131"/>
            <path fill-opacity=".5" d="M117.193 38.432h1.452a1.6 1.6 0 1 1 0 3.199h-1.452a1.6 1.6 0 1 1 0-3.199zM75.354 38.432h1.452a1.6 1.6 0 1 1 0 3.199h-1.452a1.6 1.6 0 1 1 0-3.199z"/>
            <path d="M86.664 1.451a1.601 1.601 0 0 1 1.96 1.131l2.278 8.487a1.602 1.602 0 0 1-3.094.828L85.531 3.41a1.6 1.6 0 0 1 1.133-1.959M77.05 5.448a1.602 1.602 0 0 1 2.187.586l4.398 7.61c.443.764.18 1.742-.586 2.184a1.602 1.602 0 0 1-2.187-.585l-4.399-7.61a1.598 1.598 0 0 1 .586-2.185"/>
            <path fill-opacity=".5" d="M97.011 16.867a1.6 1.6 0 0 1 1.602 1.6v4.798a1.6 1.6 0 0 1-3.203 0v-4.798a1.6 1.6 0 0 1 1.601-1.6M83.847 32.488a1.602 1.602 0 0 1-2.188.585l-4.16-2.399a1.598 1.598 0 0 1-.586-2.184 1.602 1.602 0 0 1 2.187-.586l4.16 2.4a1.598 1.598 0 0 1 .587 2.184M89.424 26.895a1.602 1.602 0 0 1-2.187-.585l-2.402-4.155a1.598 1.598 0 0 1 .586-2.185 1.602 1.602 0 0 1 2.187.585l2.402 4.156c.443.765.18 1.743-.586 2.184M104.59 26.912a1.598 1.598 0 0 1-.585-2.185l2.402-4.155a1.602 1.602 0 0 1 2.187-.586 1.598 1.598 0 0 1 .586 2.185l-2.402 4.155a1.602 1.602 0 0 1-2.187.586M110.19 32.482a1.598 1.598 0 0 1 .586-2.185l4.16-2.399a1.602 1.602 0 0 1 2.188.586c.442.765.18 1.743-.586 2.185l-4.16 2.399a1.602 1.602 0 0 1-2.188-.586"/>
            <g fill-rule="nonzero">
                <path d="M116.134 80.648c.469 0 .849-.38.849-.849V61.548a1.698 1.698 0 0 1 3.396 0v18.251c0 2.345-1.9 4.245-4.245 4.245H104.67a2.972 2.972 0 0 1-2.972-2.971V70.886a4.67 4.67 0 0 0-9.34 0v10.187c0 1.64-1.33 2.971-2.972 2.971H77.925a4.245 4.245 0 0 1-4.246-4.245V60.275a1.698 1.698 0 0 1 3.397 0v19.524c0 .47.38.85.849.85h11.038v-9.763a8.066 8.066 0 0 1 8.066-8.065 8.066 8.066 0 0 1 8.067 8.065v9.762h11.038z"/>
                <path d="M97.03 35.376L68.86 60.273a1.698 1.698 0 0 1-2.25-2.544l29.294-25.892a1.698 1.698 0 0 1 2.25 0l29.294 25.892a1.698 1.698 0 1 1-2.25 2.544L97.03 35.376z"/>
            </g>
        </g>
    </g>
</svg>
