<svg xmlns="http://www.w3.org/2000/svg" width="104" height="104" viewBox="0 0 104 104">
    <g fill="none" fill-rule="evenodd" stroke="#FF6900" stroke-linecap="round" stroke-linejoin="round" stroke-width="4">
        <path d="M32.568 88.705H6.66a4.318 4.318 0 0 1-4.318-4.319v-69.09a4.318 4.318 0 0 1 4.318-4.319h60.455a4.318 4.318 0 0 1 4.318 4.318v30.228M19.614 19.273V2M14.273 32.795h40.682M14.273 43.705h29.2M14.273 54.614h33.446M36.886 19.614V2.34M54.16 19.614V2.34M54.16 70.603V97.34a4.318 4.318 0 0 0 4.317 4.318h30.228a4.318 4.318 0 0 0 4.318-4.318V70.603"/>
        <path d="M45.523 77.91L70.8 56.52a4.318 4.318 0 0 1 5.58 0l25.278 21.388M80.068 101.66H67.114V88.704a6.477 6.477 0 1 1 12.954 0v12.954z"/>
    </g>
</svg>
