<svg xmlns="http://www.w3.org/2000/svg" xmlns:xlink="http://www.w3.org/1999/xlink" width="205" height="114" viewBox="0 0 205 114">
    <defs>
        <path id="a" d="M.071.022h18.782v22.882H.071z"/>
    </defs>
    <g fill="none" fill-rule="evenodd">
        <g fill="#FFF">
            <path d="M102.492 78.65a1.57 1.57 0 0 1-1.57-1.572v-8.633a1.57 1.57 0 1 1 3.14 0v8.633a1.57 1.57 0 0 1-1.57 1.572M112.65 77.303a1.57 1.57 0 0 1-1.923-1.112l-2.232-8.339a1.57 1.57 0 1 1 3.032-.813l2.232 8.339c.225.838-.272 1.7-1.11 1.925M122.074 73.375c-.75.434-1.71.177-2.144-.575l-4.312-7.476a1.572 1.572 0 0 1 .574-2.147 1.569 1.569 0 0 1 2.145.575l4.311 7.477a1.572 1.572 0 0 1-.574 2.146M130.214 67.117a1.568 1.568 0 0 1-2.22 0l-6.097-6.105a1.573 1.573 0 0 1 0-2.222 1.568 1.568 0 0 1 2.22 0l6.097 6.104a1.573 1.573 0 0 1 0 2.223M136.482 59.01a1.569 1.569 0 0 1-2.144.575l-7.469-4.317a1.572 1.572 0 0 1-.574-2.146 1.569 1.569 0 0 1 2.144-.576l7.468 4.317a1.573 1.573 0 0 1 .575 2.147M140.374 49.544a1.57 1.57 0 0 1-1.922 1.111l-8.33-2.234a1.572 1.572 0 0 1 .812-3.036l8.33 2.234a1.572 1.572 0 0 1 1.11 1.925M141.734 39.364a1.57 1.57 0 0 1-1.57 1.572h-8.623a1.57 1.57 0 0 1 0-3.143h8.624c.867 0 1.57.703 1.57 1.571M63.25 39.365a1.57 1.57 0 0 1 1.57-1.572h8.624a1.57 1.57 0 0 1 0 3.143H64.82a1.57 1.57 0 0 1-1.57-1.571M64.596 49.533a1.572 1.572 0 0 1 1.11-1.925l8.33-2.234a1.571 1.571 0 0 1 .813 3.036l-8.33 2.234a1.57 1.57 0 0 1-1.923-1.111M68.519 58.968a1.572 1.572 0 0 1 .574-2.147l7.469-4.317a1.569 1.569 0 0 1 2.144.576 1.573 1.573 0 0 1-.575 2.146l-7.468 4.317c-.75.434-1.71.176-2.144-.575M102.492.079c.867 0 1.57.703 1.57 1.571v8.633a1.57 1.57 0 1 1-3.14 0V1.65a1.57 1.57 0 0 1 1.57-1.571M74.77 11.612a1.568 1.568 0 0 1 2.22 0l6.098 6.104a1.573 1.573 0 0 1 0 2.223 1.568 1.568 0 0 1-2.22 0l-6.098-6.105a1.573 1.573 0 0 1 0-2.222M68.503 19.719a1.569 1.569 0 0 1 2.144-.576l7.468 4.317a1.572 1.572 0 0 1 .575 2.147 1.569 1.569 0 0 1-2.144.575l-7.469-4.317a1.572 1.572 0 0 1-.574-2.146M64.61 29.184a1.57 1.57 0 0 1 1.923-1.11l8.33 2.234a1.572 1.572 0 0 1-.813 3.035l-8.33-2.234a1.572 1.572 0 0 1-1.11-1.925M140.389 29.196c.224.838-.273 1.7-1.11 1.924l-8.33 2.235a1.572 1.572 0 0 1-.813-3.036l8.33-2.235a1.57 1.57 0 0 1 1.923 1.112M136.466 19.76a1.572 1.572 0 0 1-.575 2.147l-7.468 4.317c-.751.434-1.71.176-2.144-.575a1.572 1.572 0 0 1 .574-2.147l7.469-4.316a1.569 1.569 0 0 1 2.144.575M130.214 11.611a1.573 1.573 0 0 1 0 2.223l-6.098 6.104a1.568 1.568 0 0 1-2.22 0 1.573 1.573 0 0 1 0-2.222l6.098-6.105a1.568 1.568 0 0 1 2.22 0M122.116 5.337a1.572 1.572 0 0 1 .575 2.147l-4.312 7.476a1.569 1.569 0 0 1-2.145.575 1.572 1.572 0 0 1-.574-2.146l4.312-7.477a1.569 1.569 0 0 1 2.144-.575M112.66 1.44a1.572 1.572 0 0 1 1.11 1.925l-2.231 8.34a1.57 1.57 0 1 1-3.033-.814l2.232-8.34a1.57 1.57 0 0 1 1.923-1.11M92.335 1.426a1.57 1.57 0 0 1 1.922 1.111l2.232 8.34a1.57 1.57 0 1 1-3.032.813l-2.232-8.34a1.572 1.572 0 0 1 1.11-1.924M82.91 5.353a1.569 1.569 0 0 1 2.145.575l4.312 7.477a1.572 1.572 0 0 1-.575 2.146c-.75.434-1.71.177-2.144-.575L82.336 7.5a1.572 1.572 0 0 1 .575-2.147M74.77 67.117a1.573 1.573 0 0 1 0-2.222l6.098-6.105a1.568 1.568 0 0 1 2.22 0 1.573 1.573 0 0 1 0 2.222l-6.098 6.105a1.568 1.568 0 0 1-2.22 0M82.869 73.391a1.572 1.572 0 0 1-.575-2.146l4.312-7.477a1.569 1.569 0 0 1 2.144-.575 1.572 1.572 0 0 1 .575 2.147l-4.312 7.476a1.569 1.569 0 0 1-2.144.575M92.324 77.288a1.572 1.572 0 0 1-1.11-1.924l2.232-8.34a1.57 1.57 0 1 1 3.032.814l-2.232 8.339a1.57 1.57 0 0 1-1.922 1.111"/>
            <g fill-opacity=".5">
                <path d="M102.492 62.17a1.57 1.57 0 0 1-1.57-1.57v-4.715a1.57 1.57 0 1 1 3.14 0V60.6a1.57 1.57 0 0 1-1.57 1.572M117.406 39.332a1.57 1.57 0 0 1 1.57-1.571h4.71a1.57 1.57 0 0 1 0 3.143h-4.71a1.57 1.57 0 0 1-1.57-1.572M115.397 46.823a1.569 1.569 0 0 1 2.144-.575l4.078 2.357a1.572 1.572 0 0 1 .575 2.147 1.569 1.569 0 0 1-2.144.575l-4.078-2.357a1.572 1.572 0 0 1-.575-2.147M109.93 52.318a1.569 1.569 0 0 1 2.144.575l2.355 4.083a1.572 1.572 0 0 1-.575 2.146c-.75.434-1.71.177-2.144-.575l-2.355-4.083a1.572 1.572 0 0 1 .575-2.146M102.479 16.573c.867 0 1.57.703 1.57 1.571v4.714a1.57 1.57 0 1 1-3.14 0v-4.714a1.57 1.57 0 0 1 1.57-1.571M89.574 31.92a1.569 1.569 0 0 1-2.144.576l-4.079-2.357a1.572 1.572 0 0 1-.574-2.147 1.569 1.569 0 0 1 2.144-.575L89 29.774a1.572 1.572 0 0 1 .575 2.147M95.041 26.426c-.75.434-1.71.176-2.144-.576l-2.355-4.082a1.572 1.572 0 0 1 .575-2.147 1.569 1.569 0 0 1 2.144.575l2.355 4.083a1.572 1.572 0 0 1-.575 2.147M109.908 26.442a1.572 1.572 0 0 1-.574-2.147l2.354-4.083a1.569 1.569 0 0 1 2.144-.575 1.572 1.572 0 0 1 .575 2.147l-2.355 4.082a1.569 1.569 0 0 1-2.144.576M115.397 31.915a1.572 1.572 0 0 1 .575-2.147l4.078-2.357a1.569 1.569 0 0 1 2.144.575 1.572 1.572 0 0 1-.575 2.147l-4.078 2.357c-.75.434-1.71.176-2.144-.575M79.732 39.383a1.57 1.57 0 0 1 1.57-1.571h4.709a1.57 1.57 0 0 1 0 3.143H81.3a1.57 1.57 0 0 1-1.57-1.572M95.063 52.302a1.572 1.572 0 0 1 .574 2.147l-2.354 4.082a1.569 1.569 0 0 1-2.145.576 1.572 1.572 0 0 1-.574-2.147l2.355-4.083a1.569 1.569 0 0 1 2.144-.575M89.574 46.829a1.572 1.572 0 0 1-.575 2.146l-4.078 2.357c-.75.434-1.71.177-2.144-.575a1.572 1.572 0 0 1 .574-2.146l4.079-2.357a1.569 1.569 0 0 1 2.144.575"/>
            </g>
        </g>
        <path fill="#FFF" d="M136.785 101.678c.005-1.56-.341-3.028-1.112-4.39-2.461-4.35-8.359-4.631-11.12-.529-1.88 2.796-1.882 7.048-.006 9.847 2.349 3.501 7.123 3.947 10.047.917 1.567-1.623 2.176-3.628 2.191-5.845m4.237.03c-.06 3.592-1.254 6.698-3.981 9.113-1.7 1.505-3.701 2.33-5.967 2.556-6.381.638-11.277-3.956-12.03-9.864-.438-3.43.224-6.602 2.34-9.373 1.918-2.511 4.486-3.89 7.65-4.154 6.068-.505 10.677 3.722 11.731 9.107.17.863.267 1.732.257 2.616"/>
        <g transform="translate(186.004 90.227)">
            <mask id="b" fill="#fff">
                <use xlink:href="#a"/>
            </mask>
            <path fill="#FFF" d="M.072 2.324C.043.736 1.115.005 2.37.022c2.938.04 5.878.048 8.816.004 3.522-.051 6.22 2.707 6.647 5.88.367 2.726-.652 4.86-2.74 6.55-.163.13-.395.212-.076.45 1.386 1.03 1.943 2.477 2.056 4.149.034.492.112.982.174 1.473.06.472.275.842.667 1.131.526.387.942.855.939 1.574-.005.884-.619 1.56-1.499 1.651-1.277.133-2.252-.394-3.006-1.384-.709-.931-.978-2.025-1.092-3.165-.046-.45-.058-.903-.076-1.356-.048-1.25-.81-2.124-2.047-2.335a6.043 6.043 0 0 0-1.053-.088c-1.201.007-2.8-.005-4 .008-.273.003-.365-.068-.36-.351a62.47 62.47 0 0 0 0-2.676c-.007-.295.099-.354.364-.352 1.483.01 3.365-.02 4.848.014.736.018 1.268-.267 1.716-.82 1.121-1.386 1.36-3.695.517-5.2-.517-.923-1.254-1.428-2.367-1.407-2.062.04-4.125.023-6.188.002-.386-.004-.463.116-.462.479.011 5.422.009 10.845.007 16.268 0 .211-.003.425-.03.634-.193 1.457-1.322 2.105-2.682 1.544-.948-.39-1.356-.996-1.356-2.026-.002-3.086 0-6.173 0-9.26 0-3.03.037-6.06-.016-9.089z" mask="url(#b)"/>
        </g>
        <path fill="#FFF" d="M106.959 113.44c-2.1-.06-4.171-.393-6.019-1.587-.594-.384-1.177-.79-1.643-1.329-1.025-1.186-.541-2.89.913-3.236.588-.14 1.115.01 1.585.387.887.712 1.822 1.358 2.93 1.661 1.726.472 3.452.548 5.133-.213a5.19 5.19 0 0 0 .661-.376c1.738-1.115 1.29-3.19.043-4.059-.938-.654-2.012-.941-3.105-1.176-1.115-.24-2.258-.347-3.354-.685-1.456-.449-2.775-1.11-3.767-2.317-1.766-2.15-2.024-6.781 1.555-9.113 1.21-.788 2.544-1.222 3.963-1.375 2.34-.253 4.587.094 6.7 1.165.71.359 1.381.782 1.929 1.365.547.582.74 1.284.434 2.038-.291.717-.834 1.162-1.641 1.215-.385.025-.711-.11-1.025-.326-1.759-1.212-3.675-1.913-5.842-1.74-1.015.08-1.983.32-2.747 1.06-1.089 1.05-.948 2.839.302 3.691 1.014.691 2.19.96 3.368 1.19 1.62.318 3.242.625 4.767 1.294 2.283 1 3.364 2.762 3.473 5.25.15 3.417-2.127 5.597-4.63 6.54-1.271.48-2.585.689-3.983.677M172.386 96.599c-.542 1.284-1.051 2.493-1.563 3.702-1.643 3.878-3.285 7.756-4.933 11.632-.437 1.028-1.216 1.49-2.152 1.306-.985-.192-1.516-1.05-1.26-2.08.163-.66.483-1.266.742-1.891 2.446-5.9 4.9-11.799 7.353-17.697.594-1.427 1.956-1.887 3.125-1.066.363.255.576.614.742 1.01l4.86 11.617c1.01 2.412 2.022 4.823 3.035 7.233.397.947.278 1.795-.345 2.39-.909.869-2.273.634-2.876-.544-.424-.829-.76-1.702-1.134-2.557-.186-.428-.384-.851-.541-1.29-.103-.286-.258-.376-.56-.374-2.22.013-4.835.007-7.054.006-.467 0-.47-.002-.289-.42.426-.986.87-1.964 1.272-2.96.13-.323.306-.406.633-.4 1.144.019 2.687.004 3.831.009.243 0 .387-.024.255-.33-1.04-2.399-2.069-4.801-3.141-7.296M145.175 101.668c0-3.115.019-6.23-.007-9.343-.013-1.535 1.438-2.33 2.646-1.973.838.248 1.382.986 1.429 1.944.006.142.002.284.002.425 0 5.351.006 10.702-.012 16.053-.001.445.127.527.54.524 2.627-.02 5.255-.013 7.882-.008.946.003 1.676.475 1.944 1.23.438 1.234-.355 2.466-1.661 2.578-.14.012-.282.01-.424.01-3.376.001-6.752-.026-10.128.015-1.248.015-2.248-.81-2.226-2.24.048-3.07.015-6.143.015-9.215M70.902 109.553V91.6c0-.17-.005-.34.008-.51a.89.89 0 0 1 .907-.825.868.868 0 0 1 .882.803c.012.127.008.255.008.382v20.562c-.012.574-.222.894-.686 1.047-.44.144-.91-.024-1.224-.447-1.29-1.737-2.577-3.477-3.865-5.216l-9.748-13.16c-.05-.067-.106-.128-.24-.288v.534c0 5.835 0 11.669.003 17.503 0 .335-.016.648-.303.884-.288.237-.597.31-.946.17-.347-.141-.533-.404-.555-.78-.004-.085-.003-.17-.003-.255 0-6.854.002-13.707-.004-20.561 0-.454.068-.852.513-1.076.463-.233.95-.086 1.325.416.922 1.235 1.834 2.477 2.75 3.716l10.932 14.766c.056.075.121.143.246.288M8.162 113.435c-3.039.057-5.538-1.151-7.646-3.27-.47-.471-.465-1.052-.004-1.497.429-.415.967-.407 1.42.08 1.293 1.39 2.84 2.316 4.725 2.622 1.678.272 3.315.179 4.874-.599 2.781-1.387 2.812-4.894.4-6.52-1.176-.792-2.498-1.24-3.823-1.684-1.378-.462-2.773-.875-4.042-1.61C1.94 99.728.907 97.903 1.1 95.434c.176-2.241 1.41-3.798 3.401-4.645 3.333-1.416 6.58-1.168 9.616.905.48.328.876.762 1.18 1.265.286.477.19.922-.258 1.267-.408.315-.898.29-1.254-.1-2.029-2.218-5.488-2.803-8.166-1.747-2.053.81-2.96 2.642-2.327 4.68.237.766.737 1.327 1.392 1.76 1.335.883 2.824 1.408 4.336 1.88 1.307.41 2.616.822 3.803 1.523 2.24 1.322 3.1 3.258 2.872 5.707-.26 2.79-2.103 4.254-4.573 5.09-.956.324-1.955.425-2.96.417M46.242 101.699V91.505c.001-.677.204-1.016.691-1.177.654-.215 1.28.172 1.373.857.02.153.013.31.013.466 0 6.682 0 13.364.002 20.047 0 .226.003.452-.069.672-.16.491-.593.78-1.106.734-.503-.045-.83-.375-.893-.915-.018-.154-.01-.312-.01-.467v-10.023M93.015 111.177c-.126-.011-.255-.005-.382-.005-3.349 0-6.697-.005-10.046.008-.354.001-.479-.062-.478-.456.007-2.802 0-5.605 0-8.407 1.353-.011 4.041-.003 5.093-.003 1.158 0 2.316.005 3.473-.002.627-.005 1.03-.384 1.03-.94 0-.568-.393-.988-.993-.991-2.211-.011-6.173-.004-8.602-.009-.001-2.581.005-5.163 0-7.744 0-.368.113-.436.453-.434 3.363.012 6.726.007 10.088.007.156 0 .313.01.466-.01.627-.078.985-.635.804-1.235-.145-.476-.492-.693-1.126-.693H81.307c-.93 0-1.233.309-1.233 1.255v10.153c0 3.44-.001 6.882.001 10.323 0 .723.332 1.11.984 1.11 3.97.008 7.941.007 11.912.002.597 0 .997-.39 1.002-.928.006-.52-.407-.953-.958-1.001M23.644 91.447c0-.64-.306-1.056-.834-1.164-.728-.149-1.24.367-1.24 1.261 0 6.755 0 13.51.002 20.264 0 .169.01.34.04.506.086.475.431.77.908.792.674.031 1.124-.46 1.124-1.246V91.447zM38.904 91.186c-.06-.56-.436-.91-.98-.92a1.03 1.03 0 0 0-1.05.905 4.76 4.76 0 0 0-.032.593c-.002 2.761-.004 5.522.004 8.284 0 .288-.04.43-.385.428-3.508-.01-7.413-.007-10.921-.002a.272.272 0 0 0-.272.273v1.301c0 .184.148.333.331.333 3.45.01 7.3.01 10.75-.005.43-.001.502.14.5.53-.015 2.918-.009 5.835-.007 8.752 0 .177.003.356.025.532.07.553.577.974 1.131.912.562-.063.913-.528.913-1.228.002-3.399.001-6.797.001-10.195V91.61c0-.141.007-.284-.008-.424"/>
    </g>
</svg>
