<svg xmlns="http://www.w3.org/2000/svg" xmlns:xlink="http://www.w3.org/1999/xlink" width="215" height="43" viewBox="0 0 215 43">
    <defs>
        <path id="a" d="M.27.356h20.777v25.062H.27z"/>
    </defs>
    <g fill="none" fill-rule="evenodd">
        <g fill="#FFF" opacity=".7">
            <path d="M54.716 35.654c.112.11.168.252.168.428v5.63c0 .17-.06.31-.177.425a.627.627 0 0 1-.453.17.59.59 0 0 1-.424-.17.565.565 0 0 1-.177-.424v-2.27h-3.142v2.27a.55.55 0 0 1-.187.424.623.623 0 0 1-.433.17.597.597 0 0 1-.438-.17.573.573 0 0 1-.172-.424v-5.63c0-.17.059-.31.177-.424a.624.624 0 0 1 .453-.171c.164 0 .305.056.423.17a.566.566 0 0 1 .177.424v2.24h3.142v-2.24a.55.55 0 0 1 .187-.423.623.623 0 0 1 .434-.171c.183 0 .33.055.442.166M65.023 41.357a.54.54 0 0 1 .172.395.513.513 0 0 1-.172.399.614.614 0 0 1-.428.156h-3.3a.588.588 0 0 1-.6-.594v-5.631a.585.585 0 0 1 .6-.594h3.3c.17 0 .313.053.428.16a.54.54 0 0 1 .172.415.506.506 0 0 1-.167.394.624.624 0 0 1-.433.152h-2.67v1.655h2.226c.17 0 .313.054.428.161a.54.54 0 0 1 .173.414.505.505 0 0 1-.168.394.621.621 0 0 1-.433.152h-2.226v1.802h2.67c.17 0 .313.056.428.17M72.06 39.657h1.969l-.995-2.28-.975 2.28zm4.057 2.124a.548.548 0 0 1-.168.414.54.54 0 0 1-.704.054.695.695 0 0 1-.221-.293l-.512-1.178h-2.935l-.513 1.188a.601.601 0 0 1-.211.287.523.523 0 0 1-.31.103c-.171 0-.3-.046-.39-.137a.506.506 0 0 1-.133-.37c0-.059.01-.12.03-.185l2.452-5.826a.647.647 0 0 1 .237-.301.522.522 0 0 1 .354-.089.585.585 0 0 1 .551.39l2.423 5.71c.033.083.05.161.05.233zM85.758 35.644c.112.104.168.24.168.41a.517.517 0 0 1-.168.403.621.621 0 0 1-.433.152h-1.546v5.104c0 .169-.063.31-.188.424a.665.665 0 0 1-.462.17.629.629 0 0 1-.453-.17.566.566 0 0 1-.178-.424v-5.104h-1.546a.61.61 0 0 1-.433-.157.532.532 0 0 1-.167-.409c0-.162.057-.295.172-.4a.614.614 0 0 1 .428-.155h4.373a.61.61 0 0 1 .433.156M92.337 42.137a.623.623 0 0 1-.433.17.597.597 0 0 1-.439-.17.57.57 0 0 1-.172-.424v-5.631c0-.169.059-.31.177-.423a.625.625 0 0 1 .453-.171c.164 0 .305.056.423.17a.564.564 0 0 1 .178.424v5.63c0 .17-.063.31-.187.425M103.948 35.644a.546.546 0 0 1 .147.39v5.679a.585.585 0 0 1-.6.594.86.86 0 0 1-.271-.044.386.386 0 0 1-.192-.122l-3.615-4.54v4.16c0 .156-.05.286-.152.39a.534.534 0 0 1-.4.156.506.506 0 0 1-.384-.156.544.544 0 0 1-.147-.39v-5.68a.584.584 0 0 1 .6-.594c.1.001.196.02.291.06.096.038.166.09.212.155l3.585 4.52v-4.189c0-.156.05-.285.152-.39a.521.521 0 0 1 .39-.155c.157 0 .285.052.384.156M115.41 38.796a.578.578 0 0 1 .168.423v2.065a.584.584 0 0 1-.305.527 3.96 3.96 0 0 1-2.117.594c-.65 0-1.251-.158-1.803-.473a3.559 3.559 0 0 1-1.31-1.276 3.348 3.348 0 0 1-.482-1.759c0-.636.16-1.223.483-1.758a3.556 3.556 0 0 1 1.31-1.276 3.578 3.578 0 0 1 1.802-.473c.65 0 1.214.13 1.693.39a.54.54 0 0 1 .222.204.538.538 0 0 1 .074.273.616.616 0 0 1-.162.425.519.519 0 0 1-.4.18.814.814 0 0 1-.324-.079 2.831 2.831 0 0 0-1.103-.223c-.42 0-.808.106-1.163.316a2.343 2.343 0 0 0-1.152 2.021 2.35 2.35 0 0 0 1.152 2.022c.355.211.742.316 1.163.316a3.967 3.967 0 0 0 1.142-.176v-1.265h-.926a.594.594 0 0 1-.428-.165.558.558 0 0 1-.173-.42c0-.169.058-.308.173-.42a.592.592 0 0 1 .428-.165h1.615c.171 0 .312.057.424.172M131.7 40.797a19.055 19.055 0 0 1-1.635-1.617l-.177-.204c-.355.104-.601.246-.739.429-.138.18-.206.412-.206.691 0 .33.123.615.369.851.246.238.631.357 1.157.357a1.73 1.73 0 0 0 1.23-.507m2.364.643l.06.117c.039.078.059.169.059.273 0 .11-.043.22-.129.33a.423.423 0 0 1-.354.166.515.515 0 0 1-.335-.097l-.541-.458-.316-.273c-.61.605-1.382.906-2.314.906a2.64 2.64 0 0 1-1.246-.297 2.316 2.316 0 0 1-.886-.789 1.887 1.887 0 0 1-.32-1.047c0-.962.482-1.653 1.447-2.075a2.388 2.388 0 0 1-.285-.487 1.27 1.27 0 0 1-.099-.496c0-.326.089-.626.266-.902.177-.276.428-.498.754-.667.325-.17.7-.254 1.127-.254.454 0 .862.077 1.226.23.365.152.61.349.734.588a.842.842 0 0 1 .089.38c0 .13-.048.24-.143.327a.526.526 0 0 1-.37.132c-.17 0-.298-.059-.384-.176a1.182 1.182 0 0 0-.487-.39 1.722 1.722 0 0 0-.665-.116c-.282 0-.503.074-.664.223a.738.738 0 0 0-.242.566c0 .208.08.417.242.628.16.211.382.453.664.726l.276.272c.21.228.581.592 1.113 1.091.131-.292.223-.614.276-.964a.349.349 0 0 1 .127-.248c.073-.055.188-.083.346-.083.15 0 .275.057.374.171.098.113.147.25.147.414l-.01.096a4.21 4.21 0 0 1-.443 1.365 25.828 25.828 0 0 1 .906.818M151.721 36.316c0 .136-.05.27-.147.4a.489.489 0 0 1-.404.204.718.718 0 0 1-.335-.088 2.449 2.449 0 0 0-1.044-.224c-.46 0-.86.096-1.201.287a1.954 1.954 0 0 0-.788.81 2.502 2.502 0 0 0-.276 1.192c0 .767.208 1.348.626 1.744.416.396.963.594 1.64.594.4 0 .748-.074 1.043-.224a.797.797 0 0 1 .315-.078c.17 0 .315.072.434.215a.631.631 0 0 1 .148.399.513.513 0 0 1-.305.477 3.639 3.639 0 0 1-1.636.38 3.902 3.902 0 0 1-1.773-.404 3.135 3.135 0 0 1-1.29-1.193c-.321-.527-.482-1.163-.482-1.91 0-.663.152-1.256.458-1.782a3.237 3.237 0 0 1 1.265-1.233c.539-.295 1.146-.443 1.822-.443.584 0 1.126.126 1.625.38.203.104.305.27.305.497M161.894 37.714a2.125 2.125 0 0 0-.738-.843 1.89 1.89 0 0 0-1.064-.311c-.4 0-.756.102-1.068.306a2.064 2.064 0 0 0-.729.843 2.68 2.68 0 0 0-.261 1.188c0 .436.087.832.261 1.189.174.358.417.638.729.842.312.205.668.307 1.068.307a1.89 1.89 0 0 0 1.064-.31c.315-.209.561-.49.738-.844.177-.354.267-.748.267-1.184 0-.435-.09-.829-.267-1.183m1.113 2.951a3.3 3.3 0 0 1-1.196 1.272 3.22 3.22 0 0 1-1.719.468 3.22 3.22 0 0 1-1.719-.468 3.264 3.264 0 0 1-1.19-1.272 3.69 3.69 0 0 1-.43-1.768c0-.642.143-1.232.43-1.768a3.225 3.225 0 0 1 2.91-1.739c.636 0 1.209.156 1.718.468.508.311.907.735 1.196 1.271.289.536.433 1.126.433 1.768 0 .643-.144 1.233-.433 1.768M173.702 37.714a2.128 2.128 0 0 0-.738-.843 1.894 1.894 0 0 0-1.064-.311c-.4 0-.757.102-1.068.306a2.069 2.069 0 0 0-.729.843 2.68 2.68 0 0 0-.261 1.188c0 .436.087.832.261 1.189.174.358.417.638.729.842.311.205.668.307 1.068.307.394 0 .748-.103 1.064-.31.315-.209.561-.49.738-.844.177-.354.267-.748.267-1.184 0-.435-.09-.829-.267-1.183m1.113 2.951c-.289.536-.687.96-1.196 1.272a3.218 3.218 0 0 1-1.719.468c-.637 0-1.21-.156-1.718-.468a3.261 3.261 0 0 1-1.192-1.272 3.697 3.697 0 0 1-.428-1.768 3.7 3.7 0 0 1 .428-1.768c.286-.536.683-.96 1.192-1.27a3.222 3.222 0 0 1 1.718-.469c.637 0 1.21.156 1.719.468a3.29 3.29 0 0 1 1.196 1.271 3.66 3.66 0 0 1 .434 1.768c0 .643-.144 1.233-.434 1.768M184.944 41.328a.539.539 0 0 1 .172.414.528.528 0 0 1-.172.404.604.604 0 0 1-.428.161h-3.201a.583.583 0 0 1-.6-.595v-5.63c0-.168.058-.31.177-.424a.625.625 0 0 1 .452-.17.59.59 0 0 1 .424.17.565.565 0 0 1 .177.424v5.085h2.571c.17 0 .313.054.428.161M191.626 42.137a.623.623 0 0 1-.433.17.598.598 0 0 1-.439-.17.573.573 0 0 1-.172-.424v-5.631c0-.169.059-.31.178-.423a.623.623 0 0 1 .452-.171c.164 0 .306.056.424.17a.564.564 0 0 1 .177.424v5.63c0 .17-.062.31-.187.425M203.237 35.644a.546.546 0 0 1 .148.39v5.679a.585.585 0 0 1-.6.594.858.858 0 0 1-.272-.044.386.386 0 0 1-.192-.122l-3.614-4.54v4.16c0 .156-.05.286-.153.39a.533.533 0 0 1-.399.156.505.505 0 0 1-.384-.156.544.544 0 0 1-.148-.39v-5.68a.584.584 0 0 1 .6-.594c.1.001.197.02.292.06.096.038.165.09.212.155l3.584 4.52v-4.189c0-.156.051-.285.153-.39a.52.52 0 0 1 .389-.155c.158 0 .285.052.384.156M214.7 38.796a.578.578 0 0 1 .168.423v2.065a.584.584 0 0 1-.306.527 3.96 3.96 0 0 1-2.117.594c-.65 0-1.25-.158-1.802-.473a3.564 3.564 0 0 1-1.31-1.276 3.354 3.354 0 0 1-.483-1.759c0-.636.161-1.223.483-1.758a3.56 3.56 0 0 1 1.31-1.276 3.58 3.58 0 0 1 1.802-.473c.65 0 1.214.13 1.694.39a.54.54 0 0 1 .222.204.538.538 0 0 1 .073.273.617.617 0 0 1-.162.425.519.519 0 0 1-.4.18.814.814 0 0 1-.324-.079 2.831 2.831 0 0 0-1.103-.223c-.42 0-.807.106-1.162.316a2.343 2.343 0 0 0-1.152 2.021 2.35 2.35 0 0 0 1.152 2.022c.355.211.742.316 1.162.316a3.982 3.982 0 0 0 1.142-.176v-1.265h-.925a.597.597 0 0 1-.429-.165.558.558 0 0 1-.172-.42c0-.169.057-.308.172-.42a.595.595 0 0 1 .429-.165h1.615c.17 0 .311.057.423.172"/>
        </g>
        <path fill="#FFF" d="M168.047 11.303c-.599 1.407-1.162 2.732-1.729 4.056-1.816 4.246-3.633 8.496-5.455 12.74-.484 1.126-1.346 1.631-2.381 1.43-1.09-.21-1.677-1.15-1.395-2.278.18-.724.535-1.386.821-2.072 2.707-6.462 5.42-12.922 8.134-19.382.657-1.563 2.165-2.067 3.457-1.168.401.28.637.673.821 1.107l5.376 12.723c1.118 2.642 2.237 5.283 3.357 7.922.44 1.037.307 1.967-.381 2.618-1.005.952-2.514.695-3.182-.595-.469-.908-.841-1.865-1.254-2.802-.206-.468-.425-.932-.6-1.412-.113-.314-.284-.413-.62-.41-2.453.014-5.347.008-7.8.007-.517 0-.52-.003-.321-.46.472-1.08.963-2.15 1.408-3.242.144-.354.338-.445.7-.439 1.265.021 2.971.005 4.238.01.269.002.427-.025.281-.361-1.149-2.628-2.288-5.258-3.475-7.992M128.049 25.517V5.853c0-.186-.005-.373.009-.558a.98.98 0 0 1 1.003-.904c.524.004.925.363.976.88.014.138.009.279.009.418v22.52c-.013.629-.246.98-.76 1.147-.486.158-1.005-.025-1.353-.49-1.426-1.902-2.85-3.808-4.275-5.713L112.875 8.74c-.054-.072-.117-.139-.265-.315v.586c0 6.39 0 12.78.003 19.17 0 .367-.018.71-.335.969-.319.26-.661.34-1.047.185-.384-.154-.59-.441-.614-.853-.004-.094-.003-.187-.003-.28 0-7.506.002-15.013-.004-22.52-.001-.496.075-.933.567-1.178.512-.255 1.052-.094 1.465.455 1.02 1.353 2.03 2.714 3.043 4.07 4.03 5.392 8.061 10.783 12.092 16.173.061.082.134.156.272.316M58.649 29.768c-3.361.063-6.125-1.26-8.457-3.58-.521-.517-.515-1.153-.005-1.64.474-.455 1.07-.447 1.57.086 1.431 1.524 3.142 2.538 5.227 2.872 1.857.299 3.667.196 5.392-.656 3.076-1.519 3.11-5.36.442-7.14-1.3-.868-2.763-1.359-4.228-1.845-1.525-.506-3.068-.958-4.472-1.763-2.35-1.346-3.494-3.347-3.28-6.051.194-2.454 1.56-4.16 3.762-5.087 3.686-1.551 7.28-1.28 10.636.991.53.36.969.835 1.305 1.386.317.522.21 1.01-.285 1.388-.451.344-.993.317-1.387-.11-2.244-2.43-6.07-3.07-9.033-1.913-2.27.887-3.273 2.892-2.574 5.126.262.838.815 1.453 1.54 1.927 1.476.967 3.124 1.542 4.796 2.059 1.446.447 2.894.9 4.208 1.668 2.477 1.448 3.427 3.568 3.175 6.25-.286 3.057-2.325 4.66-5.058 5.576-1.057.354-2.162.465-3.274.456M100.772 16.914V5.75c0-.742.225-1.114.765-1.29.723-.236 1.415.189 1.518.938.023.168.014.34.014.511l.001 21.956c0 .249.004.496-.075.736a1.145 1.145 0 0 1-1.223.805c-.557-.05-.919-.412-.988-1.003-.02-.169-.012-.34-.012-.51V16.913M152.51 27.295c-.14-.012-.282-.006-.422-.006-3.705 0-7.41-.005-11.114.01-.39.001-.529-.069-.528-.5.007-3.069 0-6.138 0-9.208l9.476-.006c.692-.005 1.138-.42 1.138-1.03 0-.621-.435-1.081-1.097-1.085l-9.516-.01c-.001-2.826.006-5.653 0-8.48 0-.404.125-.478.5-.476 3.72.013 7.44.009 11.16.008.173 0 .347.01.516-.011.692-.086 1.09-.696.888-1.353-.16-.522-.543-.76-1.245-.76H139.56c-1.028 0-1.364.34-1.364 1.376v11.12c0 3.768-.001 7.537.001 11.306 0 .792.367 1.215 1.089 1.217 4.391.007 8.784.007 13.176 0 .66 0 1.103-.426 1.109-1.015.005-.57-.45-1.044-1.06-1.097M75.775 5.686c-.001-.7-.338-1.157-.922-1.275-.806-.164-1.372.401-1.372 1.382-.001 7.397-.001 14.795.001 22.193 0 .185.01.373.045.555.095.52.477.843 1.005.866.745.035 1.242-.503 1.243-1.363V5.686zM94.185 5.465c-.073-.65-.532-1.057-1.195-1.07-.648-.012-1.198.433-1.28 1.052-.03.228-.037.46-.037.69-.003 3.206-.005 4.895.004 8.102 0 .336-.048.5-.469.498-4.273-.01-9.032-.007-13.305-.001a.323.323 0 0 0-.332.317v1.51c0 .213.18.387.403.387 4.204.01 8.894.012 13.097-.006.525-.002.613.163.61.616-.018 3.39-.01 6.777-.008 10.165 0 .206.004.415.03.618.085.643.703 1.132 1.378 1.06.685-.072 1.112-.613 1.113-1.427.002-3.947.001-7.895.001-11.841V5.958c0-.165.008-.33-.01-.493M186.135 29.402h-.341a2.063 2.063 0 0 1-2.075-2.052V6.44c0-1.133.928-2.052 2.075-2.052h.341c1.146 0 2.074.919 2.074 2.052v20.91a2.063 2.063 0 0 1-2.074 2.052"/>
        <g transform="translate(193.82 3.92)">
            <mask id="b" fill="#fff">
                <use xlink:href="#a"/>
            </mask>
            <path fill="#FFF" d="M.271 2.877C.241 1.138 1.426.337 2.815.357c3.25.043 6.501.05 9.752.004 3.895-.058 6.88 2.964 7.353 6.438.405 2.987-.722 5.323-3.032 7.175-.18.143-.437.233-.084.492 1.534 1.128 2.149 2.714 2.275 4.545.036.54.124 1.076.192 1.613.066.518.304.922.738 1.24.581.423 1.041.936 1.038 1.723-.006.968-.684 1.709-1.658 1.809-1.413.145-2.49-.432-3.325-1.516-.784-1.02-1.082-2.218-1.208-3.467-.05-.492-.064-.99-.084-1.485-.054-1.368-.897-2.327-2.264-2.557a6.684 6.684 0 0 0-1.165-.097c-1.329.007-3.097-.005-4.426.009-.3.003-.402-.075-.396-.385.02-.976.021-1.954 0-2.93-.008-.323.109-.388.402-.387 1.64.012 3.723-.02 5.362.017.814.018 1.403-.293 1.898-.898 1.24-1.518 1.505-4.048.572-5.696-.572-1.012-1.387-1.564-2.617-1.541-2.282.043-4.564.025-6.846.002-.427-.004-.512.126-.51.524.012 5.94.009 11.879.007 17.818 0 .232-.003.466-.034.695-.213 1.596-1.462 2.305-2.966 1.69-1.049-.426-1.5-1.09-1.5-2.219-.002-3.38 0-6.76 0-10.14 0-3.32.042-6.638-.018-9.956" mask="url(#b)"/>
        </g>
        <path fill="#FFF" d="M18.59 12.935a.467.467 0 0 0-.308-.438L4.41 7.35a1.067 1.067 0 0 0-1.262.417c-.107.16-.162.366-.162.595v3.642c.005 5.61 4.447 10.156 10.113 10.352l.275.009h4.673a.534.534 0 0 0 .537-.53V20.81a.534.534 0 0 0-.537-.532h-4.583c-4.61-.002-8.365-3.714-8.369-8.274v-1.919c0-.122.123-.207.238-.164l12.774 4.739a.357.357 0 0 0 .482-.331v-1.395zM24.813 30.143l13.89 5.151c.465.175.984.002 1.262-.416.106-.16.162-.366.162-.596v-3.521c0-5.652-4.529-10.286-10.239-10.476l-.148-.005h-4.771a.432.432 0 0 0-.434.429v1.229c0 .237.195.428.434.428h4.558c4.69 0 8.49 3.76 8.49 8.399v1.868a.125.125 0 0 1-.169.116l-12.89-4.78a.318.318 0 0 0-.296.036.312.312 0 0 0-.139.261v1.463c0 .184.116.349.29.414"/>
        <path fill="#FFF" d="M28.512 18.389l1.625-.001a.327.327 0 0 0 .306-.21l5.238-13.816a1.047 1.047 0 0 0-.323-1.178c-.183-.15-.443-.23-.732-.23H30.98c-5.677 0-10.276 4.393-10.47 10.002l-.008.268v15.974c0 4.644-3.806 8.408-8.5 8.408h-1.604c-.104 0-.201-.05-.26-.134a.31.31 0 0 1-.037-.288l4.758-12.55a.28.28 0 0 0-.264-.377l-1.425.003a.604.604 0 0 0-.565.387L7.432 38.284c-.191.503.03 1.053.525 1.309.128.066.294.1.49.1h3.61c5.688 0 10.353-4.46 10.547-10.082l.007-.19V13.449c0-4.644 3.806-8.408 8.5-8.408h1.604c.104 0 .2.05.26.134a.31.31 0 0 1 .037.288L28.25 18.015a.276.276 0 0 0 .262.374"/>
        <path fill="#FFF" fill-opacity=".5" d="M17.75 40.436c-.647.323-1.32.59-2.012.798-.307.092-.307.525.002.612 1.857.519 3.814.8 5.837.8 5.58 0 10.669-2.113 14.5-5.568a.346.346 0 0 0-.116-.58l-1.316-.489a.677.677 0 0 0-.665.115 19.482 19.482 0 0 1-12.403 4.437c-1.044 0-2.067-.086-3.066-.244a1.257 1.257 0 0 0-.761.12M40.878 25.11c.326.638.596 1.304.806 1.989.093.303.532.303.619-.003a20.98 20.98 0 0 0 .809-5.773c0-5.52-2.136-10.554-5.628-14.345a.354.354 0 0 0-.588.116l-.494 1.301a.66.66 0 0 0 .116.659c2.799 3.333 4.487 7.608 4.487 12.269 0 1.032-.088 2.045-.247 3.032-.042.259 0 .521.12.754M25.362 2.21c.647-.323 1.32-.59 2.012-.798.307-.092.307-.525-.003-.612-1.857-.519-3.813-.8-5.836-.8-5.58 0-10.67 2.113-14.502 5.567a.347.347 0 0 0 .118.582l1.315.488a.68.68 0 0 0 .665-.115 19.481 19.481 0 0 1 12.404-4.437c1.044 0 2.067.085 3.066.243.26.042.525 0 .761-.118M2.234 17.537a12.388 12.388 0 0 1-.806-1.99c-.094-.303-.532-.303-.619.003A20.98 20.98 0 0 0 0 21.323c0 5.52 2.136 10.554 5.628 14.344a.354.354 0 0 0 .588-.116l.494-1.3a.66.66 0 0 0-.117-.659c-2.798-3.333-4.486-7.608-4.486-12.269 0-1.032.087-2.045.247-3.033a1.226 1.226 0 0 0-.12-.753"/>
    </g>
</svg>
