<svg xmlns="http://www.w3.org/2000/svg" xmlns:xlink="http://www.w3.org/1999/xlink" width="250" height="45" viewBox="0 0 250 45">
    <defs>
        <path id="a" d="M.005.043h6.416v1.7H.005z"/>
        <path id="c" d="M0 0h6.416v1.701H0z"/>
    </defs>
    <g fill="none" fill-rule="evenodd">
        <path fill="#425563" d="M125.133 23.727V4.665c0-.18-.005-.36.008-.54a.948.948 0 0 1 .97-.877c.507.004.895.352.944.853.013.134.009.27.009.405v21.832c-.013.61-.237.95-.734 1.111-.47.153-.973-.024-1.31-.474-1.379-1.845-2.756-3.692-4.134-5.538L110.458 7.463c-.053-.07-.113-.135-.256-.305v.568c0 6.194-.001 12.389.002 18.583 0 .356-.017.688-.324.94-.308.251-.639.33-1.012.18-.371-.15-.57-.429-.593-.829-.005-.09-.004-.18-.004-.27 0-7.277.002-14.555-.004-21.831 0-.482.073-.905.549-1.143.495-.247 1.017-.091 1.417.441.986 1.312 1.962 2.631 2.943 3.947L124.87 23.42c.06.08.13.152.263.306M58.014 27.849c-3.25.06-5.923-1.223-8.179-3.471-.503-.502-.497-1.118-.004-1.59.459-.44 1.034-.433 1.518.084 1.384 1.477 3.04 2.46 5.055 2.784 1.796.29 3.547.19 5.215-.635 2.975-1.474 3.008-5.197.428-6.922-1.259-.842-2.673-1.318-4.09-1.79-1.474-.49-2.967-.928-4.325-1.708-2.272-1.306-3.378-3.245-3.172-5.866.188-2.38 1.509-4.033 3.639-4.931 3.565-1.504 7.04-1.241 10.286.96.513.349.937.809 1.262 1.343.307.506.203.979-.275 1.346-.437.334-.96.308-1.342-.106-2.17-2.356-5.87-2.977-8.736-1.855-2.196.86-3.165 2.804-2.49 4.969.254.813.789 1.408 1.49 1.868 1.428.937 3.02 1.495 4.638 1.997 1.4.434 2.8.872 4.07 1.616 2.396 1.404 3.315 3.46 3.071 6.06-.278 2.962-2.249 4.516-4.892 5.405-1.022.343-2.091.45-3.167.442M98.752 15.388V4.565c.001-.72.218-1.08.74-1.25.7-.229 1.37.183 1.468.91.023.162.015.33.015.494v21.285c0 .24.004.48-.072.714a1.107 1.107 0 0 1-1.184.78c-.538-.048-.888-.4-.955-.972-.019-.164-.011-.33-.011-.496V15.388M148.789 25.451c-.135-.011-.272-.005-.408-.005-3.583 0-7.165-.005-10.748.008-.378.002-.512-.065-.51-.483.006-2.976 0-5.951 0-8.927 1.447-.011 4.322-.003 5.447-.003 1.24 0 2.478.006 3.716-.003.67-.004 1.101-.407 1.101-.998 0-.603-.42-1.049-1.061-1.052-2.366-.011-6.605-.003-9.203-.008 0-2.742.006-5.482 0-8.223 0-.39.121-.463.484-.461 3.598.013 7.196.008 10.793.007.167 0 .335.01.499-.01.67-.083 1.054-.675.86-1.311-.156-.506-.526-.737-1.205-.737h-12.29c-.994 0-1.318.329-1.318 1.334v10.78c0 3.653-.002 7.306 0 10.96 0 .768.355 1.179 1.053 1.18 4.248.007 8.495.006 12.743 0 .64 0 1.067-.413 1.073-.984.005-.552-.436-1.012-1.026-1.064M74.578 4.503c-.002-.68-.328-1.122-.893-1.236-.779-.158-1.326.39-1.326 1.34-.001 7.17-.001 14.342.001 21.514 0 .18.01.362.043.538.093.504.462.817.972.84.72.034 1.202-.487 1.203-1.322V4.503zM90.902 4.226c-.064-.594-.467-.966-1.049-.978a1.1 1.1 0 0 0-1.123.962c-.027.208-.033.42-.033.63-.003 2.931-.005 5.863.003 8.795.001.306-.043.456-.411.455-3.753-.01-7.931-.008-11.684-.002a.29.29 0 0 0-.29.29v1.38c0 .196.158.354.354.355 3.69.01 7.808.01 11.5-.006.46-.002.537.15.535.563-.016 3.098-.01 6.195-.007 9.292 0 .188.003.379.026.565.075.588.618 1.034 1.21.969.601-.067.977-.561.977-1.304V15.366 4.676c0-.15.008-.302-.008-.45"/>
        <path fill="#FF6900" d="M160.917 16.535v-2.934a.5.5 0 0 1 .5-.5h8.811V5.234c0-.593.218-1.089.653-1.488.436-.399.94-.598 1.514-.598.642 0 1.158.193 1.547.581.39.388.585.89.585 1.505v19.77c0 .594-.206 1.09-.62 1.489-.412.399-.94.598-1.581.598-.573 0-1.066-.2-1.479-.598-.413-.4-.619-.895-.619-1.488v-7.97h-8.811a.5.5 0 0 1-.5-.5zm-1.66 8.47c0 .593-.218 1.089-.653 1.488-.436.399-.94.598-1.514.598-.619 0-1.129-.2-1.53-.598-.401-.4-.602-.895-.602-1.488V5.235c0-.594.207-1.09.62-1.489.412-.399.94-.598 1.581-.598.573 0 1.066.2 1.48.598.412.4.618.895.618 1.488v19.77zM201.441 15.462c0 2.257-.504 4.327-1.513 6.208-1.009 1.881-2.402 3.37-4.179 4.464-1.777 1.094-3.777 1.642-6.001 1.642s-4.224-.548-6.001-1.642c-1.777-1.095-3.164-2.583-4.162-4.464-.997-1.881-1.496-3.95-1.496-6.208s.499-4.327 1.496-6.209c.998-1.881 2.385-3.369 4.162-4.464 1.777-1.094 3.777-1.641 6.001-1.641s4.224.547 6.001 1.641c1.777 1.095 3.17 2.583 4.179 4.464 1.009 1.882 1.513 3.951 1.513 6.209zm-4.47 0c0-1.528-.31-2.914-.93-4.156-.618-1.243-1.478-2.23-2.579-2.96-1.1-.729-2.338-1.094-3.714-1.094-1.399 0-2.642.36-3.731 1.078-1.09.718-1.938 1.704-2.545 2.958-.608 1.255-.912 2.646-.912 4.174 0 1.527.304 2.918.912 4.173.607 1.254 1.455 2.24 2.545 2.958 1.089.719 2.332 1.078 3.731 1.078 1.376 0 2.614-.365 3.714-1.095s1.96-1.716 2.58-2.958c.619-1.243.928-2.629.928-4.156zM227.095 3.148c.573 0 1.072.2 1.496.598.424.4.636.895.636 1.488V25.04c0 .593-.194 1.089-.584 1.488-.39.4-.906.599-1.548.599s-1.163-.194-1.565-.582c-.4-.387-.601-.89-.601-1.505V11.254l-5.675 8.62c-.23.274-.493.496-.791.667a1.604 1.604 0 0 1-.929.222 1.538 1.538 0 0 1-.894-.222 2.929 2.929 0 0 1-.79-.667l-5.675-8.928V25.04c0 .616-.184 1.118-.55 1.505-.368.388-.849.582-1.445.582-.573 0-1.043-.2-1.41-.599-.367-.399-.55-.895-.55-1.488V5.234c0-.57.212-1.06.636-1.47.424-.411.934-.616 1.53-.616a2.3 2.3 0 0 1 1.032.256c.344.171.608.393.791.667l7.497 11.459 7.704-11.459c.183-.274.43-.496.74-.667.309-.17.624-.256.945-.256zM247.647 23.158c.596 0 1.095.2 1.496.598.401.4.602.861.602 1.386 0 .57-.2 1.037-.602 1.402-.401.365-.9.547-1.496.547h-11.521c-.596 0-1.095-.2-1.496-.598-.401-.4-.602-.895-.602-1.488V5.235c0-.594.2-1.09.602-1.489.401-.399.9-.598 1.496-.598h11.52c.597 0 1.096.188 1.497.564.401.376.602.86.602 1.454 0 .57-.195 1.032-.585 1.385-.39.353-.894.53-1.513.53h-9.32v5.815h7.772c.596 0 1.095.188 1.496.565.402.376.602.86.602 1.453 0 .57-.195 1.032-.584 1.386-.39.353-.895.53-1.514.53h-7.772v6.328h9.32z"/>
        <g>
            <path fill="#425563" d="M42.066 26.82a.857.857 0 0 1-1.05.602l-4.542-1.21a.85.85 0 1 1 .443-1.643l4.543 1.21a.85.85 0 0 1 .606 1.041"/>
            <g transform="translate(36.386 20.416)">
                <mask id="b" fill="#fff">
                    <use xlink:href="#a"/>
                </mask>
                <path fill="#425563" d="M6.421.893c0 .47-.383.85-.856.85H.86a.853.853 0 0 1-.856-.85c0-.47.383-.85.856-.85h4.704c.473 0 .856.38.856.85" mask="url(#b)"/>
            </g>
            <g transform="translate(0 20.459)">
                <mask id="d" fill="#fff">
                    <use xlink:href="#c"/>
                </mask>
                <path fill="#425563" d="M0 .85C0 .382.383 0 .856 0H5.56c.473 0 .856.381.856.85 0 .47-.383.851-.856.851H.856A.853.853 0 0 1 0 .851" mask="url(#d)"/>
            </g>
            <path fill="#425563" d="M.734 26.814a.85.85 0 0 1 .605-1.042l4.544-1.21a.85.85 0 1 1 .443 1.643l-4.543 1.21a.857.857 0 0 1-1.049-.601M21.404.043c.473 0 .856.38.856.85v4.674c0 .47-.383.85-.856.85a.853.853 0 0 1-.856-.85V.893c0-.47.383-.85.856-.85M6.283 6.286a.86.86 0 0 1 1.211 0L10.82 9.59a.847.847 0 0 1 0 1.203.86.86 0 0 1-1.21 0L6.282 7.489a.847.847 0 0 1 0-1.203M2.865 10.674a.86.86 0 0 1 1.17-.31L8.107 12.7c.41.235.55.755.313 1.162a.86.86 0 0 1-1.17.311l-4.073-2.336a.848.848 0 0 1-.313-1.163M.742 15.799a.857.857 0 0 1 1.049-.602l4.543 1.21a.85.85 0 1 1-.443 1.643l-4.544-1.21A.85.85 0 0 1 .742 15.8M42.073 15.805a.85.85 0 0 1-.605 1.042l-4.543 1.21a.85.85 0 1 1-.443-1.643l4.543-1.21a.857.857 0 0 1 1.048.6M39.934 10.697a.848.848 0 0 1-.314 1.162l-4.073 2.337a.86.86 0 0 1-1.17-.311.848.848 0 0 1 .314-1.162l4.073-2.337a.86.86 0 0 1 1.17.311M36.524 6.286a.847.847 0 0 1 0 1.203l-3.326 3.304a.86.86 0 0 1-1.21 0 .847.847 0 0 1 0-1.203l3.325-3.304a.86.86 0 0 1 1.211 0M32.107 2.89c.41.234.55.754.313 1.161L30.07 8.1a.86.86 0 0 1-1.17.31.848.848 0 0 1-.313-1.161L30.938 3.2a.86.86 0 0 1 1.169-.31M26.95.78a.85.85 0 0 1 .605 1.042l-1.217 4.514a.857.857 0 0 1-1.654-.44L25.9 1.38A.857.857 0 0 1 26.95.78"/>
            <path fill="#FF6900" d="M32.187 20.441h.776c.473 0 .856.381.856.851s-.383.85-.856.85h-.776a.853.853 0 0 1-.857-.85c0-.47.384-.85.857-.85zM9.817 20.441h.776c.473 0 .856.381.856.851s-.383.85-.856.85h-.776a.853.853 0 0 1-.856-.85c0-.47.383-.85.856-.85z"/>
            <path fill="#425563" d="M15.864.772a.857.857 0 0 1 1.048.601l1.218 4.515a.857.857 0 0 1-1.654.44l-1.218-4.514a.85.85 0 0 1 .606-1.042M10.723 2.898a.86.86 0 0 1 1.17.311l2.352 4.048a.848.848 0 0 1-.314 1.162.86.86 0 0 1-1.17-.312L10.41 4.06a.848.848 0 0 1 .313-1.162"/>
            <path fill="#FF6900" d="M21.396 8.971c.473 0 .856.381.856.851v2.552c0 .47-.383.85-.856.85a.853.853 0 0 1-.856-.85V9.822c0-.47.383-.85.856-.85M14.358 17.28a.86.86 0 0 1-1.17.311l-2.224-1.276a.848.848 0 0 1-.314-1.162.86.86 0 0 1 1.17-.311l2.224 1.276c.41.235.55.755.314 1.162M17.34 14.305a.86.86 0 0 1-1.17-.311l-1.284-2.21a.848.848 0 0 1 .313-1.162.86.86 0 0 1 1.17.311l1.284 2.21a.848.848 0 0 1-.313 1.162M25.449 14.314a.848.848 0 0 1-.314-1.162l1.284-2.21a.86.86 0 0 1 1.17-.312c.41.235.55.755.313 1.162l-1.284 2.21a.86.86 0 0 1-1.17.312M28.442 17.277a.848.848 0 0 1 .314-1.162l2.224-1.276a.86.86 0 0 1 1.17.311.848.848 0 0 1-.314 1.162l-2.224 1.276a.86.86 0 0 1-1.17-.311"/>
            <g fill="#FF6900" fill-rule="nonzero">
                <path d="M31.62 42.896c.251 0 .454-.203.454-.452v-9.708c0-.498.407-.903.908-.903.502 0 .908.405.908.903v9.708a2.264 2.264 0 0 1-2.27 2.258h-6.128a1.585 1.585 0 0 1-1.59-1.58v-5.419a2.49 2.49 0 0 0-2.496-2.483 2.49 2.49 0 0 0-2.497 2.483v5.418c0 .873-.711 1.58-1.589 1.58h-6.129a2.264 2.264 0 0 1-2.27-2.257V32.059c0-.499.407-.903.908-.903.502 0 .908.404.908.903v10.385c0 .25.204.452.454.452h5.902v-5.193c0-2.369 1.931-4.29 4.313-4.29 2.382 0 4.313 1.921 4.313 4.29v5.193h5.901z"/>
                <path d="M21.406 18.816L6.346 32.058a.911.911 0 0 1-1.283-.078.9.9 0 0 1 .08-1.275l15.661-13.771a.912.912 0 0 1 1.203 0L37.67 30.705a.9.9 0 0 1 .08 1.275.911.911 0 0 1-1.282.078L21.406 18.816z"/>
            </g>
        </g>
        <path fill="#7D8D9A" d="M56.062 42.132c.233 0 .428.078.585.234a.741.741 0 0 1 .235.541.708.708 0 0 1-.235.549.837.837 0 0 1-.585.213h-4.503a.796.796 0 0 1-.585-.233.787.787 0 0 1-.235-.582v-7.727c0-.232.079-.425.235-.581a.796.796 0 0 1 .585-.234h4.503c.233 0 .428.073.585.22a.744.744 0 0 1 .235.568.697.697 0 0 1-.229.542.846.846 0 0 1-.591.207h-3.643v2.273h3.038c.233 0 .428.073.585.22a.744.744 0 0 1 .235.568.697.697 0 0 1-.229.542.846.846 0 0 1-.591.207h-3.038v2.473h3.643zm14.296-7.82c.215 0 .39.071.525.214a.75.75 0 0 1 .201.534v7.794a.787.787 0 0 1-.235.582.796.796 0 0 1-.585.233c-.125 0-.248-.02-.37-.06a.523.523 0 0 1-.261-.167l-4.933-6.23v5.709c0 .214-.07.392-.209.535a.726.726 0 0 1-.544.213.688.688 0 0 1-.524-.213.75.75 0 0 1-.202-.535v-7.794c0-.232.079-.425.236-.581a.796.796 0 0 1 .584-.234c.135 0 .267.026.397.08.13.053.226.125.289.214l4.892 6.203V35.06c0-.214.07-.392.209-.534a.71.71 0 0 1 .53-.214zm12.859 7.82c.233 0 .428.078.585.234a.741.741 0 0 1 .235.541.708.708 0 0 1-.235.549.837.837 0 0 1-.585.213h-4.503a.796.796 0 0 1-.585-.233.787.787 0 0 1-.235-.582v-7.727c0-.232.079-.425.235-.581a.796.796 0 0 1 .585-.234h4.503c.233 0 .428.073.585.22a.744.744 0 0 1 .235.568.697.697 0 0 1-.229.542.846.846 0 0 1-.591.207h-3.643v2.273h3.038c.233 0 .428.073.585.22a.744.744 0 0 1 .235.568.697.697 0 0 1-.229.542.846.846 0 0 1-.591.207h-3.038v2.473h3.643zm14.538.227a.79.79 0 0 1 .276.281.688.688 0 0 1-.06.802c-.135.16-.341.24-.619.24-.215 0-.412-.048-.591-.146-.645-.366-.968-1.11-.968-2.233 0-.32-.105-.575-.316-.762-.21-.187-.513-.28-.907-.28h-2.514v2.593c0 .24-.065.437-.194.588a.648.648 0 0 1-.518.227c-.26 0-.486-.078-.679-.233a.72.72 0 0 1-.289-.582v-7.727c0-.232.079-.425.236-.581a.796.796 0 0 1 .584-.234h3.871c.466 0 .905.124 1.317.374.413.25.742.593.988 1.03.247.436.37.926.37 1.47 0 .446-.121.88-.363 1.303-.242.424-.556.76-.94 1.01.564.392.873.918.927 1.577.026.143.04.28.04.414.036.277.072.475.107.595.036.12.117.212.242.274zM95 38.884c.161 0 .318-.076.47-.228.153-.151.278-.354.377-.608.098-.254.148-.528.148-.822 0-.25-.05-.479-.148-.688a1.411 1.411 0 0 0-.377-.502.737.737 0 0 0-.47-.187h-2.944v3.035H95zm16.205-.268c.233 0 .426.078.578.234a.8.8 0 0 1 .229.582v2.834c0 .312-.14.552-.417.722a5.384 5.384 0 0 1-2.89.815 4.854 4.854 0 0 1-2.46-.648 4.87 4.87 0 0 1-1.787-1.751 4.62 4.62 0 0 1-.659-2.413c0-.874.22-1.678.659-2.413a4.87 4.87 0 0 1 1.788-1.752 4.854 4.854 0 0 1 2.46-.648c.886 0 1.657.178 2.311.535a.738.738 0 0 1 .302.28c.068.116.101.241.101.375a.843.843 0 0 1-.222.581.703.703 0 0 1-.544.248c-.134 0-.282-.036-.443-.107a3.822 3.822 0 0 0-1.506-.308c-.573 0-1.102.145-1.586.435-.484.29-.867.68-1.149 1.17a3.159 3.159 0 0 0-.423 1.604c0 .579.14 1.114.423 1.604.282.49.665.88 1.15 1.17.483.29 1.012.434 1.585.434.251 0 .52-.022.807-.067.286-.044.537-.102.752-.174V40.22h-1.263a.808.808 0 0 1-.585-.227.765.765 0 0 1-.235-.575c0-.231.078-.423.235-.574a.808.808 0 0 1 .585-.228h2.204zm13.692-3.516a.89.89 0 0 1-.148.495l-2.809 3.997v3.262a.8.8 0 0 1-.229.582.742.742 0 0 1-.55.233.78.78 0 0 1-.572-.233.787.787 0 0 1-.235-.582v-3.449l-2.796-3.69c-.161-.213-.242-.423-.242-.628 0-.232.092-.425.276-.581a.89.89 0 0 1 .585-.234c.25 0 .47.124.658.374l2.366 3.248 2.217-3.221c.189-.268.413-.401.673-.401.215 0 .403.08.564.24.161.16.242.357.242.588zm15.793 8.703c-.645 0-1.219-.08-1.72-.24a3.988 3.988 0 0 1-1.412-.816c-.242-.214-.363-.45-.363-.708 0-.205.077-.386.229-.542a.742.742 0 0 1 .55-.234c.171 0 .323.054.458.16a3.96 3.96 0 0 0 1.048.642c.34.134.744.2 1.21.2.502 0 .934-.11 1.297-.333.363-.223.544-.5.544-.83 0-.4-.179-.714-.537-.942-.359-.227-.928-.398-1.707-.514-1.963-.286-2.944-1.195-2.944-2.727 0-.562.148-1.05.444-1.464.295-.415.699-.731 1.21-.95a4.3 4.3 0 0 1 1.706-.327c.565 0 1.096.085 1.593.254.497.17.912.392 1.243.668.26.205.39.442.39.709a.752.752 0 0 1-.228.541.727.727 0 0 1-.538.234.592.592 0 0 1-.363-.12c-.233-.187-.558-.359-.974-.515-.417-.156-.791-.234-1.123-.234-.564 0-1 .105-1.31.315-.31.209-.464.483-.464.822 0 .383.16.673.477.869.318.196.818.356 1.499.48.77.135 1.387.306 1.848.516.462.209.809.494 1.042.855.233.361.35.84.35 1.437 0 .562-.16 1.054-.478 1.477a3.066 3.066 0 0 1-1.27.976 4.276 4.276 0 0 1-1.707.341zm18.45-4.812c0 .882-.197 1.69-.592 2.426a4.514 4.514 0 0 1-1.633 1.744c-.694.428-1.476.642-2.345.642-.87 0-1.651-.214-2.346-.642a4.465 4.465 0 0 1-1.626-1.744 5.099 5.099 0 0 1-.585-2.426c0-.883.195-1.691.585-2.427a4.465 4.465 0 0 1 1.626-1.744c.695-.428 1.477-.642 2.346-.642.87 0 1.65.214 2.345.642a4.514 4.514 0 0 1 1.633 1.744c.395.736.592 1.544.592 2.427zm-1.748 0c0-.598-.12-1.139-.362-1.625a2.918 2.918 0 0 0-1.008-1.156 2.568 2.568 0 0 0-1.452-.428c-.547 0-1.033.14-1.458.421-.426.281-.758.667-.995 1.157a3.691 3.691 0 0 0-.356 1.63c0 .598.118 1.141.356 1.632.237.49.569.875.995 1.156.425.28.911.421 1.458.421.538 0 1.021-.143 1.452-.428.43-.285.766-.67 1.008-1.156a3.592 3.592 0 0 0 .362-1.624zm13.276 3.114c.233 0 .427.074.584.221a.744.744 0 0 1 .235.568.728.728 0 0 1-.235.555.822.822 0 0 1-.584.22h-4.369a.796.796 0 0 1-.584-.233.787.787 0 0 1-.236-.582v-7.727c0-.232.081-.425.242-.581a.853.853 0 0 1 .619-.234c.224 0 .416.078.578.234.16.156.241.35.241.581v6.978h3.509zm13.57-7.807c.233 0 .421.076.565.228a.82.82 0 0 1 .215.588v4.84c0 .739-.157 1.394-.47 1.964a3.384 3.384 0 0 1-1.318 1.337c-.564.32-1.21.481-1.935.481-.726 0-1.373-.16-1.942-.48a3.372 3.372 0 0 1-1.324-1.338c-.314-.57-.47-1.225-.47-1.965v-4.84c0-.23.08-.425.241-.58a.853.853 0 0 1 .618-.235c.216 0 .404.078.565.234.161.156.242.35.242.582v4.84c0 .427.094.808.282 1.142.188.334.441.59.76.769.318.178.66.267 1.028.267.385 0 .746-.089 1.082-.267a2.05 2.05 0 0 0 .806-.769c.202-.334.303-.715.303-1.143v-4.84c0-.24.067-.436.201-.587.135-.152.318-.228.551-.228zm13.773.014a.83.83 0 0 1 .591.214c.152.142.229.33.229.561a.712.712 0 0 1-.229.555.846.846 0 0 1-.591.207h-2.11v7.005a.757.757 0 0 1-.256.582.9.9 0 0 1-.632.233.853.853 0 0 1-.618-.233.776.776 0 0 1-.242-.582v-7.005h-2.11a.83.83 0 0 1-.591-.214.733.733 0 0 1-.229-.561c0-.223.079-.406.235-.548a.837.837 0 0 1 .585-.214h5.968zm8.705 8.542a.757.757 0 0 1-.255.582.849.849 0 0 1-.592.233.813.813 0 0 1-.598-.233.787.787 0 0 1-.235-.582v-7.727c0-.232.08-.425.242-.581a.853.853 0 0 1 .618-.234c.224 0 .417.078.578.234.161.156.242.35.242.581v7.727zm15.466-3.863c0 .882-.197 1.69-.591 2.426a4.514 4.514 0 0 1-1.634 1.744c-.694.428-1.476.642-2.345.642-.87 0-1.651-.214-2.345-.642a4.465 4.465 0 0 1-1.627-1.744 5.099 5.099 0 0 1-.584-2.426c0-.883.194-1.691.584-2.427a4.465 4.465 0 0 1 1.627-1.744c.694-.428 1.476-.642 2.345-.642.87 0 1.651.214 2.345.642a4.514 4.514 0 0 1 1.634 1.744c.394.736.59 1.544.59 2.427zm-1.747 0c0-.598-.121-1.139-.363-1.625a2.918 2.918 0 0 0-1.008-1.156 2.568 2.568 0 0 0-1.452-.428c-.547 0-1.033.14-1.458.421-.426.281-.757.667-.995 1.157a3.691 3.691 0 0 0-.356 1.63c0 .598.119 1.141.356 1.632.238.49.569.875.995 1.156.425.28.911.421 1.458.421.538 0 1.022-.143 1.452-.428.43-.285.766-.67 1.008-1.156a3.592 3.592 0 0 0 .363-1.624zm15.224-4.68c.215 0 .39.072.524.215a.75.75 0 0 1 .201.534v7.794a.787.787 0 0 1-.235.582.796.796 0 0 1-.584.233c-.126 0-.25-.02-.37-.06a.523.523 0 0 1-.262-.167L230 37.212v5.709c0 .214-.07.392-.208.535a.726.726 0 0 1-.545.213.688.688 0 0 1-.524-.213.75.75 0 0 1-.201-.535v-7.794c0-.232.078-.425.235-.581a.796.796 0 0 1 .584-.234c.135 0 .267.026.397.08.13.053.226.125.289.214l4.892 6.203V35.06c0-.214.07-.392.209-.534a.71.71 0 0 1 .53-.214zm10.56 9.492c-.646 0-1.219-.08-1.72-.24a3.988 3.988 0 0 1-1.412-.816c-.242-.214-.363-.45-.363-.708 0-.205.076-.386.229-.542a.742.742 0 0 1 .55-.234c.17 0 .323.054.458.16a3.96 3.96 0 0 0 1.048.642c.34.134.744.2 1.21.2.501 0 .934-.11 1.297-.333.363-.223.544-.5.544-.83 0-.4-.18-.714-.538-.942-.358-.227-.927-.398-1.707-.514-1.962-.286-2.943-1.195-2.943-2.727 0-.562.148-1.05.443-1.464.296-.415.7-.731 1.21-.95a4.3 4.3 0 0 1 1.707-.327c.565 0 1.096.085 1.593.254.497.17.912.392 1.243.668.26.205.39.442.39.709a.752.752 0 0 1-.229.541.727.727 0 0 1-.537.234.592.592 0 0 1-.363-.12c-.233-.187-.558-.359-.975-.515-.416-.156-.79-.234-1.122-.234-.564 0-1.001.105-1.31.315-.31.209-.464.483-.464.822 0 .383.159.673.477.869.318.196.818.356 1.499.48.77.135 1.386.306 1.848.516.461.209.808.494 1.041.855.233.361.35.84.35 1.437 0 .562-.16 1.054-.477 1.477a3.066 3.066 0 0 1-1.27.976 4.276 4.276 0 0 1-1.707.341z"/>
    </g>
</svg>
