<svg xmlns="http://www.w3.org/2000/svg" width="84" height="107" viewBox="0 0 84 107">
    <g fill="none" fill-rule="evenodd" stroke="#FF6900" stroke-linecap="round" stroke-linejoin="round" stroke-width="4">
        <path d="M30.889 91.436H53.11M30.889 100.325H53.11M42 100.325v4.444M30.889 80.316c0 1.227.995 2.222 2.222 2.222H50.89a2.222 2.222 0 0 0 2.222-2.222v-3.73C69.825 72.405 81.663 57.542 82 40.317c-.632-21.47-18.53-38.373-40-37.778C20.53 1.943 2.632 18.846 2 40.316c.337 17.225 12.175 32.088 28.889 36.27v3.73z"/>
        <path d="M48.667 29.205H41.11a5.778 5.778 0 0 0-3.213 10.609l8.178 5.448a5.778 5.778 0 0 1-3.187 10.61h-7.556M44.222 29.214v-4.445M39.778 60.325V55.88"/>
    </g>
</svg>
