<svg xmlns="http://www.w3.org/2000/svg" width="180" height="135" viewBox="0 0 180 135">
    <g fill="#FFF" fill-rule="evenodd">
        <path fill-opacity=".7" d="M6.82 126.825c.12.119.18.273.18.462v6.07a.61.61 0 0 1-.19.457.67.67 0 0 1-.485.184.63.63 0 0 1-.453-.184.61.61 0 0 1-.19-.457v-2.447H2.318v2.447a.596.596 0 0 1-.2.457.666.666 0 0 1-.464.184.637.637 0 0 1-.47-.184.619.619 0 0 1-.184-.457v-6.07a.61.61 0 0 1 .19-.457.668.668 0 0 1 .485-.184c.175 0 .327.061.453.184a.61.61 0 0 1 .19.457v2.415h3.364v-2.415c0-.183.067-.335.2-.457a.664.664 0 0 1 .464-.184c.197 0 .355.06.475.179M17.488 132.974a.593.593 0 0 1 .179.425c0 .175-.06.319-.179.43a.623.623 0 0 1-.444.169h-3.421a.595.595 0 0 1-.445-.184.629.629 0 0 1-.178-.457v-6.07c0-.183.06-.335.178-.457a.593.593 0 0 1 .445-.184h3.421c.177 0 .325.058.444.173a.596.596 0 0 1 .179.446.557.557 0 0 1-.174.426.63.63 0 0 1-.449.162h-2.767v1.786h2.307c.177 0 .326.057.445.173a.594.594 0 0 1 .179.447.556.556 0 0 1-.174.425.63.63 0 0 1-.45.163h-2.307v1.943h2.767c.177 0 .325.06.444.184M25.23 131.127h2.153l-1.087-2.425-1.067 2.425zm4.437 2.26c0 .179-.062.325-.183.44a.598.598 0 0 1-.77.057.742.742 0 0 1-.243-.311l-.56-1.254h-3.21l-.56 1.264a.641.641 0 0 1-.231.305.581.581 0 0 1-.34.11c-.186 0-.328-.049-.425-.146a.532.532 0 0 1-.145-.393c0-.063.01-.128.032-.197l2.682-6.198a.69.69 0 0 1 .259-.321.584.584 0 0 1 .387-.094.649.649 0 0 1 .603.415l2.65 6.073c.036.09.054.173.054.25zM40.153 126.814c.12.112.18.259.18.441s-.06.328-.18.436a.669.669 0 0 1-.466.162h-1.665v5.504a.593.593 0 0 1-.201.457.71.71 0 0 1-.498.184.673.673 0 0 1-.488-.184.608.608 0 0 1-.19-.457v-5.504H34.98a.655.655 0 0 1-.466-.168.573.573 0 0 1-.18-.44c0-.175.061-.319.185-.431a.662.662 0 0 1 .461-.168h4.707c.19 0 .346.056.466.168M47.464 133.814a.677.677 0 0 1-.47.184.647.647 0 0 1-.474-.184.616.616 0 0 1-.187-.457v-6.07c0-.182.064-.335.192-.457a.68.68 0 0 1 .491-.184.64.64 0 0 1 .459.184.607.607 0 0 1 .192.456v6.07a.593.593 0 0 1-.203.458M59.513 126.814a.6.6 0 0 1 .154.42v6.123c0 .183-.06.335-.18.457a.596.596 0 0 1-.446.184.865.865 0 0 1-.282-.048.4.4 0 0 1-.2-.13l-3.764-4.895v4.484a.586.586 0 0 1-.16.42.544.544 0 0 1-.414.169.516.516 0 0 1-.4-.169.597.597 0 0 1-.154-.42v-6.123c0-.181.06-.334.179-.456a.6.6 0 0 1 .446-.184c.103 0 .204.021.303.063a.485.485 0 0 1 .22.168l3.734 4.873v-4.516a.59.59 0 0 1 .158-.42.534.534 0 0 1 .406-.168c.164 0 .297.056.4.168M72.148 130.54c.124.129.185.29.185.484v2.36a.67.67 0 0 1-.338.602 4.285 4.285 0 0 1-2.346.68 3.86 3.86 0 0 1-1.997-.54 4.003 4.003 0 0 1-1.45-1.46 3.924 3.924 0 0 1-.535-2.01c0-.728.178-1.398.534-2.01.357-.613.84-1.1 1.451-1.46a3.865 3.865 0 0 1 1.997-.54c.72 0 1.346.149 1.877.446a.611.611 0 0 1 .327.545c0 .186-.06.348-.18.485a.566.566 0 0 1-.442.206c-.109 0-.229-.03-.36-.09a3.032 3.032 0 0 0-1.222-.255c-.466 0-.894.12-1.287.362a2.643 2.643 0 0 0-.933.974c-.23.409-.344.854-.344 1.337s.114.928.344 1.337c.23.408.54.733.933.974.393.242.821.362 1.287.362.204 0 .422-.018.655-.055.233-.038.436-.086.61-.145v-1.448H69.89a.647.647 0 0 1-.665-.669.647.647 0 0 1 .665-.668h1.79c.189 0 .345.065.469.195M89.765 132.828a20.78 20.78 0 0 1-1.693-1.849l-.183-.234c-.367.119-.622.282-.765.49-.142.208-.214.472-.214.791 0 .378.128.704.382.974.256.272.655.407 1.198.407.483 0 .908-.193 1.275-.58zm2.446.735l.061.133c.04.09.061.194.061.312a.66.66 0 0 1-.132.38.424.424 0 0 1-.367.188.498.498 0 0 1-.347-.11l-.56-.524-.327-.312c-.632.69-1.43 1.036-2.395 1.036-.469 0-.899-.113-1.29-.34a2.492 2.492 0 0 1-.917-.903 2.318 2.318 0 0 1-.331-1.196c0-1.1.5-1.89 1.498-2.373a2.809 2.809 0 0 1-.295-.557 1.572 1.572 0 0 1-.102-.568c0-.371.091-.714.275-1.03.183-.315.443-.57.78-.763.336-.193.725-.29 1.167-.29.469 0 .892.088 1.269.262.377.175.63.4.76.674.06.133.091.278.091.434 0 .149-.05.273-.147.373a.514.514 0 0 1-.383.151.444.444 0 0 1-.398-.201 1.25 1.25 0 0 0-.504-.445 1.628 1.628 0 0 0-.688-.134c-.293 0-.522.086-.688.256a.888.888 0 0 0-.25.646c0 .238.083.477.25.719.166.241.395.517.688.83l.285.311c.218.26.602.676 1.152 1.247.136-.334.231-.701.286-1.102a.41.41 0 0 1 .132-.284c.075-.063.194-.094.357-.094.156 0 .285.065.387.194.102.13.153.288.153.474l-.01.11a5.193 5.193 0 0 1-.459 1.56c.272.26.537.524.795.791l.143.145zM110.99 127.571a.676.676 0 0 1-.162.422.54.54 0 0 1-.442.216.81.81 0 0 1-.366-.093 2.758 2.758 0 0 0-1.142-.237c-.503 0-.941.102-1.314.304-.374.202-.661.487-.862.853-.2.367-.302.787-.302 1.26 0 .809.228 1.422.685 1.84.455.418 1.053.627 1.793.627.438 0 .819-.078 1.142-.236a.897.897 0 0 1 .344-.082c.187 0 .345.075.474.226.108.13.162.271.162.422a.542.542 0 0 1-.334.504 4.106 4.106 0 0 1-1.788.4c-.704 0-1.35-.142-1.939-.426a3.38 3.38 0 0 1-1.411-1.26c-.352-.555-.528-1.227-.528-2.015 0-.7.167-1.326.5-1.881a3.486 3.486 0 0 1 1.385-1.301c.589-.312 1.253-.468 1.993-.468.639 0 1.232.134 1.777.4a.55.55 0 0 1 .334.525M121.971 129.302a2.41 2.41 0 0 0-.81-.963 2.014 2.014 0 0 0-1.166-.357c-.44 0-.83.118-1.172.351a2.335 2.335 0 0 0-.8.964 3.17 3.17 0 0 0-.286 1.359c0 .497.096.95.287 1.359.19.408.457.73.799.963.342.234.733.35 1.172.35.432 0 .82-.118 1.166-.355.346-.238.616-.56.81-.964.194-.404.292-.856.292-1.353s-.098-.949-.292-1.354m1.22 3.375a3.716 3.716 0 0 1-1.312 1.454 3.428 3.428 0 0 1-1.884.535 3.426 3.426 0 0 1-1.885-.535 3.672 3.672 0 0 1-1.307-1.454 4.376 4.376 0 0 1-.47-2.021c0-.736.157-1.41.47-2.022a3.664 3.664 0 0 1 1.307-1.453 3.426 3.426 0 0 1 1.885-.535c.698 0 1.326.178 1.884.535.558.356.995.84 1.312 1.453.317.613.476 1.286.476 2.022 0 .735-.159 1.409-.476 2.021M134.638 129.302a2.41 2.41 0 0 0-.81-.963 2.014 2.014 0 0 0-1.167-.357c-.439 0-.83.118-1.171.351a2.335 2.335 0 0 0-.8.964 3.17 3.17 0 0 0-.286 1.359c0 .497.095.95.286 1.359.191.408.457.73.8.963.342.234.732.35 1.171.35.432 0 .821-.118 1.167-.355.345-.238.615-.56.81-.964.194-.404.291-.856.291-1.353s-.097-.949-.291-1.354m1.22 3.375a3.716 3.716 0 0 1-1.312 1.454 3.428 3.428 0 0 1-1.885.535 3.426 3.426 0 0 1-1.884-.535 3.672 3.672 0 0 1-1.307-1.454 4.376 4.376 0 0 1-.47-2.021c0-.736.157-1.41.47-2.022a3.664 3.664 0 0 1 1.307-1.453 3.426 3.426 0 0 1 1.884-.535c.699 0 1.327.178 1.885.535.558.356.995.84 1.312 1.453.317.613.475 1.286.475 2.022 0 .735-.158 1.409-.475 2.021M146.818 132.942a.588.588 0 0 1 .182.446c0 .175-.06.32-.182.436a.635.635 0 0 1-.454.174h-3.394a.613.613 0 0 1-.454-.184.62.62 0 0 1-.183-.458v-6.07c0-.182.063-.334.188-.456a.658.658 0 0 1 .48-.184.62.62 0 0 1 .45.184.615.615 0 0 1 .187.456v5.482h2.726c.18 0 .331.058.454.174M154.13 133.814a.677.677 0 0 1-.469.184.647.647 0 0 1-.475-.184.616.616 0 0 1-.186-.457v-6.07c0-.182.064-.335.192-.457a.68.68 0 0 1 .49-.184.64.64 0 0 1 .46.184.607.607 0 0 1 .191.456v6.07a.593.593 0 0 1-.202.458M166.846 126.814a.6.6 0 0 1 .154.42v6.123c0 .183-.06.335-.18.457a.596.596 0 0 1-.446.184.865.865 0 0 1-.281-.048.4.4 0 0 1-.2-.13l-3.765-4.895v4.484a.586.586 0 0 1-.159.42.544.544 0 0 1-.415.169.516.516 0 0 1-.4-.169.597.597 0 0 1-.154-.42v-6.123c0-.181.06-.334.18-.456a.6.6 0 0 1 .446-.184c.102 0 .203.021.302.063a.485.485 0 0 1 .22.168l3.734 4.873v-4.516a.59.59 0 0 1 .159-.42.534.534 0 0 1 .405-.168c.164 0 .298.056.4.168M179.481 130.54c.124.129.186.29.186.484v2.36a.67.67 0 0 1-.339.602 4.285 4.285 0 0 1-2.345.68 3.86 3.86 0 0 1-1.997-.54 4.003 4.003 0 0 1-1.451-1.46 3.924 3.924 0 0 1-.535-2.01c0-.728.178-1.398.535-2.01.356-.613.84-1.1 1.45-1.46a3.865 3.865 0 0 1 1.998-.54c.72 0 1.345.149 1.876.446a.611.611 0 0 1 .328.545c0 .186-.06.348-.18.485a.566.566 0 0 1-.442.206c-.11 0-.23-.03-.36-.09a3.032 3.032 0 0 0-1.222-.255c-.466 0-.895.12-1.288.362a2.643 2.643 0 0 0-.933.974c-.23.409-.344.854-.344 1.337s.115.928.344 1.337c.23.408.54.733.933.974.393.242.822.362 1.288.362.203 0 .421-.018.654-.055.233-.038.437-.086.611-.145v-1.448h-1.025a.647.647 0 0 1-.666-.669.647.647 0 0 1 .666-.668h1.789c.19 0 .345.065.47.195"/>
        <path d="M128.21 98.427c-.645 1.555-1.251 3.02-1.862 4.484-1.956 4.696-3.911 9.392-5.875 14.085-.52 1.246-1.447 1.805-2.563 1.583-1.172-.234-1.805-1.273-1.501-2.52.195-.8.576-1.533.885-2.29 2.913-7.146 5.835-14.288 8.757-21.43.707-1.728 2.33-2.285 3.722-1.29.432.308.686.743.884 1.223l5.79 14.067c1.202 2.92 2.407 5.84 3.612 8.758.474 1.147.331 2.174-.41 2.895-1.082 1.052-2.707.768-3.426-.659-.505-1.004-.906-2.061-1.35-3.096-.222-.518-.458-1.031-.645-1.562-.122-.347-.307-.456-.667-.454-2.643.016-5.758.01-8.4.008-.556 0-.56-.003-.345-.509.508-1.193 1.037-2.378 1.515-3.584.156-.392.365-.491.754-.485 1.362.023 3.2.006 4.563.011.29.002.46-.028.303-.399-1.237-2.905-2.464-5.814-3.741-8.836M85.474 113.693V92.165c0-.204-.005-.408.01-.612.044-.571.52-.995 1.101-.99.576.006 1.015.398 1.071.964.015.152.01.305.01.458v24.4c0 .086.002.17 0 .256-.014.688-.269 1.072-.833 1.255-.534.173-1.104-.028-1.486-.535-1.565-2.084-3.128-4.17-4.692-6.255L68.82 95.325c-.06-.08-.129-.154-.29-.345v.64c0 6.997-.002 13.993.002 20.989 0 .402-.02.777-.368 1.06-.349.284-.725.372-1.148.203-.421-.169-.648-.483-.674-.935-.005-.102-.004-.204-.004-.305 0-8.219.003-16.438-.005-24.656 0-.544.083-1.02.624-1.29.561-.28 1.153-.103 1.607.499 1.12 1.48 2.228 2.97 3.34 4.456l13.272 17.706c.068.09.147.171.298.346M9.924 118.624c-3.644.07-6.64-1.406-9.17-3.991-.564-.576-.557-1.286-.004-1.828.514-.507 1.16-.498 1.702.097 1.552 1.697 3.407 2.827 5.667 3.2 2.013.334 3.976.22 5.845-.73 3.335-1.694 3.372-5.975.48-7.959-1.41-.967-2.995-1.515-4.584-2.057-1.653-.563-3.327-1.068-4.849-1.964-2.547-1.501-3.787-3.731-3.555-6.745.21-2.736 1.69-4.636 4.078-5.67 3.997-1.728 7.892-1.426 11.531 1.105.576.4 1.05.93 1.415 1.545.344.581.228 1.124-.309 1.546-.49.385-1.076.354-1.503-.122-2.433-2.708-6.582-3.423-9.794-2.132-2.461.988-3.549 3.224-2.79 5.713.284.934.883 1.619 1.67 2.148 1.6 1.077 3.386 1.719 5.199 2.295 1.568.5 3.137 1.003 4.561 1.86 2.687 1.613 3.717 3.976 3.443 6.966-.31 3.406-2.52 5.193-5.483 6.214-1.147.395-2.345.519-3.55.509M55.668 104.27V92.04c.001-.812.261-1.22.887-1.412.838-.258 1.641.207 1.76 1.028.026.184.017.373.017.56l.001 24.049c0 .272.004.543-.087.806-.206.59-.761.936-1.419.881-.645-.054-1.065-.45-1.145-1.098-.023-.185-.013-.373-.013-.56V104.27M111.85 115.64c-.15-.014-.305-.007-.457-.007-4.015 0-8.031-.006-12.046.01-.424.002-.574-.074-.573-.546.008-3.361 0-6.722 0-10.083l10.271-.007c.751-.005 1.234-.459 1.234-1.127 0-.68-.47-1.185-1.189-1.188l-10.315-.01c-.001-3.096.007-6.191 0-9.287 0-.441.136-.523.543-.521 4.032.015 8.065.01 12.097.009.186 0 .375.01.559-.012.75-.094 1.18-.762.962-1.481-.173-.572-.588-.832-1.35-.832H97.813c-1.113 0-1.477.371-1.477 1.506-.002 4.058-.001 8.117-.001 12.175 0 4.127-.002 8.253.001 12.38 0 .868.398 1.331 1.18 1.333 4.761.008 9.522.008 14.283.001.716 0 1.196-.467 1.202-1.112.006-.624-.488-1.144-1.15-1.202M29 91.983c-.001-.767-.393-1.266-1.072-1.396-.937-.178-1.594.44-1.594 1.513-.001 8.1-.001 16.2.001 24.3 0 .202.013.408.052.607.111.57.555.923 1.168.95.866.037 1.444-.551 1.445-1.494v-24.48zM48.32 91.729c-.078-.712-.575-1.157-1.292-1.172-.702-.014-1.297.474-1.386 1.153a5.87 5.87 0 0 0-.04.754c-.003 3.513-.007 5.363.004 8.877 0 .367-.053.546-.508.545-4.627-.012-9.779-.009-14.406-.003a.353.353 0 0 0-.359.348v1.655c0 .234.196.423.437.424 4.551.011 9.628.013 14.18-.007.568-.002.663.179.66.675-.02 3.712-.011 7.423-.009 11.135 0 .225.004.453.033.677.092.704.761 1.239 1.492 1.16.741-.08 1.204-.672 1.204-1.562.002-4.324.002-8.648.002-12.972V92.269c0-.18.008-.362-.011-.54M148 117.958c-1.289 0-2.333-1.09-2.333-2.433V92.99c0-1.344 1.044-2.433 2.333-2.433 1.289 0 2.333 1.089 2.333 2.433v22.535c0 1.343-1.044 2.433-2.333 2.433M156.334 93.314c-.034-1.901 1.26-2.777 2.775-2.757 3.546.048 7.094.057 10.64.005 4.249-.062 7.506 3.242 8.021 7.04.442 3.265-.787 5.82-3.307 7.844-.196.157-.476.255-.092.538 1.673 1.234 2.345 2.968 2.482 4.97.04.59.135 1.176.21 1.764a1.9 1.9 0 0 0 .805 1.355c.634.463 1.136 1.023 1.132 1.884-.006 1.058-.746 1.867-1.808 1.977-1.542.159-2.718-.472-3.628-1.658-.855-1.115-1.18-2.425-1.319-3.79-.054-.538-.069-1.082-.09-1.623-.059-1.497-.98-2.544-2.47-2.796a7.314 7.314 0 0 0-1.272-.106c-1.45.008-3.378-.007-4.828.01-.328.003-.44-.082-.433-.42a74.177 74.177 0 0 0 0-3.205c-.009-.353.119-.424.439-.422 1.79.012 4.062-.023 5.85.018.889.02 1.531-.32 2.071-.982 1.354-1.66 1.642-4.425.624-6.228-.624-1.105-1.514-1.71-2.856-1.684-2.489.047-4.979.027-7.468.002-.466-.004-.558.138-.557.573.013 6.494.01 12.987.008 19.48 0 .254-.003.51-.037.761-.232 1.744-1.595 2.52-3.236 1.849-1.144-.468-1.636-1.193-1.636-2.427-.002-3.695 0-7.392 0-11.088 0-3.628.045-7.257-.02-10.884M88.333 23.716a.831.831 0 0 0-.538-.778l-24.299-9.12a1.855 1.855 0 0 0-2.21.74c-.187.285-.286.65-.286 1.055v6.456c.01 9.94 7.79 18 17.715 18.348l.482.016h8.187c.52 0 .941-.421.941-.942v-1.814a.942.942 0 0 0-.941-.942h-8.028c-8.077-.004-14.653-6.584-14.66-14.668v-3.401a.31.31 0 0 1 .417-.29l22.376 8.399a.625.625 0 0 0 .844-.586v-2.473zM99.508 54.574l24.33 9.131a1.852 1.852 0 0 0 2.21-.738c.187-.285.285-.65.285-1.055v-6.243c0-10.017-7.934-18.231-17.936-18.57l-.26-.007h-8.356a.76.76 0 0 0-.76.76v2.179c0 .419.34.759.76.759h7.985c8.213 0 14.872 6.665 14.872 14.886v3.312a.22.22 0 0 1-.297.206L99.76 50.72a.557.557 0 0 0-.519.064.557.557 0 0 0-.242.464v2.592c0 .327.203.62.508.735"/>
        <path d="M106.252 33.865h2.864c.24 0 .455-.15.54-.375l9.225-24.628c.08-.21.119-.429.119-.653 0-.559-.25-1.087-.688-1.448-.323-.266-.78-.412-1.289-.412H110.6c-10 0-18.1 7.833-18.441 17.833l-.016.477v28.476c0 8.279-6.704 14.99-14.973 14.99h-2.825a.556.556 0 0 1-.522-.753L82.203 45a.492.492 0 0 0-.057-.458.49.49 0 0 0-.408-.214l-2.51.003c-.443 0-.84.276-.995.692L69.12 69.33c-.336.897.053 1.879.924 2.334.228.119.518.18.864.18h6.36c10.02 0 18.236-7.95 18.579-17.975l.011-.336V25.058c0-8.278 6.704-14.99 14.974-14.99h2.825a.556.556 0 0 1 .522.753L105.792 33.2a.492.492 0 0 0 .46.665"/>
        <path fill-opacity=".5" d="M86.901 73.21a21.62 21.62 0 0 1-3.501 1.437c-.534.166-.534.947.004 1.102a36.498 36.498 0 0 0 10.159 1.442c9.714 0 18.57-3.806 25.24-10.03a.634.634 0 0 0-.203-1.046l-2.29-.879a1.147 1.147 0 0 0-1.158.206c-5.864 4.986-13.388 7.994-21.59 7.994-1.816 0-3.597-.155-5.336-.44a2.13 2.13 0 0 0-1.325.215M127.697 45.806a22.373 22.373 0 0 1 1.433 3.575c.165.546.944.545 1.099-.004a38.09 38.09 0 0 0 1.438-10.373c0-9.918-3.796-18.961-10.004-25.771a.625.625 0 0 0-1.045.208l-.877 2.338c-.15.402-.068.851.206 1.182 4.974 5.988 7.974 13.67 7.974 22.043a34.44 34.44 0 0 1-.439 5.45c-.074.463.003.933.215 1.352M100.432 4.314a21.62 21.62 0 0 1 3.501-1.437c.535-.166.534-.946-.004-1.102A36.498 36.498 0 0 0 93.771.335C84.056.334 75.2 4.14 68.53 10.362a.634.634 0 0 0 .203 1.047l2.29.879c.394.151.834.07 1.158-.206 5.864-4.986 13.388-7.994 21.59-7.994 1.816 0 3.597.155 5.337.44a2.13 2.13 0 0 0 1.324-.215M59.637 31.719a22.373 22.373 0 0 1-1.433-3.575c-.166-.546-.945-.545-1.1.003a38.09 38.09 0 0 0-1.437 10.373c0 9.92 3.796 18.962 10.004 25.772a.626.626 0 0 0 1.044-.208l.877-2.338c.15-.402.069-.851-.206-1.182-4.973-5.988-7.974-13.67-7.974-22.044 0-1.855.155-3.673.44-5.449a2.214 2.214 0 0 0-.215-1.352"/>
    </g>
</svg>
