<svg xmlns="http://www.w3.org/2000/svg" width="210" height="44" viewBox="0 0 210 44">
    <g fill="none" fill-rule="evenodd">
        <path fill="#425563" d="M79.542 22.835V2.811c0-.19-.005-.38.009-.568a.993.993 0 0 1 1.014-.921c.529.005.934.37.985.896.014.141.01.284.01.426v22.933c-.014.64-.248.998-.767 1.168-.492.16-1.017-.026-1.368-.499-1.441-1.937-2.88-3.878-4.32-5.817L64.21 5.75c-.055-.074-.119-.142-.268-.32v.596c0 6.507 0 13.014.003 19.521 0 .374-.018.723-.339.986-.322.265-.668.347-1.057.19-.388-.158-.596-.45-.62-.87-.005-.095-.004-.19-.004-.284 0-7.644.002-15.289-.004-22.933 0-.506.076-.95.573-1.2.517-.26 1.063-.096 1.48.463 1.031 1.378 2.05 2.764 3.076 4.146 4.072 5.49 8.144 10.98 12.217 16.468.062.084.136.16.275.322M9.418 27.165c-3.396.063-6.189-1.285-8.546-3.647-.525-.526-.519-1.174-.004-1.67.48-.463 1.08-.454 1.586.088C3.9 23.488 5.63 24.52 7.736 24.861c1.876.304 3.706.2 5.448-.667 3.108-1.548 3.143-5.459.447-7.272-1.315-.884-2.792-1.384-4.273-1.88-1.54-.514-3.1-.975-4.518-1.794-2.375-1.372-3.53-3.408-3.314-6.162.196-2.5 1.576-4.236 3.8-5.18C9.053.326 12.683.603 16.075 2.916c.536.365.98.848 1.318 1.41.32.531.213 1.028-.287 1.413-.456.352-1.004.324-1.402-.111C13.436 3.153 9.57 2.5 6.576 3.679c-2.294.904-3.307 2.946-2.6 5.22.264.854.822 1.48 1.555 1.963 1.492.984 3.156 1.57 4.846 2.097 1.461.456 2.925.916 4.251 1.698 2.504 1.475 3.464 3.634 3.21 6.365-.29 3.112-2.35 4.745-5.111 5.678-1.069.36-2.185.473-3.309.465M51.98 14.075V2.705c.001-.755.227-1.133.773-1.313.73-.24 1.43.193 1.534.956.023.17.015.347.015.52l.001 22.359c0 .252.004.505-.076.75-.18.547-.663.87-1.237.818-.562-.05-.928-.418-.997-1.02-.02-.172-.012-.348-.012-.521v-11.18M104.257 24.646c-.14-.012-.284-.005-.426-.005-3.743 0-7.486-.006-11.229.008-.395.002-.535-.069-.534-.508.007-3.125 0-6.251 0-9.377 1.513-.012 4.517-.003 5.692-.003 1.294 0 2.588.006 3.882-.003.7-.005 1.15-.427 1.15-1.049 0-.633-.438-1.101-1.108-1.104-2.472-.012-6.9-.004-9.615-.01-.001-2.88.006-5.758 0-8.637 0-.41.127-.486.506-.484 3.759.013 7.518.008 11.276.008.174 0 .35.01.521-.012.7-.087 1.1-.708.898-1.377-.162-.531-.55-.773-1.259-.773-4.28-.002-8.56-.002-12.84 0-1.038 0-1.377.344-1.377 1.4v11.324c0 3.837-.002 7.675 0 11.513.001.807.371 1.238 1.1 1.24 4.438.007 8.876.006 13.314 0 .668 0 1.115-.434 1.12-1.034.007-.58-.454-1.063-1.07-1.117M26.723 2.64c-.001-.713-.342-1.177-.933-1.298-.814-.166-1.385.41-1.385 1.407-.001 7.533-.001 15.067.001 22.6 0 .189.01.38.045.565.097.53.482.859 1.015.883.753.035 1.256-.512 1.257-1.389V2.64zM43.778 2.35c-.067-.625-.487-1.015-1.095-1.028a1.15 1.15 0 0 0-1.174 1.01c-.028.22-.035.441-.035.662-.002 3.08-.005 6.16.004 9.24 0 .321-.045.478-.43.477-3.92-.01-8.286-.008-12.206-.002a.304.304 0 0 0-.304.304v1.452c0 .204.165.37.37.37 3.856.011 8.158.012 12.014-.005.481-.002.562.157.56.592-.017 3.253-.01 6.507-.008 9.76 0 .198.004.398.028.594.078.617.645 1.086 1.264 1.018.628-.07 1.02-.59 1.02-1.37.002-3.791.002-7.581.002-11.372V2.822c0-.157.007-.316-.01-.473"/>
        <path fill="#FF6900" d="M116.928 15.305v-3.132a.5.5 0 0 1 .5-.5h9.228V3.409c0-.623.228-1.144.683-1.563.455-.42.982-.63 1.58-.63.672 0 1.21.204 1.618.612.407.407.61.934.61 1.58v20.769c0 .623-.215 1.144-.646 1.563-.431.42-.982.629-1.653.629-.599 0-1.114-.21-1.545-.629-.431-.42-.647-.94-.647-1.563v-8.372h-9.228a.5.5 0 0 1-.5-.5zm-1.734 8.872c0 .623-.228 1.144-.683 1.563-.455.42-.982.629-1.58.629-.647 0-1.18-.21-1.6-.629-.419-.42-.628-.94-.628-1.563V3.409c0-.623.215-1.144.646-1.563.432-.42.982-.63 1.653-.63.6 0 1.114.21 1.545.63.431.419.647.94.647 1.563v20.768zM159.267 14.152c0 2.372-.527 4.545-1.581 6.522-1.054 1.976-2.51 3.539-4.366 4.689-1.856 1.15-3.946 1.724-6.27 1.724-2.323 0-4.413-.574-6.27-1.724-1.856-1.15-3.306-2.713-4.348-4.69-1.042-1.976-1.563-4.15-1.563-6.52 0-2.372.521-4.546 1.563-6.522 1.042-1.977 2.492-3.54 4.348-4.69 1.857-1.15 3.947-1.724 6.27-1.724 2.324 0 4.414.575 6.27 1.725 1.857 1.15 3.312 2.712 4.366 4.689 1.054 1.976 1.58 4.15 1.58 6.521zm-4.671 0c0-1.605-.324-3.06-.97-4.366-.647-1.305-1.545-2.341-2.695-3.108-1.15-.766-2.444-1.15-3.88-1.15-1.462 0-2.762.378-3.9 1.132-1.137.755-2.024 1.791-2.658 3.108-.635 1.318-.953 2.78-.953 4.384 0 1.605.318 3.066.953 4.384.634 1.317 1.52 2.353 2.659 3.108 1.137.754 2.437 1.132 3.898 1.132 1.437 0 2.73-.384 3.88-1.15 1.15-.767 2.049-1.803 2.696-3.108.646-1.306.97-2.76.97-4.366zM186.07 1.217a2.2 2.2 0 0 1 1.563.629c.443.419.664.94.664 1.563v20.804c0 .623-.203 1.144-.61 1.563-.408.42-.947.629-1.617.629-.671 0-1.216-.204-1.635-.611-.42-.407-.63-.934-.63-1.581V9.733l-5.928 9.054c-.24.288-.515.521-.826.7-.312.18-.635.258-.97.234a1.6 1.6 0 0 1-.935-.233 3.064 3.064 0 0 1-.826-.7l-5.929-9.379v14.804c0 .647-.191 1.174-.575 1.58-.383.408-.886.612-1.509.612-.599 0-1.09-.21-1.473-.63-.383-.418-.575-.94-.575-1.562V3.409c0-.6.222-1.114.665-1.545a2.21 2.21 0 0 1 1.599-.647c.36 0 .719.09 1.078.27.36.179.635.413.826.7l7.833 12.037 8.049-12.037c.192-.287.45-.521.772-.7.324-.18.653-.27.989-.27zM207.542 22.237c.622 0 1.143.21 1.563.628.419.42.628.905.628 1.456 0 .599-.21 1.09-.628 1.473-.42.383-.94.575-1.563.575h-12.037c-.623 0-1.144-.21-1.563-.629-.42-.42-.63-.94-.63-1.563V3.409c0-.623.21-1.144.63-1.563.419-.42.94-.63 1.563-.63h12.037c.622 0 1.143.198 1.563.594.419.395.628.904.628 1.527 0 .599-.203 1.084-.61 1.455-.408.371-.935.557-1.581.557h-9.738v6.108h8.12c.623 0 1.144.198 1.564.593.419.395.628.904.628 1.527 0 .6-.203 1.084-.61 1.455-.408.372-.935.557-1.581.557h-8.12v6.648h9.737z"/>
        <path fill="#7D8D9A" d="M7.378 42.168a.83.83 0 0 1 .61.246.78.78 0 0 1 .247.569.745.745 0 0 1-.246.576.871.871 0 0 1-.611.224H2.674a.83.83 0 0 1-.611-.246.83.83 0 0 1-.246-.61V34.81a.83.83 0 0 1 .246-.61.83.83 0 0 1 .61-.247h4.705c.243 0 .447.078.61.232a.784.784 0 0 1 .247.597c0 .234-.08.423-.24.569-.158.145-.364.217-.617.217H3.572v2.388h3.174c.244 0 .447.077.611.231a.784.784 0 0 1 .246.597c0 .234-.08.424-.239.569-.16.145-.365.217-.618.217H3.572v2.598h3.806zm14.937-8.215c.224 0 .407.075.547.225.14.15.211.337.211.562v8.187a.83.83 0 0 1-.246.61.83.83 0 0 1-.61.246c-.132 0-.26-.02-.387-.063a.546.546 0 0 1-.274-.175L16.403 37v5.996a.756.756 0 0 1-.786.786.716.716 0 0 1-.548-.224.79.79 0 0 1-.21-.562V34.81a.83.83 0 0 1 .245-.61.83.83 0 0 1 .61-.247c.141 0 .28.028.415.085a.667.667 0 0 1 .302.224l5.111 6.516V34.74c0-.225.073-.412.218-.562a.739.739 0 0 1 .555-.225zm13.434 8.215a.83.83 0 0 1 .61.246.78.78 0 0 1 .247.569.745.745 0 0 1-.246.576.871.871 0 0 1-.611.224h-4.704a.83.83 0 0 1-.611-.246.83.83 0 0 1-.246-.61V34.81a.83.83 0 0 1 .246-.61.83.83 0 0 1 .61-.247h4.705c.243 0 .447.078.61.232a.784.784 0 0 1 .247.597c0 .234-.08.423-.24.569-.158.145-.364.217-.617.217h-3.806v2.388h3.174c.243 0 .447.077.61.231a.784.784 0 0 1 .247.597c0 .234-.08.424-.24.569-.158.145-.364.217-.617.217h-3.174v2.598h3.806zm15.19.24a.827.827 0 0 1 .287.294.725.725 0 0 1-.063.843c-.14.168-.356.252-.646.252a1.26 1.26 0 0 1-.618-.154c-.674-.384-1.01-1.166-1.01-2.345 0-.337-.11-.604-.33-.8-.22-.197-.537-.296-.949-.296h-2.626v2.725c0 .252-.068.458-.203.618a.675.675 0 0 1-.54.238 1.09 1.09 0 0 1-.71-.246.758.758 0 0 1-.302-.61V34.81a.83.83 0 0 1 .246-.61.83.83 0 0 1 .61-.247h4.045c.487 0 .945.131 1.376.394.43.262.775.622 1.032 1.08.258.46.386.974.386 1.546 0 .468-.126.924-.379 1.369-.253.444-.58.798-.983 1.06.59.412.913.964.97 1.657.027.15.041.295.041.435.038.29.075.499.113.625a.463.463 0 0 0 .252.288zm-2.88-3.652c.17 0 .333-.08.492-.239.16-.159.29-.372.393-.639.103-.267.155-.554.155-.863 0-.262-.052-.504-.155-.724a1.482 1.482 0 0 0-.393-.526.767.767 0 0 0-.491-.197h-3.076v3.188h3.076zm16.932-.28c.243 0 .444.081.603.245.16.164.24.367.24.61v2.978c0 .327-.146.58-.436.758a5.603 5.603 0 0 1-3.02.857 5.05 5.05 0 0 1-2.57-.681 5.101 5.101 0 0 1-1.867-1.84 4.873 4.873 0 0 1-.688-2.535c0-.917.23-1.762.688-2.534a5.101 5.101 0 0 1 1.868-1.84 5.05 5.05 0 0 1 2.57-.681c.926 0 1.731.187 2.415.562.14.075.246.173.316.295.07.121.105.252.105.393a.888.888 0 0 1-.232.61.733.733 0 0 1-.568.26c-.14 0-.295-.037-.464-.112a3.975 3.975 0 0 0-1.572-.323c-.6 0-1.152.152-1.657.456a3.359 3.359 0 0 0-1.201 1.23 3.332 3.332 0 0 0-.442 1.684c0 .609.147 1.17.442 1.685.295.515.695.925 1.2 1.23a3.154 3.154 0 0 0 1.658.456c.262 0 .543-.024.842-.07.3-.047.562-.108.787-.183V40.16h-1.32a.842.842 0 0 1-.611-.239.806.806 0 0 1-.246-.603c0-.244.082-.445.246-.604a.842.842 0 0 1 .61-.239h2.304zm14.304-3.694c0 .187-.051.36-.154.52L76.206 39.5v3.427c0 .243-.08.447-.239.61a.774.774 0 0 1-.576.246.813.813 0 0 1-.596-.246.83.83 0 0 1-.246-.61v-3.623l-2.921-3.876c-.168-.225-.253-.445-.253-.66 0-.244.096-.447.288-.611a.928.928 0 0 1 .611-.246c.262 0 .491.131.688.393l2.472 3.413 2.317-3.384c.196-.281.43-.422.702-.422.224 0 .421.084.59.253a.84.84 0 0 1 .252.618zm16.5 9.142c-.674 0-1.273-.085-1.797-.253a4.16 4.16 0 0 1-1.474-.857c-.253-.224-.38-.472-.38-.744 0-.215.08-.405.24-.569a.774.774 0 0 1 .575-.245c.178 0 .337.056.477.168.375.309.74.534 1.096.674.355.14.777.21 1.263.21.525 0 .976-.116 1.356-.35.379-.234.568-.525.568-.871 0-.421-.187-.751-.561-.99-.375-.239-.97-.419-1.784-.54-2.05-.3-3.075-1.255-3.075-2.865 0-.59.154-1.103.463-1.538.31-.435.73-.768 1.264-.997a4.472 4.472 0 0 1 1.784-.344c.59 0 1.144.089 1.664.267.52.178.952.412 1.299.702.271.215.407.463.407.744 0 .215-.08.405-.239.569a.758.758 0 0 1-.562.246.616.616 0 0 1-.379-.127c-.243-.196-.583-.377-1.018-.54-.435-.164-.826-.246-1.172-.246-.59 0-1.047.11-1.37.33-.323.22-.484.508-.484.863 0 .403.166.707.498.913.333.206.855.375 1.566.506.805.14 1.449.32 1.931.54.482.22.845.52 1.088.9.244.378.365.881.365 1.509 0 .59-.166 1.107-.498 1.551a3.205 3.205 0 0 1-1.327 1.026 4.447 4.447 0 0 1-1.784.358zm19.276-5.056a5.33 5.33 0 0 1-.617 2.549 4.732 4.732 0 0 1-1.707 1.833c-.725.449-1.542.674-2.45.674-.908 0-1.725-.225-2.45-.674a4.68 4.68 0 0 1-1.7-1.833 5.38 5.38 0 0 1-.61-2.549c0-.927.203-1.776.61-2.548a4.68 4.68 0 0 1 1.7-1.833c.725-.45 1.542-.674 2.45-.674.908 0 1.725.225 2.45.674a4.732 4.732 0 0 1 1.707 1.833 5.33 5.33 0 0 1 .617 2.548zm-1.825 0a3.79 3.79 0 0 0-.38-1.706 3.06 3.06 0 0 0-1.052-1.215c-.45-.3-.955-.449-1.517-.449-.571 0-1.079.147-1.524.442-.444.295-.79.7-1.039 1.215a3.895 3.895 0 0 0-.372 1.713c0 .628.124 1.199.372 1.714.248.514.595.92 1.04 1.214.444.295.952.443 1.523.443.562 0 1.067-.15 1.517-.45.449-.3.8-.704 1.053-1.215a3.79 3.79 0 0 0 .379-1.706zm13.87 3.272c.243 0 .446.077.61.232a.784.784 0 0 1 .246.597.767.767 0 0 1-.246.583.856.856 0 0 1-.61.231h-4.565a.83.83 0 0 1-.61-.246.83.83 0 0 1-.246-.61V34.81c0-.243.084-.447.253-.61a.888.888 0 0 1 .646-.247c.234 0 .435.082.603.246a.817.817 0 0 1 .253.611v7.33h3.665zm14.178-8.2c.243 0 .44.079.59.238.15.16.224.365.224.618v5.083c0 .777-.164 1.465-.491 2.065a3.546 3.546 0 0 1-1.376 1.404c-.59.337-1.264.505-2.023.505-.758 0-1.434-.168-2.029-.505a3.533 3.533 0 0 1-1.383-1.404c-.328-.6-.491-1.288-.491-2.065v-5.083c0-.243.084-.447.252-.61a.888.888 0 0 1 .646-.247.82.82 0 0 1 .59.246.817.817 0 0 1 .253.61v5.084c0 .45.098.85.295 1.201.196.351.46.62.793.807.333.188.69.281 1.074.281.403 0 .78-.093 1.13-.28.352-.188.633-.457.843-.808.211-.351.316-.751.316-1.2v-5.084c0-.253.07-.459.211-.618.14-.16.332-.239.576-.239zm14.389.013c.253 0 .459.075.618.225.159.15.238.346.238.59a.75.75 0 0 1-.238.583c-.16.145-.365.217-.618.217h-2.205v7.359a.797.797 0 0 1-.267.61.938.938 0 0 1-.66.246.888.888 0 0 1-.646-.246.817.817 0 0 1-.252-.61v-7.359h-2.205a.865.865 0 0 1-.618-.224.772.772 0 0 1-.239-.59c0-.234.082-.426.246-.576a.871.871 0 0 1 .61-.225h6.236zm9.095 8.974a.797.797 0 0 1-.267.61.884.884 0 0 1-.618.246.847.847 0 0 1-.625-.246.83.83 0 0 1-.245-.61V34.81c0-.243.084-.447.252-.61a.888.888 0 0 1 .646-.247c.234 0 .436.082.604.246a.817.817 0 0 1 .253.611v8.117zm16.158-4.059a5.33 5.33 0 0 1-.618 2.549 4.732 4.732 0 0 1-1.706 1.833c-.725.449-1.542.674-2.45.674-.908 0-1.725-.225-2.45-.674a4.68 4.68 0 0 1-1.7-1.833 5.38 5.38 0 0 1-.61-2.549c0-.927.203-1.776.61-2.548a4.68 4.68 0 0 1 1.7-1.833c.725-.45 1.542-.674 2.45-.674.908 0 1.725.225 2.45.674a4.732 4.732 0 0 1 1.706 1.833 5.33 5.33 0 0 1 .618 2.548zm-1.825 0a3.79 3.79 0 0 0-.38-1.706 3.06 3.06 0 0 0-1.053-1.215c-.449-.3-.954-.449-1.516-.449-.571 0-1.08.147-1.524.442-.445.295-.79.7-1.039 1.215a3.895 3.895 0 0 0-.372 1.713c0 .628.124 1.199.372 1.714.248.514.594.92 1.04 1.214.444.295.952.443 1.523.443.562 0 1.067-.15 1.516-.45.45-.3.8-.704 1.054-1.215a3.79 3.79 0 0 0 .379-1.706zm15.905-4.915c.225 0 .408.075.548.225.14.15.21.337.21.562v8.187a.83.83 0 0 1-.245.61.83.83 0 0 1-.61.246c-.132 0-.26-.02-.387-.063a.546.546 0 0 1-.274-.175L189.104 37v5.996a.756.756 0 0 1-.786.786.716.716 0 0 1-.548-.224.79.79 0 0 1-.21-.562V34.81a.83.83 0 0 1 .246-.61.83.83 0 0 1 .61-.247c.14 0 .279.028.415.085a.667.667 0 0 1 .302.224l5.111 6.516V34.74c0-.225.073-.412.218-.562a.739.739 0 0 1 .554-.225zm11.033 9.97c-.674 0-1.273-.084-1.797-.252a4.16 4.16 0 0 1-1.475-.857c-.252-.224-.379-.472-.379-.744 0-.215.08-.405.239-.569a.774.774 0 0 1 .576-.245c.178 0 .337.056.477.168.375.309.74.534 1.095.674.356.14.778.21 1.264.21.525 0 .976-.116 1.355-.35.38-.234.57-.525.57-.871 0-.421-.188-.751-.563-.99-.374-.239-.968-.419-1.783-.54-2.05-.3-3.075-1.255-3.075-2.865 0-.59.154-1.103.463-1.538.309-.435.73-.768 1.264-.997a4.472 4.472 0 0 1 1.783-.344c.59 0 1.145.089 1.664.267.52.178.953.412 1.3.702.27.215.407.463.407.744 0 .215-.08.405-.24.569a.758.758 0 0 1-.56.246.616.616 0 0 1-.38-.127c-.243-.196-.583-.377-1.018-.54-.435-.164-.826-.246-1.173-.246-.59 0-1.046.11-1.369.33-.323.22-.484.508-.484.863 0 .403.166.707.498.913.333.206.855.375 1.566.506.805.14 1.449.32 1.93.54.483.22.846.52 1.09.9.243.378.364.881.364 1.509 0 .59-.166 1.107-.498 1.551a3.205 3.205 0 0 1-1.327 1.026 4.447 4.447 0 0 1-1.784.358z"/>
    </g>
</svg>
