<svg xmlns="http://www.w3.org/2000/svg" width="104" height="100" viewBox="0 0 104 100">
    <g fill="none" fill-rule="evenodd" stroke="#FF6900" stroke-linejoin="round" stroke-width="4">
        <path stroke-linecap="round" d="M12.638 37.506h31.915M2 54.607h36.17M8.383 71.707h31.915M60.276 10.55h-7.212V2H74.34v8.55h-7.212M67.957 17.435v3.22C87.104 22.785 102 39.08 102 58.882c0 21.25-17.147 38.476-38.298 38.476H29.66M30.524 78.114a38.607 38.607 0 0 0 9.779 11.228M25.462 61.02c.2 3.67.913 7.206 2.068 10.532M28.41 43.919a38.325 38.325 0 0 0-2.771 10.688M59.447 17.435v3.22c-11.543 1.285-21.538 7.715-27.66 16.96"/>
        <path stroke-linecap="round" d="M70.085 58.882c0 3.542-2.857 6.412-6.383 6.412-3.525 0-6.383-2.87-6.383-6.412s2.858-6.413 6.383-6.413c3.526 0 6.383 2.87 6.383 6.413zM67.957 54.607L84.98 37.506M99.872 26.818l-6.383-6.413"/>
        <path d="M89.234 31.093l6.383-6.413"/>
        <path stroke-linecap="round" d="M89.504 43.918A29.898 29.898 0 0 1 93.49 58.88c0 16.527-13.336 29.926-29.787 29.926h-8.51"/>
    </g>
</svg>
