<svg xmlns="http://www.w3.org/2000/svg" width="104" height="100" viewBox="0 0 104 100">
    <g fill="none" fill-rule="evenodd" stroke="#FF6900" stroke-linecap="round" stroke-width="4">
        <path stroke-linejoin="round" d="M60.899 71.461L37.14 86.506 2.586 64.75"/>
        <path d="M67.377 23.717v.5M37.141 43.154v.5"/>
        <path stroke-linejoin="round" d="M60.899 49.656L25.34 25.624l16.004-9.651 9.401 5.899 27.43 17.214v34.552L60.9 84.778z"/>
        <path stroke-linejoin="round" d="M71.052 34.616l12.357-7.813c-1.875-1.186-2.264-2.865 0-4.297l-13.594-8.59c-2.263 1.432-4.917 1.185-6.795 0l-12.43 7.858M34.597 31.881l-13.51 8.542c2.265 1.432 1.897 3.097.022 4.283l13.593 8.593a6.328 6.328 0 0 1 6.775.011l12.808-8.094"/>
        <path stroke-linejoin="round" d="M60.899 49.864L37.14 64.909 2.586 43.313l25.542-15.806M43.753 17.464L67.378 2.28l34.554 21.596-23.877 15.122"/>
        <path stroke-linejoin="round" d="M60.899 60.7L37.14 75.708 2.586 53.954"/>
        <path d="M101.931 34.674L78.182 49.716"/>
        <path stroke-linejoin="round" d="M60.899 82.258L37.14 97.304 2.586 75.549"/>
        <path d="M101.931 56.271L78.174 71.317M101.931 45.473L78.177 60.518"/>
    </g>
</svg>
