<svg xmlns="http://www.w3.org/2000/svg" xmlns:xlink="http://www.w3.org/1999/xlink" width="215" height="43" viewBox="0 0 215 43">
    <defs>
        <path id="a" d="M.27.352h20.777V25.17H.27z"/>
    </defs>
    <g fill="none" fill-rule="evenodd">
        <g fill="#425563" opacity=".7">
            <path d="M54.716 35.304c.112.11.168.25.168.424v5.576a.557.557 0 0 1-.177.42.63.63 0 0 1-.453.168.592.592 0 0 1-.601-.588v-2.248h-3.142v2.248a.542.542 0 0 1-.187.42.626.626 0 0 1-.433.168.6.6 0 0 1-.438-.169.564.564 0 0 1-.172-.42v-5.575c0-.167.059-.307.177-.42a.627.627 0 0 1 .453-.168.59.59 0 0 1 .423.169.558.558 0 0 1 .177.42v2.218h3.142v-2.219c0-.167.062-.307.187-.42a.626.626 0 0 1 .434-.168c.183 0 .33.055.442.164M65.023 40.952a.531.531 0 0 1 .172.39c0 .161-.057.293-.172.396a.618.618 0 0 1-.428.154h-3.3a.591.591 0 0 1-.429-.168.565.565 0 0 1-.172-.42v-5.576c0-.167.058-.307.172-.42a.588.588 0 0 1 .43-.168h3.299c.17 0 .313.053.428.16a.532.532 0 0 1 .172.409.5.5 0 0 1-.167.39.627.627 0 0 1-.433.15h-2.67v1.64h2.226c.17 0 .313.053.428.16a.533.533 0 0 1 .173.409c0 .16-.056.291-.168.39a.625.625 0 0 1-.433.15h-2.226v1.785h2.67c.17 0 .313.056.428.169M72.06 39.268h1.969l-.995-2.257-.975 2.257zm4.057 2.103a.54.54 0 0 1-.168.41.542.542 0 0 1-.704.053.689.689 0 0 1-.221-.29l-.512-1.166h-2.935l-.513 1.177a.596.596 0 0 1-.211.284.526.526 0 0 1-.31.102c-.171 0-.3-.046-.39-.136a.498.498 0 0 1-.133-.367c0-.057.01-.118.03-.183l2.452-5.768a.641.641 0 0 1 .237-.299.526.526 0 0 1 .354-.087.589.589 0 0 1 .551.386l2.423 5.653c.033.083.05.16.05.231zM85.758 35.294a.526.526 0 0 1 .168.406.51.51 0 0 1-.168.4.625.625 0 0 1-.433.15h-1.546v5.054a.545.545 0 0 1-.188.42.67.67 0 0 1-.462.168.632.632 0 0 1-.453-.168.558.558 0 0 1-.178-.42V36.25h-1.546a.614.614 0 0 1-.433-.156.524.524 0 0 1-.167-.405c0-.16.057-.292.172-.395a.618.618 0 0 1 .428-.154h4.373c.177 0 .321.051.433.154M92.337 41.723a.627.627 0 0 1-.433.17.6.6 0 0 1-.439-.17.562.562 0 0 1-.172-.42v-5.575c0-.167.059-.307.177-.42a.628.628 0 0 1 .453-.168.59.59 0 0 1 .423.169.556.556 0 0 1 .178.42v5.574a.544.544 0 0 1-.187.42M103.948 35.294a.537.537 0 0 1 .147.386v5.624a.563.563 0 0 1-.172.42.588.588 0 0 1-.428.168.868.868 0 0 1-.271-.043.386.386 0 0 1-.192-.12l-3.615-4.496v4.12c0 .153-.05.282-.152.385a.537.537 0 0 1-.4.154.509.509 0 0 1-.384-.154.536.536 0 0 1-.147-.386v-5.624a.587.587 0 0 1 .6-.588c.1 0 .196.019.291.058.096.038.166.09.212.154l3.585 4.476V35.68a.524.524 0 0 1 .542-.54c.157 0 .285.051.384.154M115.41 38.415a.57.57 0 0 1 .168.42v2.044c0 .225-.102.4-.305.521a3.99 3.99 0 0 1-2.117.589c-.65 0-1.251-.156-1.803-.468a3.543 3.543 0 0 1-1.31-1.264 3.291 3.291 0 0 1-.482-1.741c0-.63.16-1.211.483-1.741a3.54 3.54 0 0 1 1.31-1.264 3.605 3.605 0 0 1 1.802-.468c.65 0 1.214.129 1.693.386a.538.538 0 0 1 .222.203.528.528 0 0 1 .074.27c0 .16-.054.3-.162.42a.521.521 0 0 1-.4.178.82.82 0 0 1-.324-.078 2.855 2.855 0 0 0-1.103-.22c-.42 0-.808.104-1.163.313a2.33 2.33 0 0 0-.842.843c-.206.354-.31.74-.31 1.158 0 .418.104.804.31 1.158.208.353.488.635.842.844a2.25 2.25 0 0 0 1.163.313 4.005 4.005 0 0 0 1.142-.174v-1.254h-.926a.597.597 0 0 1-.428-.163.55.55 0 0 1-.173-.416.55.55 0 0 1 .173-.415.595.595 0 0 1 .428-.164h1.615a.57.57 0 0 1 .424.17M131.7 40.397a18.965 18.965 0 0 1-1.635-1.601l-.177-.203c-.355.103-.601.245-.739.425s-.206.408-.206.685c0 .327.123.609.369.843.246.235.631.352 1.157.352a1.74 1.74 0 0 0 1.23-.501m2.364.637l.06.115a.59.59 0 0 1 .059.27.53.53 0 0 1-.129.328.424.424 0 0 1-.354.164.519.519 0 0 1-.335-.096l-.541-.453-.316-.271c-.61.599-1.382.897-2.314.897a2.66 2.66 0 0 1-1.246-.294 2.308 2.308 0 0 1-.886-.781 1.856 1.856 0 0 1-.32-1.037c0-.952.482-1.637 1.447-2.055a2.36 2.36 0 0 1-.285-.482 1.247 1.247 0 0 1-.099-.491c0-.322.089-.62.266-.893.177-.274.428-.494.754-.66a2.42 2.42 0 0 1 1.127-.252c.454 0 .862.076 1.226.227.365.151.61.346.734.583a.827.827 0 0 1 .089.377.422.422 0 0 1-.143.323.53.53 0 0 1-.37.13c-.17 0-.298-.057-.384-.174a1.18 1.18 0 0 0-.487-.386 1.737 1.737 0 0 0-.665-.115c-.282 0-.503.074-.664.222a.727.727 0 0 0-.242.56c0 .205.08.413.242.621.16.21.382.449.664.72l.276.269c.21.225.581.586 1.113 1.08.131-.289.223-.608.276-.955a.344.344 0 0 1 .127-.245c.073-.055.188-.082.346-.082.15 0 .275.056.374.169a.6.6 0 0 1 .147.41l-.01.095a4.14 4.14 0 0 1-.443 1.352 25.743 25.743 0 0 1 .906.81M151.721 35.96c0 .135-.05.267-.147.395a.49.49 0 0 1-.404.203.724.724 0 0 1-.335-.087 2.47 2.47 0 0 0-1.044-.222c-.46 0-.86.095-1.201.284-.342.19-.605.457-.788.802a2.458 2.458 0 0 0-.276 1.18c0 .76.208 1.335.626 1.727.416.393.963.589 1.64.589.4 0 .748-.074 1.043-.222a.804.804 0 0 1 .315-.077c.17 0 .315.071.434.212a.622.622 0 0 1 .148.395.516.516 0 0 1-.08.28.512.512 0 0 1-.226.193 3.668 3.668 0 0 1-1.635.377 3.934 3.934 0 0 1-1.773-.4 3.123 3.123 0 0 1-1.29-1.183c-.321-.52-.482-1.15-.482-1.89 0-.657.152-1.245.458-1.765a3.223 3.223 0 0 1 1.265-1.22c.539-.293 1.146-.44 1.822-.44.584 0 1.126.126 1.625.377a.516.516 0 0 1 .305.492M161.894 37.344a2.11 2.11 0 0 0-.738-.834 1.904 1.904 0 0 0-1.064-.309c-.4 0-.756.101-1.068.304a2.05 2.05 0 0 0-.729.834 2.632 2.632 0 0 0-.261 1.177c0 .43.087.823.261 1.176.174.355.417.633.729.835.312.203.668.304 1.068.304.394 0 .749-.103 1.064-.308.315-.206.561-.485.738-.835a2.56 2.56 0 0 0 .267-1.172c0-.431-.09-.821-.267-1.172m1.113 2.922a3.244 3.244 0 0 1-2.915 1.722c-.636 0-1.21-.153-1.719-.463a3.245 3.245 0 0 1-1.19-1.259 3.625 3.625 0 0 1-.43-1.75c0-.637.143-1.22.43-1.751a3.24 3.24 0 0 1 1.19-1.259 3.25 3.25 0 0 1 1.72-.463 3.25 3.25 0 0 1 2.914 1.722c.289.53.433 1.114.433 1.75a3.6 3.6 0 0 1-.433 1.751M173.702 37.344a2.114 2.114 0 0 0-.738-.834 1.907 1.907 0 0 0-1.064-.309c-.4 0-.757.101-1.068.304-.312.202-.555.48-.729.834a2.632 2.632 0 0 0-.261 1.177c0 .43.087.823.261 1.176.174.355.417.633.729.835.311.203.668.304 1.068.304.394 0 .748-.103 1.064-.308.315-.206.561-.485.738-.835a2.56 2.56 0 0 0 .267-1.172c0-.431-.09-.821-.267-1.172m1.113 2.922a3.242 3.242 0 0 1-2.915 1.722 3.24 3.24 0 0 1-2.91-1.722 3.632 3.632 0 0 1-.428-1.75c0-.637.143-1.22.428-1.751a3.236 3.236 0 0 1 2.91-1.722 3.248 3.248 0 0 1 2.915 1.722c.29.53.434 1.114.434 1.75 0 .637-.144 1.221-.434 1.751M184.944 40.923a.531.531 0 0 1 .172.41.52.52 0 0 1-.172.4.608.608 0 0 1-.428.16h-3.201a.586.586 0 0 1-.6-.59v-5.575c0-.167.058-.307.177-.42a.628.628 0 0 1 .452-.168c.165 0 .306.056.424.169a.556.556 0 0 1 .177.419v5.035h2.571c.17 0 .313.054.428.16M191.626 41.723a.627.627 0 0 1-.433.17.601.601 0 0 1-.439-.17.564.564 0 0 1-.172-.42v-5.575c0-.167.059-.307.178-.42a.627.627 0 0 1 .452-.168c.164 0 .306.056.424.169a.555.555 0 0 1 .177.42v5.574a.544.544 0 0 1-.187.42M203.237 35.294a.537.537 0 0 1 .148.386v5.624a.566.566 0 0 1-.173.42.588.588 0 0 1-.428.168.865.865 0 0 1-.27-.043.386.386 0 0 1-.193-.12l-3.614-4.496v4.12a.524.524 0 0 1-.552.54.508.508 0 0 1-.384-.155.536.536 0 0 1-.148-.386v-5.624a.587.587 0 0 1 .6-.588c.1 0 .197.019.292.058.096.038.165.09.212.154l3.584 4.476V35.68a.524.524 0 0 1 .542-.54c.158 0 .285.051.384.154M214.7 38.415a.57.57 0 0 1 .168.42v2.044c0 .225-.102.4-.306.521a3.99 3.99 0 0 1-2.117.589c-.65 0-1.25-.156-1.802-.468a3.548 3.548 0 0 1-1.31-1.264 3.297 3.297 0 0 1-.483-1.741c0-.63.161-1.211.483-1.741a3.544 3.544 0 0 1 1.31-1.264 3.607 3.607 0 0 1 1.802-.468c.65 0 1.214.129 1.694.386a.538.538 0 0 1 .222.203.53.53 0 0 1 .073.27c0 .16-.054.3-.162.42a.521.521 0 0 1-.4.178.82.82 0 0 1-.324-.078 2.855 2.855 0 0 0-1.103-.22c-.42 0-.807.104-1.162.313a2.33 2.33 0 0 0-.842.843c-.207.354-.31.74-.31 1.158 0 .418.103.804.31 1.158.207.353.487.635.842.844.355.209.742.313 1.162.313a4.02 4.02 0 0 0 1.142-.174v-1.254h-.925a.6.6 0 0 1-.429-.163.55.55 0 0 1-.172-.416.55.55 0 0 1 .172-.415.598.598 0 0 1 .429-.164h1.615a.57.57 0 0 1 .423.17"/>
        </g>
        <path fill="#37C4E9" d="M168.047 11.193c-.599 1.393-1.162 2.705-1.729 4.015-1.816 4.205-3.633 8.413-5.455 12.615-.484 1.116-1.346 1.615-2.381 1.417-1.09-.209-1.677-1.14-1.395-2.256.18-.717.535-1.373.821-2.051 2.707-6.4 5.42-12.796 8.134-19.192.657-1.549 2.165-2.048 3.457-1.157.401.277.637.666.821 1.096l5.376 12.598c1.118 2.616 2.237 5.23 3.357 7.844.44 1.027.307 1.948-.381 2.592-1.005.943-2.514.689-3.182-.589-.469-.899-.841-1.847-1.254-2.774-.206-.463-.425-.923-.6-1.399-.113-.31-.284-.408-.62-.406-2.453.015-5.347.009-7.8.008-.517 0-.52-.003-.321-.456.472-1.07.963-2.13 1.408-3.21.144-.351.338-.44.7-.435 1.265.021 2.971.005 4.238.01.269.002.427-.025.281-.357-1.149-2.602-2.288-5.207-3.475-7.913"/>
        <path fill="#425563" d="M128.049 25.267V5.796c0-.185-.005-.37.009-.553.04-.517.474-.9 1.003-.895.524.004.925.36.976.87.014.138.009.277.009.415v22.299c-.013.623-.246.97-.76 1.136-.486.157-1.005-.025-1.353-.485-1.426-1.884-2.85-3.77-4.275-5.657L112.875 8.653c-.054-.071-.117-.137-.265-.311v.58c0 6.327 0 12.655.003 18.982 0 .363-.018.702-.335.96-.319.256-.661.335-1.047.183-.384-.153-.59-.438-.614-.846-.004-.092-.003-.185-.003-.276 0-7.433.002-14.867-.004-22.299-.001-.492.075-.924.567-1.167.512-.253 1.052-.093 1.465.45 1.02 1.34 2.03 2.688 3.043 4.031l12.092 16.014c.061.081.134.154.272.313M58.649 29.476c-3.361.062-6.125-1.248-8.457-3.545-.521-.512-.515-1.142-.005-1.625.474-.45 1.07-.44 1.57.087 1.431 1.508 3.142 2.512 5.227 2.843 1.857.296 3.667.195 5.392-.649 3.076-1.504 3.11-5.307.442-7.07-1.3-.86-2.763-1.346-4.228-1.828-1.525-.5-3.068-.948-4.472-1.745-2.35-1.333-3.494-3.314-3.28-5.992.194-2.43 1.56-4.118 3.762-5.036 3.686-1.537 7.28-1.268 10.636.981.53.356.969.826 1.305 1.372.317.516.21 1-.285 1.374-.451.341-.993.314-1.387-.108-2.244-2.407-6.07-3.04-9.033-1.895-2.27.878-3.273 2.864-2.574 5.076.262.83.815 1.439 1.54 1.908 1.476.958 3.124 1.527 4.796 2.039 1.446.443 2.894.891 4.208 1.651 2.477 1.435 3.427 3.533 3.175 6.19-.286 3.026-2.325 4.614-5.058 5.52-1.057.351-2.162.461-3.274.452M100.772 16.748V5.693c0-.735.225-1.102.765-1.276.723-.234 1.415.186 1.518.928.023.167.014.337.014.506l.001 21.741c0 .246.004.491-.075.729a1.145 1.145 0 0 1-1.223.796c-.557-.048-.919-.407-.988-.992-.02-.168-.012-.337-.012-.506v-10.87M152.51 27.027c-.14-.012-.282-.005-.422-.005-3.705 0-7.41-.006-11.114.009-.39.001-.529-.068-.528-.495.007-3.038 0-6.078 0-9.117l9.476-.006c.692-.005 1.138-.416 1.138-1.02 0-.615-.435-1.071-1.097-1.074l-9.516-.01c-.001-2.8.006-5.598 0-8.398 0-.4.125-.473.5-.471 3.72.013 7.44.009 11.16.008.173 0 .347.01.516-.011.692-.085 1.09-.69.888-1.34-.16-.516-.543-.752-1.245-.752H139.56c-1.028 0-1.364.336-1.364 1.363v11.01c0 3.731-.001 7.464.001 11.195 0 .785.367 1.204 1.089 1.205 4.391.008 8.784.007 13.176.001.66 0 1.103-.422 1.109-1.005.005-.564-.45-1.034-1.06-1.087M75.775 5.63c-.001-.694-.338-1.145-.922-1.263-.806-.161-1.372.398-1.372 1.369-.001 7.325-.001 14.65.001 21.976 0 .183.01.369.045.549.095.515.477.835 1.005.858.745.034 1.242-.498 1.243-1.35V5.63zM94.185 5.411c-.073-.643-.532-1.046-1.195-1.06-.648-.011-1.198.43-1.28 1.043-.03.226-.037.454-.037.682-.003 3.175-.005 4.848.004 8.024 0 .332-.048.494-.469.493-4.273-.011-9.032-.008-13.305-.002a.322.322 0 0 0-.332.314v1.496c0 .21.18.382.403.383 4.204.01 8.894.011 13.097-.006.525-.002.613.161.61.61-.018 3.356-.01 6.71-.008 10.065 0 .204.004.41.03.612.085.637.703 1.12 1.378 1.05.685-.072 1.112-.608 1.113-1.413.002-3.909.001-7.818.001-11.726V5.9c0-.162.008-.326-.01-.488"/>
        <path fill="#37C4E9" d="M186.135 29.113h-.341c-1.147 0-2.075-.91-2.075-2.031V6.377c0-1.123.928-2.032 2.075-2.032h.341c1.146 0 2.074.91 2.074 2.032v20.705c0 1.122-.928 2.031-2.074 2.031"/>
        <g transform="translate(193.82 3.881)">
            <mask id="b" fill="#fff">
                <use xlink:href="#a"/>
            </mask>
            <path fill="#37C4E9" d="M.271 2.849C.241 1.127 1.426.334 2.815.353c3.25.043 6.501.05 9.752.004 3.895-.057 6.88 2.936 7.353 6.376.405 2.957-.722 5.27-3.032 7.104-.18.142-.437.23-.084.487 1.534 1.118 2.149 2.687 2.275 4.5.036.534.124 1.066.192 1.598.066.512.304.913.738 1.227.581.42 1.041.927 1.038 1.707-.006.959-.684 1.692-1.658 1.79-1.413.144-2.49-.427-3.325-1.5-.784-1.01-1.082-2.197-1.208-3.433-.05-.487-.064-.98-.084-1.47-.054-1.355-.897-2.304-2.264-2.533a6.75 6.75 0 0 0-1.165-.095c-1.329.007-3.097-.006-4.426.008-.3.004-.402-.074-.396-.381.02-.967.021-1.935 0-2.902-.008-.32.109-.384.402-.382 1.64.011 3.723-.02 5.362.016.814.019 1.403-.29 1.898-.89 1.24-1.502 1.505-4.007.572-5.64-.572-1-1.387-1.547-2.617-1.525-2.282.043-4.564.025-6.846.003-.427-.005-.512.124-.51.518.012 5.882.009 11.763.007 17.643 0 .23-.003.462-.034.689-.213 1.58-1.462 2.282-2.966 1.674-1.049-.423-1.5-1.08-1.5-2.198-.002-3.347 0-6.694 0-10.041 0-3.286.042-6.573-.018-9.858" mask="url(#b)"/>
        </g>
        <path fill="#37C4E9" d="M18.59 12.808a.463.463 0 0 0-.308-.434L4.41 7.279a1.072 1.072 0 0 0-1.262.412 1.053 1.053 0 0 0-.162.59v3.606c.005 5.554 4.447 10.057 10.113 10.25l.275.01h4.673a.531.531 0 0 0 .537-.526v-1.014a.532.532 0 0 0-.537-.527h-4.583c-4.61-.002-8.365-3.677-8.369-8.193v-1.9c0-.121.123-.205.238-.162l12.774 4.692a.356.356 0 0 0 .482-.328v-1.381zM24.813 29.847l13.89 5.101a1.07 1.07 0 0 0 1.262-.412c.106-.16.162-.363.162-.59V30.46c0-5.596-4.529-10.185-10.239-10.373l-.148-.005h-4.771a.43.43 0 0 0-.434.425v1.217a.43.43 0 0 0 .434.424h4.558c4.69 0 8.49 3.723 8.49 8.316v1.85a.125.125 0 0 1-.169.115l-12.89-4.734a.32.32 0 0 0-.296.036.308.308 0 0 0-.139.259v1.448c0 .183.116.346.29.41"/>
        <path fill="#37C4E9" d="M28.512 18.208h1.625a.326.326 0 0 0 .306-.208l5.238-13.68a.999.999 0 0 0 .067-.363c0-.31-.142-.604-.39-.804-.183-.148-.443-.229-.732-.229H30.98c-5.677 0-10.276 4.35-10.47 9.905l-.008.265v15.818c0 4.598-3.806 8.325-8.5 8.325h-1.604c-.104 0-.201-.05-.26-.132a.305.305 0 0 1-.037-.286l4.758-12.426a.27.27 0 0 0-.032-.254.28.28 0 0 0-.232-.12l-1.425.003a.604.604 0 0 0-.565.383L7.432 37.908c-.191.499.03 1.044.525 1.296.128.066.294.1.49.1h3.61c5.688 0 10.353-4.416 10.547-9.984l.007-.187V13.316c0-4.598 3.806-8.326 8.5-8.326h1.604c.104 0 .2.05.26.133.059.083.073.19.037.285l-4.762 12.43a.274.274 0 0 0 .262.37"/>
        <path fill="#435664" d="M17.75 40.04a12.7 12.7 0 0 1-2.012.79c-.307.09-.307.52.002.606a21.87 21.87 0 0 0 5.837.791c5.58 0 10.669-2.091 14.5-5.512a.341.341 0 0 0-.116-.576l-1.316-.483a.682.682 0 0 0-.665.113 19.6 19.6 0 0 1-12.403 4.394c-1.044 0-2.067-.085-3.066-.241a1.268 1.268 0 0 0-.761.117M40.878 24.863c.326.633.596 1.292.806 1.97.093.3.532.3.619-.003.525-1.819.809-3.736.809-5.716 0-5.466-2.136-10.45-5.628-14.204a.355.355 0 0 0-.588.115l-.494 1.288a.648.648 0 0 0 .116.652c2.799 3.3 4.487 7.533 4.487 12.149a18.61 18.61 0 0 1-.247 3.003c-.042.255 0 .515.12.746M25.362 2.188a12.7 12.7 0 0 1 2.012-.79c.307-.09.307-.52-.003-.605A21.837 21.837 0 0 0 21.535 0c-5.58 0-10.67 2.093-14.502 5.513a.342.342 0 0 0 .118.576l1.315.483c.226.082.48.038.665-.114a19.6 19.6 0 0 1 12.404-4.394c1.044 0 2.067.085 3.066.242.26.041.525-.001.761-.118M2.234 17.365a12.198 12.198 0 0 1-.806-1.97c-.094-.3-.532-.3-.619.002A20.584 20.584 0 0 0 0 21.114c0 5.466 2.136 10.45 5.628 14.204.176.189.496.125.588-.115l.494-1.288a.648.648 0 0 0-.117-.652c-2.798-3.3-4.486-7.534-4.486-12.15 0-1.021.087-2.024.247-3.002a1.204 1.204 0 0 0-.12-.746"/>
    </g>
</svg>
