<svg xmlns="http://www.w3.org/2000/svg" width="104" height="98" viewBox="0 0 104 98">
    <g fill="none" fill-rule="evenodd" stroke="#FF6900" stroke-linecap="round" stroke-width="4">
        <path stroke-linejoin="round" d="M4.326 43.86c0 20.098 6.111 44.187 37.209 44.187h6.977c31.097 0 37.209-24.089 37.209-44.187v-4.65H4.326v4.65z"/>
        <path d="M85.444 50.978c.87-3.112 5.5-6.019 10.893-4.477 4.498 1.29 6.837 5.94 5.072 12.035-2.663 9.205-12.316 9.412-25.223 18.474M2 95.023h86.047M29.023 29.907C40.168 15.953 17.591 16.37 31.35 2M44.14 29.907C55.284 15.953 32.707 16.37 46.465 2M59.256 29.907C70.4 15.953 47.823 16.37 61.582 2M10.77 55.488h72.094"/>
    </g>
</svg>
