<svg xmlns="http://www.w3.org/2000/svg" width="103" height="111" viewBox="0 0 103 111">
    <g fill="none" fill-rule="evenodd" stroke="#FF6900" stroke-linecap="round" stroke-width="4">
        <path stroke-linejoin="round" d="M51.52 15.32C51.52 7.65 45.97 2 38.503 2 32.37 2 27.14 5.536 25.483 11.28c-8.83.284-14.72 9.562-13.955 17.868-9.885 3.123-12.79 17.856-5.319 26.13-4.306 8.6.536 20.843 10.728 22.079"/>
        <path d="M19.053 55.278c4.074-8.603 13.225-4.44 17.396-11.1M22.645 51.135c-4.022-.963-7.207-4.548-7.207-8.284M64.206 13.856c2.443 4.942 3.41 9.085.195 14.284a23.732 23.732 0 0 1-1.569 2.238M77.018 32.247c4.509-3.67 9.487-4.025 14.295-3.098"/>
        <path stroke-linejoin="round" d="M51.52 15.32C51.52 7.65 56.872 2 64.34 2c6.132 0 11.362 3.536 13.02 9.28 8.83.284 14.72 9.562 13.952 17.868 5.542 1.75 9.629 7.815 9.629 15.03 0 4.52-1.604 8.593-4.171 11.431a19.39 19.39 0 0 1 .195 5.668c-1.033 9.23-8.291 15.956-16.217 15.054-1.268 3.528-3.736 6.459-6.985 8.22M52.393 71.18l4.385-27.178-25.44 37.06h16.424l-2.186 27.178L68.82 71.18z"/>
        <path d="M51.526 14.354v17.294M38.503 15.32c3.23 17.482-13.186 4.855-12.919 22.199M86.505 44.178c-6.288.348-12.33 4.855-12.453 7.422-.126 2.567 2.177 9.992 8.82 11.261M11.53 29.148l3.91 1.667M96.771 55.61l-6.157-.331M80.748 76.331l-4.52-3.293M74.052 51.601s-6.32 1.181-8.539-3.711M77.355 10.88l-2.152 6.659M25.683 10.88l2.154 6.659M21.878 83.533c-2.728 0-4.941-2.765-4.941-6.177 0-3.412 2.213-6.176 4.94-6.176"/>
    </g>
</svg>
