<svg xmlns="http://www.w3.org/2000/svg" xmlns:xlink="http://www.w3.org/1999/xlink" width="300" height="48" viewBox="0 0 300 48">
    <defs>
        <path id="a" d="M.085.026h22.424V27.1H.085z"/>
    </defs>
    <g fill="none" fill-rule="evenodd">
        <path fill="#FFF" d="M218.325 23.932c.006-1.846-.408-3.583-1.328-5.194-2.938-5.147-9.98-5.48-13.275-.626-2.245 3.308-2.248 8.338-.007 11.65 2.803 4.143 8.504 4.67 11.994 1.085 1.87-1.92 2.597-4.292 2.616-6.915m5.058.036c-.072 4.25-1.496 7.924-4.753 10.781-2.03 1.78-4.418 2.756-7.123 3.024-7.619.756-13.463-4.68-14.363-11.67-.522-4.058.268-7.812 2.794-11.09 2.29-2.971 5.356-4.603 9.132-4.915 7.245-.597 12.748 4.403 14.007 10.776.202 1.02.318 2.05.306 3.094"/>
        <g transform="translate(277.087 10.383)">
            <mask id="b" fill="#fff">
                <use xlink:href="#a"/>
            </mask>
            <path fill="#FFF" d="M.086 2.75C.052.87 1.33.006 2.83.027 6.339.074 9.848.082 13.356.03c4.205-.061 7.427 3.203 7.936 6.956.438 3.226-.779 5.75-3.272 7.75-.194.155-.47.252-.09.532 1.655 1.219 2.319 2.932 2.454 4.91.04.582.134 1.162.209 1.743.07.558.327.996.796 1.338.627.458 1.124 1.011 1.12 1.862-.006 1.046-.738 1.845-1.79 1.953-1.524.158-2.688-.466-3.587-1.637-.847-1.102-1.168-2.396-1.305-3.745-.054-.532-.069-1.069-.09-1.604-.058-1.478-.968-2.514-2.444-2.763a7.278 7.278 0 0 0-1.258-.104c-1.434.008-3.342-.006-4.776.01-.325.003-.435-.08-.428-.416a73.249 73.249 0 0 0-.001-3.166c-.008-.348.118-.419.435-.417 1.77.012 4.018-.022 5.788.018.878.02 1.514-.317 2.048-.97 1.34-1.64 1.624-4.373.617-6.153-.617-1.093-1.497-1.69-2.825-1.665-2.462.047-4.925.027-7.388.003-.461-.005-.552.136-.551.565.013 6.417.01 12.832.008 19.248 0 .25-.004.504-.037.751-.23 1.724-1.578 2.49-3.201 1.827-1.132-.462-1.619-1.178-1.62-2.398V13.504C.104 9.92.15 6.334.086 2.75z" mask="url(#b)"/>
        </g>
        <path fill="#FFF" d="M182.716 37.85c-2.506-.074-4.98-.467-7.185-1.88-.71-.454-1.406-.934-1.962-1.572-1.224-1.404-.646-3.42 1.09-3.828.702-.165 1.331.011 1.892.458 1.06.841 2.175 1.606 3.497 1.965 2.061.558 4.122.648 6.13-.252.274-.124.535-.283.789-.445 2.074-1.32 1.54-3.774.05-4.803-1.12-.774-2.402-1.113-3.706-1.392-1.332-.284-2.696-.41-4.005-.81-1.737-.53-3.312-1.313-4.497-2.741-2.108-2.543-2.416-8.023 1.857-10.782 1.443-.932 3.037-1.446 4.731-1.627 2.793-.299 5.476.111 8 1.378.846.425 1.648.926 2.302 1.615.653.689.882 1.52.518 2.411-.347.85-.996 1.376-1.96 1.438-.459.03-.848-.13-1.223-.386-2.1-1.433-4.387-2.263-6.974-2.06-1.213.096-2.368.38-3.28 1.255-1.3 1.244-1.132 3.36.36 4.368 1.211.818 2.615 1.135 4.022 1.409 1.935.375 3.87.739 5.69 1.53 2.726 1.184 4.017 3.268 4.147 6.212.179 4.042-2.539 6.621-5.527 7.738-1.518.567-3.087.814-4.756.8M260.828 17.922c-.647 1.52-1.255 2.95-1.866 4.381-1.962 4.588-3.922 9.177-5.89 13.762-.521 1.217-1.45 1.763-2.569 1.546-1.175-.228-1.81-1.243-1.505-2.461.196-.782.578-1.498.887-2.238 2.92-6.982 5.85-13.96 8.779-20.938.708-1.689 2.335-2.233 3.73-1.261.434.302.689.726.887 1.195 1.934 4.581 3.867 9.163 5.803 13.744 1.205 2.853 2.413 5.706 3.622 8.558.475 1.12.332 2.124-.412 2.828-1.084 1.028-2.713.75-3.433-.644-.507-.98-.909-2.014-1.354-3.025-.223-.506-.459-1.007-.647-1.526-.122-.34-.307-.446-.669-.444-2.648.016-5.771.01-8.42.008-.557 0-.56-.003-.345-.497.508-1.166 1.039-2.323 1.519-3.502.156-.382.365-.48.755-.474 1.366.023 3.208.006 4.574.01.29.002.462-.026.304-.389-1.24-2.838-2.47-5.68-3.75-8.633M228.342 23.92c0-3.685.022-7.37-.01-11.055-.015-1.815 1.718-2.756 3.16-2.334 1 .294 1.65 1.167 1.706 2.301.008.167.002.335.002.503 0 6.33.007 12.662-.013 18.992-.002.527.15.624.644.62 3.136-.022 6.273-.015 9.41-.009 1.13.003 2.001.562 2.32 1.455.524 1.46-.422 2.918-1.982 3.05-.168.015-.337.013-.506.013-4.03 0-8.061-.031-12.092.017-1.49.018-2.684-.958-2.657-2.65.057-3.633.017-7.269.018-10.903M139.668 33.25V12.007c0-.2-.006-.402.01-.603a1.058 1.058 0 0 1 1.083-.977c.565.005.998.393 1.052.95.015.15.01.302.01.453v24.327c-.014.68-.264 1.059-.819 1.239-.525.17-1.085-.028-1.46-.529-1.54-2.055-3.078-4.114-4.615-6.171L123.29 15.126c-.06-.079-.127-.151-.286-.34v.632c0 6.903-.001 13.806.003 20.708 0 .397-.02.767-.362 1.047-.344.28-.713.367-1.129.2-.415-.166-.637-.477-.663-.922-.005-.1-.004-.201-.004-.302 0-8.109.003-16.218-.004-24.327 0-.537.081-1.007.612-1.273.553-.276 1.135-.101 1.581.492 1.101 1.461 2.19 2.932 3.285 4.397l13.05 17.47c.067.089.145.17.294.341M64.764 37.842c-3.627.068-6.611-1.362-9.128-3.868-.562-.559-.555-1.246-.005-1.772.512-.49 1.154-.482 1.694.094 1.545 1.646 3.392 2.74 5.642 3.103 2.004.322 3.958.212 5.82-.708 3.32-1.642 3.357-5.791.477-7.714-1.404-.938-2.982-1.468-4.564-1.994-1.645-.546-3.311-1.034-4.826-1.904-2.537-1.454-3.771-3.615-3.54-6.536.21-2.652 1.683-4.494 4.06-5.495 3.979-1.676 7.856-1.383 11.48 1.07.572.388 1.046.901 1.408 1.497.342.564.227 1.09-.307 1.499-.487.373-1.072.343-1.498-.118-2.421-2.625-6.552-3.317-9.749-2.067-2.45.958-3.533 3.125-2.778 5.537.283.906.88 1.57 1.662 2.082 1.593 1.044 3.371 1.666 5.176 2.225 1.561.483 3.124.972 4.541 1.801 2.675 1.565 3.7 3.855 3.428 6.752-.31 3.301-2.51 5.034-5.459 6.023-1.141.383-2.334.503-3.534.493M110.227 23.956v-12.06c.001-.801.243-1.203.826-1.393.78-.255 1.528.204 1.639 1.014.024.18.015.367.015.551 0 7.906 0 15.812.002 23.719 0 .268.004.535-.081.795a1.236 1.236 0 0 1-1.321.868c-.601-.053-.992-.444-1.066-1.083-.022-.182-.013-.368-.013-.552V23.956M166.068 35.17c-.15-.012-.303-.005-.455-.005-3.998 0-7.996-.006-11.994.009-.422.002-.572-.073-.571-.54.008-3.315 0-6.63.001-9.946 1.615-.013 4.824-.004 6.08-.004 1.382 0 2.764.007 4.146-.003.748-.005 1.229-.453 1.229-1.112 0-.672-.469-1.169-1.184-1.172-2.64-.013-7.371-.004-10.271-.01-.001-3.054.007-6.108 0-9.163 0-.435.135-.515.54-.513 4.016.014 8.03.009 12.046.008.185 0 .373.011.556-.012.748-.092 1.176-.751.959-1.46-.173-.565-.587-.821-1.344-.821-4.572-.002-9.144-.002-13.715 0-1.11 0-1.472.365-1.472 1.485v12.013c0 4.07-.002 8.142 0 12.213.001.856.397 1.314 1.176 1.314 4.74.008 9.48.008 14.221.002.713-.001 1.19-.46 1.197-1.098.006-.615-.486-1.128-1.145-1.185M83.248 11.827c-.001-.757-.365-1.25-.996-1.377-.87-.177-1.48.434-1.48 1.492 0 7.991 0 15.983.002 23.975 0 .2.011.403.048.599.103.562.515.91 1.084.937.804.037 1.341-.544 1.342-1.474V11.827zM101.466 11.518c-.07-.662-.52-1.076-1.17-1.09a1.226 1.226 0 0 0-1.254 1.072c-.03.232-.037.468-.037.702-.002 3.267-.005 6.534.004 9.8.001.343-.048.51-.46.508-4.187-.011-8.85-.008-13.038-.002a.324.324 0 0 0-.324.323v1.539c0 .217.177.393.395.394 4.12.01 8.714.012 12.833-.006.515-.002.601.166.599.627-.019 3.452-.011 6.903-.009 10.354 0 .21.004.422.03.63.083.655.689 1.152 1.35 1.08.67-.075 1.09-.626 1.09-1.454.002-4.02.001-8.042.001-12.063V12.02c0-.167.008-.336-.01-.502"/>
        <g fill="#FFF">
            <path d="M23.887 47.444a.952.952 0 0 1-.956-.948v-5.208c0-.524.428-.948.956-.948.527 0 .955.424.955.948v5.208a.952.952 0 0 1-.955.948M30.07 46.631a.956.956 0 0 1-1.17-.67l-1.36-5.03a.956.956 0 0 1 1.846-.49l1.359 5.03a.947.947 0 0 1-.676 1.16M35.806 44.262a.96.96 0 0 1-1.305-.347l-2.625-4.51a.944.944 0 0 1 .35-1.295.96.96 0 0 1 1.305.347l2.625 4.51a.944.944 0 0 1-.35 1.295M40.76 40.487a.96.96 0 0 1-1.35 0l-3.712-3.683a.943.943 0 0 1 0-1.34.96.96 0 0 1 1.351 0l3.712 3.682c.373.37.373.97 0 1.34M44.576 35.596a.96.96 0 0 1-1.305.347l-4.546-2.604a.944.944 0 0 1-.35-1.295.96.96 0 0 1 1.305-.347l4.546 2.604a.944.944 0 0 1 .35 1.295M46.945 29.886a.956.956 0 0 1-1.17.67l-5.07-1.347a.947.947 0 0 1-.676-1.161.956.956 0 0 1 1.17-.67l5.07 1.347c.51.136.813.656.676 1.161M47.773 23.746a.952.952 0 0 1-.955.948h-5.25a.952.952 0 0 1-.955-.948c0-.524.428-.948.955-.948h5.25c.527 0 .955.424.955.948M0 23.746c0-.524.428-.948.955-.948h5.25c.527 0 .955.424.955.948a.952.952 0 0 1-.955.948H.955A.952.952 0 0 1 0 23.746M.82 29.88a.947.947 0 0 1 .675-1.161l5.07-1.348a.956.956 0 0 1 1.17.67.947.947 0 0 1-.675 1.161L1.99 30.55a.956.956 0 0 1-1.17-.67M3.207 35.57a.944.944 0 0 1 .35-1.294l4.546-2.604a.96.96 0 0 1 1.305.347.944.944 0 0 1-.35 1.295l-4.546 2.604a.96.96 0 0 1-1.305-.347M23.886.047c.528 0 .956.425.956.948v5.208a.952.952 0 0 1-.956.948.952.952 0 0 1-.955-.948V.995c0-.523.428-.948.955-.948M7.012 7.004a.96.96 0 0 1 1.351 0l3.712 3.683c.373.37.373.97 0 1.34a.96.96 0 0 1-1.351 0L7.012 8.346a.943.943 0 0 1 0-1.34M3.197 11.895a.96.96 0 0 1 1.305-.347l4.546 2.604a.944.944 0 0 1 .35 1.295.96.96 0 0 1-1.305.347L3.547 13.19a.944.944 0 0 1-.35-1.295M.828 17.605a.956.956 0 0 1 1.17-.67l5.07 1.347c.51.136.813.656.676 1.161a.956.956 0 0 1-1.17.67l-5.07-1.347a.947.947 0 0 1-.676-1.161M46.954 17.612a.947.947 0 0 1-.676 1.16l-5.07 1.348a.956.956 0 0 1-1.17-.67.947.947 0 0 1 .675-1.16l5.07-1.349a.956.956 0 0 1 1.17.67M44.566 11.92a.944.944 0 0 1-.35 1.295L39.67 15.82a.96.96 0 0 1-1.305-.347.944.944 0 0 1 .35-1.295l4.546-2.604a.96.96 0 0 1 1.305.347M40.76 7.004c.374.37.374.97 0 1.34l-3.711 3.683a.96.96 0 0 1-1.351 0 .943.943 0 0 1 0-1.34l3.712-3.683a.96.96 0 0 1 1.35 0M35.831 3.22a.944.944 0 0 1 .35 1.294l-2.624 4.51a.96.96 0 0 1-1.306.347.944.944 0 0 1-.35-1.294l2.625-4.51a.96.96 0 0 1 1.305-.348M30.076.869c.51.135.812.655.676 1.16L29.393 7.06a.956.956 0 0 1-1.17.67.947.947 0 0 1-.676-1.16l1.359-5.03a.956.956 0 0 1 1.17-.671"/>
            <g fill-opacity=".5">
                <path d="M23.887 37.503a.952.952 0 0 1-.956-.948v-2.844c0-.523.428-.947.956-.947.527 0 .955.424.955.947v2.844a.952.952 0 0 1-.955.948M32.965 23.726c0-.523.428-.948.955-.948h2.867c.527 0 .955.425.955.948a.952.952 0 0 1-.955.948H33.92a.952.952 0 0 1-.955-.948M31.742 28.245a.96.96 0 0 1 1.305-.347l2.482 1.422a.944.944 0 0 1 .35 1.295.96.96 0 0 1-1.305.347L32.09 29.54a.944.944 0 0 1-.35-1.295M28.414 31.56a.96.96 0 0 1 1.305.347l1.433 2.462a.944.944 0 0 1-.35 1.295.96.96 0 0 1-1.305-.347l-1.433-2.463a.944.944 0 0 1 .35-1.294M23.878 9.997c.528 0 .956.425.956.948v2.844a.952.952 0 0 1-.956.948.952.952 0 0 1-.955-.948v-2.844c0-.523.428-.948.955-.948M16.023 19.255a.96.96 0 0 1-1.305.347l-2.482-1.422a.944.944 0 0 1-.35-1.294.96.96 0 0 1 1.305-.347l2.483 1.422a.944.944 0 0 1 .35 1.294M19.351 15.94a.96.96 0 0 1-1.305-.346l-1.433-2.463a.944.944 0 0 1 .35-1.295.96.96 0 0 1 1.305.347l1.433 2.463a.944.944 0 0 1-.35 1.295M28.4 15.95a.944.944 0 0 1-.35-1.295l1.434-2.462a.96.96 0 0 1 1.305-.347.944.944 0 0 1 .35 1.295l-1.433 2.462a.96.96 0 0 1-1.305.347M31.742 19.252a.944.944 0 0 1 .35-1.295l2.482-1.422a.96.96 0 0 1 1.305.347.944.944 0 0 1-.35 1.295l-2.482 1.422a.96.96 0 0 1-1.305-.347M10.032 23.757c0-.524.428-.948.956-.948h2.866c.528 0 .956.424.956.948a.952.952 0 0 1-.956.948h-2.866a.952.952 0 0 1-.956-.948M19.364 31.55a.944.944 0 0 1 .35 1.295l-1.433 2.463a.96.96 0 0 1-1.305.347.944.944 0 0 1-.35-1.295l1.433-2.463a.96.96 0 0 1 1.305-.347M16.023 28.248a.944.944 0 0 1-.35 1.295l-2.482 1.422a.96.96 0 0 1-1.305-.347.944.944 0 0 1 .35-1.295l2.482-1.422a.96.96 0 0 1 1.305.347"/>
            </g>
            <path d="M17.704.86a.956.956 0 0 1 1.17.67l1.359 5.03a.947.947 0 0 1-.676 1.162.956.956 0 0 1-1.17-.67l-1.359-5.03A.947.947 0 0 1 17.704.86M11.967 3.23a.96.96 0 0 1 1.305.346l2.625 4.51a.944.944 0 0 1-.35 1.295.96.96 0 0 1-1.305-.347l-2.624-4.51a.944.944 0 0 1 .35-1.295M7.012 40.487a.943.943 0 0 1 0-1.34l3.712-3.683a.96.96 0 0 1 1.351 0c.374.37.374.97 0 1.34l-3.711 3.683a.96.96 0 0 1-1.352 0M11.942 44.272a.944.944 0 0 1-.35-1.295l2.625-4.51a.96.96 0 0 1 1.305-.347.944.944 0 0 1 .35 1.295l-2.625 4.51a.96.96 0 0 1-1.305.347M17.697 46.622a.947.947 0 0 1-.676-1.16l1.36-5.031a.956.956 0 0 1 1.845.49l-1.359 5.031a.956.956 0 0 1-1.17.67"/>
        </g>
    </g>
</svg>
