<svg xmlns="http://www.w3.org/2000/svg" width="104" height="97" viewBox="0 0 104 97">
    <g fill="none" fill-rule="evenodd" stroke="#FF6900" stroke-linecap="round" stroke-linejoin="round" stroke-width="4">
        <path d="M29.273 20.133H8.81c-3.868 0-6.811 2.96-6.811 6.8M86.09 33.732v-13.6H65.637"/>
        <path d="M79.273 33.732L47.455 2 15.636 33.732"/>
        <path d="M63.364 33.732l-11.07-11.097c-3.214 3.205-6.428 3.21-9.642 0L31.53 33.732"/>
        <path d="M97.455 76.797v18.132H8.818C4.95 94.93 2 91.97 2 88.13V26.933c0 3.84 2.95 6.8 6.818 6.8h88.637v15.866"/>
        <path d="M70.182 54.131c-6.905 0-11.364 5.073-11.364 11.333s4.46 11.333 11.364 11.333h25c3.766 0 6.818-3.044 6.818-6.8V51.864a2.269 2.269 0 0 0-2.273-2.266h-2.272c0 2.41-2.487 4.533-4.546 4.533H70.181M67.91 65.464h4.545"/>
    </g>
</svg>
