<svg xmlns="http://www.w3.org/2000/svg" width="99" height="99" viewBox="0 0 99 99">
    <g fill="none" fill-rule="evenodd" stroke="#FF6900" stroke-width="4">
        <path stroke-linecap="round" d="M43.033 72.36a23.799 23.799 0 0 1-16.39-16.38m0-12.956a23.796 23.796 0 0 1 16.38-16.38m12.956 0A23.799 23.799 0 0 1 72.36 43.033m-.004 12.946c-2.237 7.909-8.47 14.14-16.379 16.379"/>
        <path d="M43.425 91.602c-18.628-2.664-33.364-17.4-36.028-36.028m0-12.15c2.664-18.626 17.4-33.362 36.026-36.026m12.154 0c18.626 2.664 33.36 17.398 36.024 36.026m0 12.152c-2.664 18.628-17.398 33.362-36.024 36.026"/>
        <path stroke-linecap="round" d="M55.977 73.25a4.32 4.32 0 0 0-4.318-4.318h-4.318a4.32 4.32 0 0 0-4.318 4.318v19.432A4.32 4.32 0 0 0 47.34 97h4.318a4.32 4.32 0 0 0 4.318-4.318V73.25zM97 47.34a4.32 4.32 0 0 0-4.318-4.317H73.25a4.32 4.32 0 0 0-4.318 4.318v4.318a4.32 4.32 0 0 0 4.318 4.318h19.432A4.32 4.32 0 0 0 97 51.66v-4.318zM30.068 47.34a4.32 4.32 0 0 0-4.318-4.317H6.318A4.32 4.32 0 0 0 2 47.34v4.318a4.32 4.32 0 0 0 4.318 4.318H25.75a4.32 4.32 0 0 0 4.318-4.318v-4.318zM55.977 6.318A4.32 4.32 0 0 0 51.66 2h-4.318a4.32 4.32 0 0 0-4.318 4.318V25.75a4.32 4.32 0 0 0 4.318 4.318h4.318a4.32 4.32 0 0 0 4.318-4.318V6.318zM4.16 25.75v-6.477c0-8.347 6.766-15.114 15.113-15.114h6.477M94.84 25.75v-6.477c0-8.347-6.766-15.114-15.113-15.114H73.25M4.16 73.25v6.477c0 8.347 6.766 15.114 15.113 15.114h6.477M94.84 73.25v6.477c0 8.347-6.766 15.114-15.113 15.114H73.25"/>
    </g>
</svg>
