<svg xmlns="http://www.w3.org/2000/svg" xmlns:xlink="http://www.w3.org/1999/xlink" width="250" height="139" viewBox="0 0 250 139">
    <defs>
        <path id="a" d="M.087.027h22.865v27.856H.087z"/>
    </defs>
    <g fill="none" fill-rule="evenodd">
        <g fill="#FFF">
            <path d="M124.773 95.748a1.912 1.912 0 0 1-1.91-1.913v-10.51a1.912 1.912 0 1 1 3.821 0v10.51a1.912 1.912 0 0 1-1.91 1.913M137.138 94.108a1.91 1.91 0 0 1-2.34-1.353l-2.717-10.152a1.91 1.91 0 1 1 3.692-.99l2.717 10.152a1.913 1.913 0 0 1-1.352 2.343M148.612 89.327a1.91 1.91 0 0 1-2.61-.7l-5.25-9.103a1.914 1.914 0 0 1 .7-2.613 1.91 1.91 0 0 1 2.61.7l5.25 9.102a1.914 1.914 0 0 1-.7 2.614M158.522 81.707a1.91 1.91 0 0 1-2.703 0l-7.423-7.431a1.914 1.914 0 0 1 0-2.706 1.91 1.91 0 0 1 2.702 0l7.424 7.432a1.914 1.914 0 0 1 0 2.705M166.152 71.838a1.91 1.91 0 0 1-2.61.7l-9.093-5.255a1.914 1.914 0 0 1-.699-2.613 1.91 1.91 0 0 1 2.61-.7l9.092 5.255a1.914 1.914 0 0 1 .7 2.613M170.89 60.315a1.91 1.91 0 0 1-2.34 1.352l-10.141-2.72a1.913 1.913 0 0 1 .99-3.696l10.14 2.72a1.913 1.913 0 0 1 1.351 2.344M172.546 47.922a1.912 1.912 0 0 1-1.91 1.913h-10.5a1.912 1.912 0 0 1 0-3.826h10.5c1.055 0 1.91.856 1.91 1.913M77 47.922c0-1.057.856-1.913 1.91-1.913h10.5c1.055 0 1.91.856 1.91 1.913a1.912 1.912 0 0 1-1.91 1.913h-10.5A1.912 1.912 0 0 1 77 47.922M78.638 60.3a1.913 1.913 0 0 1 1.352-2.342l10.14-2.72a1.913 1.913 0 0 1 .99 3.696l-10.141 2.72a1.91 1.91 0 0 1-2.34-1.353M83.414 71.787a1.914 1.914 0 0 1 .7-2.614l9.092-5.255a1.91 1.91 0 0 1 2.61.7 1.914 1.914 0 0 1-.7 2.614l-9.092 5.255a1.91 1.91 0 0 1-2.61-.7M124.773.096c1.055 0 1.91.856 1.91 1.913v10.51a1.912 1.912 0 1 1-3.821 0V2.009c0-1.057.856-1.913 1.911-1.913M91.024 14.136a1.91 1.91 0 0 1 2.703 0l7.424 7.432a1.914 1.914 0 0 1 0 2.705 1.91 1.91 0 0 1-2.703 0l-7.424-7.432a1.914 1.914 0 0 1 0-2.705M83.394 24.005a1.91 1.91 0 0 1 2.61-.7l9.093 5.255a1.914 1.914 0 0 1 .7 2.613 1.91 1.91 0 0 1-2.611.7l-9.092-5.254a1.914 1.914 0 0 1-.7-2.614M78.656 35.529a1.91 1.91 0 0 1 2.34-1.353l10.141 2.72a1.913 1.913 0 0 1-.989 3.696l-10.14-2.72a1.913 1.913 0 0 1-1.352-2.343M170.908 35.542a1.913 1.913 0 0 1-1.351 2.343l-10.141 2.72a1.913 1.913 0 0 1-.99-3.696l10.142-2.72a1.91 1.91 0 0 1 2.34 1.353M166.132 24.057a1.914 1.914 0 0 1-.7 2.613l-9.091 5.255a1.91 1.91 0 0 1-2.61-.7 1.914 1.914 0 0 1 .699-2.614l9.092-5.255a1.91 1.91 0 0 1 2.61.7M158.522 14.136a1.914 1.914 0 0 1 0 2.705l-7.424 7.432a1.91 1.91 0 0 1-2.703 0 1.914 1.914 0 0 1 0-2.706l7.424-7.431a1.91 1.91 0 0 1 2.703 0M148.663 6.497a1.914 1.914 0 0 1 .7 2.613l-5.25 9.103a1.91 1.91 0 0 1-2.61.7 1.914 1.914 0 0 1-.7-2.614l5.25-9.102a1.91 1.91 0 0 1 2.61-.7M137.152 1.753a1.913 1.913 0 0 1 1.351 2.343l-2.717 10.153a1.91 1.91 0 1 1-3.692-.99l2.718-10.153a1.91 1.91 0 0 1 2.34-1.353M112.408 1.736a1.91 1.91 0 0 1 2.34 1.353l2.717 10.152a1.91 1.91 0 1 1-3.692.99l-2.717-10.152a1.913 1.913 0 0 1 1.352-2.343M100.935 6.517a1.91 1.91 0 0 1 2.61.7l5.25 9.102a1.914 1.914 0 0 1-.7 2.613 1.91 1.91 0 0 1-2.61-.7l-5.25-9.102a1.914 1.914 0 0 1 .7-2.613M91.025 81.708a1.914 1.914 0 0 1 0-2.706l7.423-7.431a1.91 1.91 0 0 1 2.703 0 1.914 1.914 0 0 1 0 2.705l-7.424 7.432a1.91 1.91 0 0 1-2.702 0M100.883 89.346a1.914 1.914 0 0 1-.699-2.613l5.25-9.102a1.91 1.91 0 0 1 2.61-.7 1.914 1.914 0 0 1 .7 2.613l-5.25 9.102a1.91 1.91 0 0 1-2.61.7M112.394 94.09a1.913 1.913 0 0 1-1.351-2.343l2.717-10.152a1.91 1.91 0 1 1 3.692.99l-2.718 10.152a1.91 1.91 0 0 1-2.34 1.353"/>
            <g fill-opacity=".5">
                <path d="M124.773 75.686a1.912 1.912 0 0 1-1.91-1.913v-5.739a1.912 1.912 0 1 1 3.821 0v5.74a1.912 1.912 0 0 1-1.91 1.912M142.93 47.883c0-1.057.855-1.913 1.91-1.913h5.733c1.056 0 1.911.856 1.911 1.913a1.912 1.912 0 0 1-1.91 1.913h-5.733a1.912 1.912 0 0 1-1.911-1.913M140.483 57.002a1.91 1.91 0 0 1 2.61-.7l4.965 2.87a1.914 1.914 0 0 1 .7 2.613 1.91 1.91 0 0 1-2.61.7l-4.965-2.87a1.914 1.914 0 0 1-.7-2.613M133.827 63.691a1.91 1.91 0 0 1 2.61.7l2.867 4.97a1.914 1.914 0 0 1-.7 2.614 1.91 1.91 0 0 1-2.61-.7l-2.866-4.97a1.914 1.914 0 0 1 .7-2.614M124.757 20.176c1.055 0 1.91.856 1.91 1.913v5.739a1.912 1.912 0 1 1-3.821 0v-5.74c0-1.056.855-1.912 1.91-1.912M109.046 38.86a1.91 1.91 0 0 1-2.61.7l-4.965-2.87a1.914 1.914 0 0 1-.7-2.613 1.91 1.91 0 0 1 2.611-.7l4.965 2.87a1.914 1.914 0 0 1 .7 2.613M115.702 32.17a1.91 1.91 0 0 1-2.61-.7l-2.866-4.97a1.914 1.914 0 0 1 .699-2.613 1.91 1.91 0 0 1 2.61.7l2.867 4.97a1.914 1.914 0 0 1-.7 2.613M133.801 32.19a1.914 1.914 0 0 1-.7-2.614l2.867-4.97a1.91 1.91 0 0 1 2.61-.7 1.914 1.914 0 0 1 .7 2.613l-2.866 4.97a1.91 1.91 0 0 1-2.61.7M140.483 38.853a1.914 1.914 0 0 1 .7-2.613l4.965-2.87a1.91 1.91 0 0 1 2.61.7 1.914 1.914 0 0 1-.7 2.613l-4.964 2.87a1.91 1.91 0 0 1-2.61-.7M97.065 47.945c0-1.057.855-1.913 1.91-1.913h5.734c1.055 0 1.91.856 1.91 1.913a1.912 1.912 0 0 1-1.91 1.913h-5.733a1.912 1.912 0 0 1-1.911-1.913M115.729 63.672a1.914 1.914 0 0 1 .699 2.613l-2.866 4.97a1.91 1.91 0 0 1-2.61.7 1.914 1.914 0 0 1-.7-2.613l2.866-4.97a1.91 1.91 0 0 1 2.61-.7M109.046 57.009a1.914 1.914 0 0 1-.699 2.613l-4.965 2.87a1.91 1.91 0 0 1-2.61-.7 1.914 1.914 0 0 1 .7-2.614l4.964-2.87a1.91 1.91 0 0 1 2.61.7"/>
            </g>
        </g>
        <path fill="#FFF" d="M166.52 123.782c.007-1.9-.415-3.687-1.353-5.344-2.996-5.296-10.176-5.638-13.536-.644-2.29 3.404-2.293 8.58-.008 11.987 2.859 4.262 8.671 4.805 12.23 1.117 1.908-1.976 2.65-4.417 2.668-7.116m5.158.038c-.074 4.372-1.526 8.152-4.847 11.092-2.07 1.833-4.505 2.836-7.263 3.112-7.77.777-13.729-4.816-14.646-12.008-.533-4.175.273-8.038 2.85-11.411 2.334-3.057 5.46-4.736 9.311-5.057 7.387-.615 13 4.53 14.282 11.087.206 1.051.325 2.11.313 3.185"/>
        <g transform="translate(226.44 109.842)">
            <mask id="b" fill="#fff">
                <use xlink:href="#a"/>
            </mask>
            <path fill="#FFF" d="M.087 2.83C.053.895 1.357.006 2.887.026c3.577.049 7.155.058 10.732.005 4.287-.063 7.573 3.296 8.092 7.157.447 3.32-.794 5.917-3.336 7.974-.198.16-.48.26-.092.548 1.687 1.254 2.365 3.016 2.503 5.051.04.6.136 1.197.212 1.794.073.575.334 1.025.812 1.377.64.471 1.146 1.04 1.142 1.916-.006 1.076-.752 1.898-1.824 2.01-1.555.162-2.741-.48-3.66-1.685-.863-1.134-1.19-2.466-1.33-3.853-.055-.547-.07-1.1-.091-1.65-.06-1.522-.988-2.587-2.492-2.843a7.356 7.356 0 0 0-1.283-.108c-1.462.009-3.408-.006-4.87.01-.331.004-.443-.082-.436-.428a76.051 76.051 0 0 0-.001-3.257c-.009-.359.12-.43.443-.429 1.806.012 4.097-.023 5.902.018.896.02 1.544-.325 2.089-.998 1.365-1.687 1.656-4.499.629-6.331-.63-1.124-1.527-1.738-2.881-1.713-2.51.048-5.023.028-7.534.003-.47-.005-.563.14-.562.582.014 6.602.01 13.203.008 19.805 0 .257-.003.518-.037.773-.234 1.773-1.609 2.562-3.264 1.879-1.154-.475-1.65-1.212-1.651-2.467-.002-3.757 0-7.515 0-11.272 0-3.689.046-7.378-.02-11.066z" mask="url(#b)"/>
        </g>
        <path fill="#FFF" d="M130.21 138.102c-2.555-.075-5.077-.48-7.326-1.933-.723-.468-1.433-.961-2-1.618-1.248-1.444-.66-3.519 1.11-3.939.717-.17 1.359.012 1.93.471 1.08.866 2.218 1.653 3.566 2.022 2.102.575 4.203.667 6.25-.26.28-.126.546-.29.805-.457 2.116-1.358 1.571-3.883.052-4.942-1.142-.796-2.45-1.146-3.78-1.432-1.358-.292-2.748-.422-4.083-.834-1.772-.546-3.378-1.35-4.585-2.82-2.15-2.617-2.464-8.255 1.893-11.094 1.471-.96 3.097-1.488 4.824-1.674 2.847-.308 5.583.114 8.157 1.418.863.437 1.68.953 2.347 1.662.666.708.9 1.563.529 2.48-.354.874-1.016 1.416-1.998 1.48-.468.03-.866-.133-1.248-.397-2.14-1.475-4.473-2.328-7.111-2.12-1.237.099-2.415.392-3.345 1.292-1.325 1.28-1.154 3.457.368 4.494 1.234.842 2.666 1.168 4.1 1.45 1.973.385 3.947.76 5.803 1.574 2.78 1.218 4.096 3.363 4.228 6.392.182 4.159-2.588 6.813-5.636 7.961-1.548.584-3.148.839-4.85.824M209.86 117.598c-.659 1.564-1.278 3.036-1.902 4.508-2 4.72-3.999 9.442-6.005 14.16-.533 1.252-1.48 1.814-2.62 1.59-1.199-.234-1.845-1.278-1.535-2.532.2-.804.589-1.54.904-2.302 2.979-7.184 5.965-14.364 8.952-21.544.723-1.738 2.382-2.298 3.805-1.298.441.31.7.748.903 1.23 1.972 4.714 3.944 9.429 5.917 14.142 1.23 2.936 2.461 5.87 3.694 8.805.484 1.153.338 2.186-.42 2.91-1.106 1.058-2.766.772-3.501-.662-.517-1.009-.926-2.073-1.38-3.113-.228-.52-.468-1.036-.66-1.57-.125-.35-.314-.459-.682-.456-2.7.016-5.885.009-8.586.008-.568 0-.572-.004-.352-.512.518-1.2 1.06-2.39 1.549-3.603.159-.394.372-.494.77-.488 1.392.023 3.27.006 4.664.011.296.002.47-.028.31-.4-1.265-2.921-2.518-5.846-3.824-8.884M176.735 123.77c0-3.792.023-7.584-.01-11.375-.015-1.868 1.751-2.836 3.222-2.402 1.02.302 1.683 1.2 1.74 2.368.008.172.002.345.002.517 0 6.514.007 13.028-.014 19.542-.002.542.154.642.657.638 3.198-.023 6.397-.016 9.596-.009 1.151.003 2.04.578 2.366 1.497.533 1.503-.431 3.003-2.022 3.139-.171.014-.343.012-.515.012-4.11.001-8.22-.032-12.33.018-1.52.019-2.737-.986-2.71-2.727.058-3.738.018-7.479.018-11.218M86.315 133.37v-21.857c0-.207-.006-.414.01-.62.043-.58.521-1.011 1.104-1.005.577.005 1.018.404 1.074.977.015.155.01.31.01.466v25.031c-.015.7-.27 1.089-.835 1.274-.536.176-1.107-.028-1.49-.543-1.57-2.115-3.137-4.233-4.705-6.35L69.615 114.72c-.06-.081-.129-.155-.291-.35v.651c0 7.103-.001 14.205.003 21.307 0 .408-.02.79-.37 1.077-.35.289-.726.378-1.15.206-.423-.171-.65-.49-.676-.949-.006-.103-.004-.207-.004-.31 0-8.344.002-16.688-.005-25.031 0-.553.083-1.037.625-1.31.563-.284 1.157-.104 1.612.506 1.123 1.504 2.233 3.016 3.35 4.525l13.307 17.975c.068.091.148.174.3.351M9.936 138.095c-3.699.07-6.741-1.402-9.308-3.98-.573-.575-.565-1.282-.005-1.823.522-.505 1.177-.496 1.728.096 1.575 1.693 3.458 2.82 5.753 3.193 2.043.331 4.036.218 5.933-.73 3.386-1.688 3.424-5.957.487-7.936-1.431-.964-3.04-1.51-4.653-2.051-1.678-.562-3.377-1.065-4.922-1.96-2.586-1.496-3.845-3.72-3.61-6.725.214-2.728 1.717-4.624 4.14-5.654 4.058-1.724 8.012-1.423 11.707 1.102.584.399 1.066.927 1.435 1.54.35.58.232 1.121-.313 1.542-.496.384-1.093.353-1.526-.121-2.47-2.701-6.681-3.414-9.942-2.128-2.499.987-3.602 3.216-2.833 5.698.289.932.897 1.615 1.695 2.142 1.625 1.075 3.438 1.714 5.279 2.29 1.591.497 3.185 1 4.63 1.853 2.727 1.61 3.773 3.966 3.495 6.947-.315 3.397-2.559 5.18-5.566 6.197-1.164.394-2.38.518-3.604.508M56.295 123.807v-12.41c0-.824.247-1.237.841-1.432.796-.263 1.56.21 1.672 1.043.025.186.016.378.016.567l.001 24.405c0 .275.004.55-.083.818-.195.598-.722.95-1.347.894-.612-.055-1.01-.457-1.087-1.115-.021-.187-.013-.378-.013-.568v-12.202M113.235 135.346c-.153-.013-.31-.006-.464-.006-4.077 0-8.154-.006-12.23.009-.43.002-.583-.075-.582-.554.008-3.412 0-6.824 0-10.235 1.647-.014 4.92-.004 6.2-.004 1.41 0 2.819.007 4.228-.003.763-.005 1.253-.466 1.253-1.145 0-.69-.478-1.202-1.208-1.205-2.692-.013-7.515-.005-10.472-.01-.001-3.143.006-6.286 0-9.429 0-.447.138-.53.55-.528 4.095.015 8.19.01 12.283.009.19 0 .38.011.567-.012.763-.096 1.2-.774.978-1.504-.176-.58-.598-.844-1.37-.844H98.981c-1.13 0-1.5.376-1.5 1.529v12.36c0 4.188-.002 8.377 0 12.566.001.88.404 1.352 1.198 1.353 4.834.008 9.668.007 14.502.001.727 0 1.214-.474 1.22-1.13.007-.632-.495-1.16-1.167-1.218M28.784 111.327c-.001-.779-.372-1.286-1.015-1.417-.887-.182-1.509.446-1.51 1.535 0 8.223 0 16.446.002 24.669 0 .205.012.414.049.616.105.578.525.937 1.106.964.82.038 1.367-.559 1.368-1.516v-24.851zM47.361 111.01c-.072-.682-.53-1.108-1.193-1.122a1.254 1.254 0 0 0-1.279 1.103c-.03.239-.038.48-.038.722-.002 3.361-.005 6.722.005 10.084 0 .352-.05.523-.469.522-4.27-.011-9.025-.009-13.295-.002a.332.332 0 0 0-.33.332v1.584c0 .223.18.404.402.405 4.2.011 8.886.012 13.086-.006.524-.002.613.17.61.646-.019 3.55-.011 7.102-.009 10.653 0 .216.004.434.031.648.085.674.703 1.186 1.376 1.11.685-.076 1.112-.643 1.112-1.495.002-4.137.001-8.274.001-12.411v-12.257c0-.173.009-.346-.01-.517"/>
    </g>
</svg>
