<svg xmlns="http://www.w3.org/2000/svg" width="249" height="45" viewBox="0 0 249 45">
    <g fill="#FFF" fill-rule="evenodd">
        <path d="M124.537 23.524V4.625c0-.179-.005-.358.009-.536a.943.943 0 0 1 .965-.87c.504.005.89.35.94.846.012.134.008.269.008.402V26.111c-.013.605-.236.942-.73 1.103-.469.151-.969-.025-1.303-.47-1.373-1.83-2.744-3.66-4.115-5.491L109.93 7.399c-.052-.07-.112-.134-.254-.303v.563c0 6.142-.001 12.283.002 18.424 0 .353-.017.683-.322.931-.306.25-.636.327-1.007.179-.37-.149-.568-.425-.591-.821-.005-.09-.003-.18-.003-.268 0-7.215.002-14.43-.005-21.644 0-.478.073-.896.547-1.132.492-.246 1.012-.091 1.41.437.982 1.3 1.953 2.608 2.93 3.912 3.878 5.182 7.758 10.362 11.638 15.543.059.079.128.15.261.304M57.738 27.61c-3.235.06-5.895-1.212-8.14-3.442-.501-.497-.495-1.108-.005-1.576.457-.437 1.03-.429 1.512.084 1.377 1.463 3.024 2.438 5.03 2.76 1.788.287 3.53.188 5.19-.63 2.961-1.46 2.994-5.152.426-6.863-1.252-.834-2.66-1.306-4.07-1.774-1.467-.485-2.953-.92-4.304-1.694-2.262-1.294-3.363-3.216-3.157-5.815.187-2.36 1.501-3.998 3.621-4.89 3.548-1.49 7.006-1.23 10.238.954.51.345.932.801 1.255 1.33.306.503.203.971-.274 1.335-.434.331-.955.305-1.335-.105-2.16-2.336-5.843-2.952-8.694-1.84-2.186.853-3.15 2.78-2.478 4.927.252.806.785 1.396 1.483 1.852 1.42.93 3.006 1.482 4.616 1.98 1.392.43 2.785.864 4.05 1.602 2.384 1.392 3.299 3.43 3.056 6.007-.276 2.938-2.238 4.479-4.868 5.36-1.018.34-2.081.446-3.152.438M98.282 15.256V4.526c.001-.713.217-1.07.736-1.24.696-.226 1.363.182 1.462.902.022.161.014.327.014.49l.001 21.103c0 .238.003.476-.073.707-.17.518-.631.822-1.178.773-.535-.047-.883-.395-.95-.963-.019-.162-.011-.328-.011-.491V15.256M148.08 25.233c-.134-.012-.27-.005-.405-.005-3.566 0-7.132-.006-10.697.008-.376.001-.51-.065-.509-.48.007-2.95 0-5.9.001-8.85 1.44-.011 4.302-.003 5.421-.003 1.233 0 2.466.006 3.699-.002.667-.005 1.095-.404 1.095-.99 0-.598-.418-1.04-1.056-1.043-2.355-.011-6.573-.004-9.159-.009 0-2.717.006-5.434 0-8.152 0-.387.12-.458.482-.457 3.58.013 7.161.008 10.742.008.165 0 .333.01.496-.01.667-.083 1.049-.67.855-1.3-.154-.502-.523-.73-1.199-.73-4.077-.002-8.154-.002-12.23 0-.99 0-1.313.325-1.313 1.321v10.687c0 3.622-.002 7.245 0 10.867.001.761.354 1.168 1.048 1.17 4.228.006 8.455.006 12.683 0 .636 0 1.062-.41 1.067-.976.006-.547-.433-1.004-1.02-1.054M74.222 4.464c0-.673-.325-1.112-.888-1.225-.775-.157-1.32.386-1.32 1.328 0 7.11 0 14.22.002 21.33 0 .178.01.358.042.533.092.5.46.81.967.833.718.033 1.197-.483 1.197-1.31V4.463zM90.47 4.19c-.064-.59-.465-.958-1.045-.97a1.093 1.093 0 0 0-1.118.954 4.954 4.954 0 0 0-.033.624c-.002 2.906-.005 5.813.004 8.72 0 .304-.043.452-.41.451a2901.2 2901.2 0 0 0-11.627-.002c-.16 0-.29.128-.29.287v1.37c0 .193.158.35.353.35 3.673.01 7.77.01 11.444-.005.459-.002.536.147.534.558-.017 3.07-.01 6.141-.008 9.212 0 .186.004.375.027.56a1.11 1.11 0 0 0 1.204.96c.598-.066.972-.556.972-1.292l.001-10.733V4.636c0-.149.007-.3-.009-.447M160.15 16.389v-2.9a.5.5 0 0 1 .5-.5h8.767v-7.8c0-.588.217-1.08.65-1.475a2.166 2.166 0 0 1 1.507-.593c.639 0 1.152.192 1.54.576.388.384.582.882.582 1.492V24.79c0 .588-.206 1.08-.616 1.475-.411.396-.936.594-1.575.594-.57 0-1.06-.198-1.472-.594a1.965 1.965 0 0 1-.616-1.475V16.89h-8.766a.5.5 0 0 1-.5-.5zM158.5 24.79c0 .588-.217 1.08-.65 1.475a2.166 2.166 0 0 1-1.507.594c-.616 0-1.123-.198-1.523-.594-.399-.395-.599-.887-.599-1.475V5.19c0-.589.206-1.08.616-1.476.411-.396.936-.593 1.575-.593.57 0 1.06.197 1.472.593.41.396.616.887.616 1.475V24.79zM200.482 15.329c0 2.238-.502 4.29-1.506 6.155-1.004 1.865-2.39 3.34-4.159 4.425-1.768 1.085-3.76 1.628-5.973 1.628s-4.204-.543-5.972-1.628c-1.769-1.085-3.15-2.56-4.142-4.425-.992-1.865-1.489-3.917-1.489-6.155 0-2.238.497-4.29 1.49-6.155.992-1.865 2.372-3.34 4.14-4.426 1.77-1.085 3.76-1.627 5.973-1.627 2.214 0 4.205.542 5.973 1.627 1.769 1.085 3.155 2.56 4.159 4.426 1.004 1.865 1.506 3.917 1.506 6.155zm-4.45 0c0-1.515-.308-2.888-.924-4.12-.616-1.233-1.472-2.21-2.567-2.934-1.095-.723-2.327-1.085-3.697-1.085-1.391 0-2.63.356-3.713 1.068-1.084.712-1.928 1.69-2.533 2.934-.605 1.243-.907 2.622-.907 4.137 0 1.514.302 2.894.907 4.137.605 1.243 1.449 2.221 2.533 2.933 1.084.713 2.322 1.069 3.713 1.069 1.37 0 2.602-.362 3.697-1.086 1.095-.723 1.951-1.7 2.567-2.933.616-1.232.924-2.606.924-4.12zM226.014 3.12c.57 0 1.067.198 1.489.594.422.396.633.887.633 1.475v19.635c0 .588-.194 1.08-.582 1.475-.388.396-.901.594-1.54.594-.64 0-1.158-.193-1.558-.577-.399-.384-.599-.882-.599-1.492V11.158l-5.647 8.545c-.228.272-.49.492-.787.662a1.6 1.6 0 0 1-.925.22 1.535 1.535 0 0 1-.89-.22c-.296-.17-.558-.39-.787-.662l-5.647-8.85v13.971c0 .61-.183 1.108-.548 1.492-.365.384-.844.577-1.437.577-.57 0-1.039-.198-1.404-.594-.365-.395-.547-.887-.547-1.475V5.189c0-.565.21-1.051.633-1.458.422-.407.93-.61 1.523-.61.342 0 .684.084 1.027.254.342.17.604.39.787.661l7.462 11.36 7.667-11.36c.182-.271.427-.492.736-.661.308-.17.621-.254.94-.254zM246.468 22.959c.593 0 1.09.198 1.489.593.399.396.599.854.599 1.374 0 .565-.2 1.028-.6 1.39-.399.362-.895.543-1.488.543H235c-.593 0-1.09-.198-1.489-.594-.399-.395-.599-.887-.599-1.475V5.19c0-.589.2-1.08.6-1.476.399-.396.895-.593 1.488-.593h11.467c.593 0 1.09.186 1.489.56.399.372.599.853.599 1.44 0 .566-.194 1.023-.582 1.374-.388.35-.89.525-1.506.525h-9.276v5.765h7.735c.594 0 1.09.187 1.49.56.399.373.598.853.598 1.441 0 .565-.194 1.023-.582 1.374-.387.35-.89.525-1.506.525h-7.735v6.274h9.276z"/>
        <g>
            <path d="M41.865 26.59a.853.853 0 0 1-1.043.596l-4.522-1.2a.842.842 0 0 1-.603-1.032.853.853 0 0 1 1.044-.596l4.522 1.199c.454.12.724.583.602 1.033M42.604 21.126a.848.848 0 0 1-.852.844H37.07a.848.848 0 0 1-.852-.844c0-.465.382-.843.852-.843h4.682c.47 0 .852.378.852.843M0 21.126c0-.465.381-.843.852-.843h4.681c.47 0 .852.378.852.843a.848.848 0 0 1-.852.844H.853A.848.848 0 0 1 0 21.126M.73 26.584a.842.842 0 0 1 .603-1.033l4.522-1.2a.853.853 0 0 1 1.043.597.842.842 0 0 1-.602 1.033L1.774 27.18a.853.853 0 0 1-1.043-.596M21.302.042c.47 0 .852.378.852.844v4.633a.848.848 0 0 1-.852.843.848.848 0 0 1-.852-.843V.886c0-.466.381-.844.852-.844M6.253 6.232a.858.858 0 0 1 1.205 0l3.31 3.276a.837.837 0 0 1 0 1.193.858.858 0 0 1-1.204 0l-3.31-3.277a.837.837 0 0 1 0-1.192M2.851 10.583a.857.857 0 0 1 1.164-.309l4.054 2.317a.839.839 0 0 1 .312 1.152.857.857 0 0 1-1.164.309l-4.054-2.317a.839.839 0 0 1-.312-1.152M.738 15.663a.853.853 0 0 1 1.044-.596l4.522 1.199c.454.12.724.583.602 1.033a.853.853 0 0 1-1.043.596l-4.522-1.2a.843.843 0 0 1-.603-1.032M41.873 15.669a.843.843 0 0 1-.602 1.033l-4.522 1.2a.853.853 0 0 1-1.044-.597.842.842 0 0 1 .603-1.033l4.522-1.2a.853.853 0 0 1 1.043.597M39.744 10.605a.839.839 0 0 1-.312 1.152l-4.054 2.317a.857.857 0 0 1-1.164-.309.839.839 0 0 1 .312-1.152l4.054-2.316a.857.857 0 0 1 1.164.308M36.35 6.232a.837.837 0 0 1 0 1.192l-3.31 3.277a.858.858 0 0 1-1.205 0 .837.837 0 0 1 0-1.193l3.31-3.276a.858.858 0 0 1 1.205 0M31.954 2.864a.839.839 0 0 1 .312 1.152l-2.34 4.013a.857.857 0 0 1-1.165.309.839.839 0 0 1-.311-1.152l2.34-4.013a.857.857 0 0 1 1.164-.309M26.822.773c.454.12.724.583.602 1.033L26.212 6.28a.853.853 0 0 1-1.043.597.843.843 0 0 1-.603-1.033l1.212-4.476a.853.853 0 0 1 1.044-.596"/>
            <path fill-opacity=".5" d="M32.033 20.266h.773c.47 0 .852.377.852.843a.848.848 0 0 1-.852.844h-.773a.848.848 0 0 1-.852-.844c0-.466.382-.843.852-.843zM9.77 20.266h.773c.47 0 .852.377.852.843a.848.848 0 0 1-.852.844H9.77a.848.848 0 0 1-.852-.844c0-.466.381-.843.852-.843z"/>
            <path d="M15.788.765a.853.853 0 0 1 1.044.597l1.211 4.475a.843.843 0 0 1-.602 1.033.853.853 0 0 1-1.044-.596l-1.211-4.476a.843.843 0 0 1 .602-1.033M10.672 2.873a.857.857 0 0 1 1.164.309l2.34 4.012a.839.839 0 0 1-.311 1.152.857.857 0 0 1-1.164-.308l-2.34-4.013a.839.839 0 0 1 .311-1.152"/>
            <path fill-opacity=".5" d="M21.294 8.894c.471 0 .852.378.852.844v2.53a.848.848 0 0 1-.852.843.848.848 0 0 1-.852-.843v-2.53c0-.466.382-.844.852-.844M14.29 17.131a.857.857 0 0 1-1.165.31l-2.213-1.266a.839.839 0 0 1-.312-1.152.857.857 0 0 1 1.164-.309l2.214 1.265a.839.839 0 0 1 .311 1.152M17.257 14.182a.857.857 0 0 1-1.164-.308l-1.278-2.191a.839.839 0 0 1 .312-1.153.857.857 0 0 1 1.164.31l1.278 2.19a.839.839 0 0 1-.312 1.152M25.327 14.19a.839.839 0 0 1-.311-1.151l1.278-2.191a.857.857 0 0 1 1.164-.309.839.839 0 0 1 .312 1.152l-1.279 2.191a.857.857 0 0 1-1.164.309M28.307 17.128a.839.839 0 0 1 .312-1.152l2.214-1.265a.857.857 0 0 1 1.164.309.839.839 0 0 1-.312 1.152l-2.214 1.265a.857.857 0 0 1-1.164-.309"/>
            <g fill-rule="nonzero">
                <path d="M31.47 42.527c.25 0 .452-.2.452-.448v-9.624a.9.9 0 0 1 .903-.895c.5 0 .904.4.904.895v9.624a2.249 2.249 0 0 1-2.26 2.239H25.37a1.574 1.574 0 0 1-1.581-1.567v-5.372c0-1.36-1.113-2.462-2.485-2.462-1.373 0-2.485 1.102-2.485 2.462v5.372c0 .865-.708 1.567-1.581 1.567h-6.1a2.249 2.249 0 0 1-2.259-2.239V31.784a.9.9 0 0 1 .904-.896c.499 0 .903.401.903.896v10.295a.45.45 0 0 0 .452.448h5.874V37.38c0-2.348 1.921-4.252 4.292-4.252 2.37 0 4.292 1.904 4.292 4.252v5.148h5.874z"/>
                <path d="M21.304 18.654L6.314 31.783a.91.91 0 0 1-1.275-.078.89.89 0 0 1 .079-1.264l15.587-13.653a.91.91 0 0 1 1.197 0L37.49 30.441a.89.89 0 0 1 .078 1.264.91.91 0 0 1-1.275.078l-14.99-13.129z"/>
            </g>
        </g>
        <path fill-opacity=".5" d="M55.795 41.77c.232 0 .426.078.582.232a.734.734 0 0 1 .234.537.7.7 0 0 1-.234.543.834.834 0 0 1-.582.212h-4.481a.794.794 0 0 1-.816-.808v-7.66a.794.794 0 0 1 .816-.808l4.48-.001a.82.82 0 0 1 .583.219.736.736 0 0 1 .234.563c0 .22-.076.4-.228.537a.844.844 0 0 1-.588.205H52.17v2.253h3.023a.82.82 0 0 1 .582.219.736.736 0 0 1 .234.563c0 .221-.076.4-.228.537a.844.844 0 0 1-.588.205H52.17v2.452h3.625zm14.228-7.753c.214 0 .388.07.522.212.134.141.2.318.2.53v7.727a.794.794 0 0 1-.816.808c-.124 0-.247-.02-.367-.06a.52.52 0 0 1-.261-.165l-4.91-6.176v5.66c0 .211-.068.388-.207.53a.724.724 0 0 1-.541.211.686.686 0 0 1-.522-.212.741.741 0 0 1-.2-.53v-7.727a.794.794 0 0 1 .816-.808c.133 0 .265.027.394.08.13.053.225.123.287.212l4.87 6.15v-5.7c0-.212.069-.389.207-.53a.707.707 0 0 1 .528-.212zm12.798 7.753c.231 0 .425.078.581.232a.734.734 0 0 1 .235.537.7.7 0 0 1-.235.543.834.834 0 0 1-.581.212h-4.482a.794.794 0 0 1-.816-.808v-7.66a.794.794 0 0 1 .816-.808l4.482-.001a.82.82 0 0 1 .581.219.736.736 0 0 1 .235.563c0 .22-.076.4-.228.537a.844.844 0 0 1-.588.205h-3.626v2.253h3.024a.82.82 0 0 1 .582.219.736.736 0 0 1 .234.563c0 .221-.076.4-.228.537a.844.844 0 0 1-.588.205h-3.024v2.452h3.626zm14.469.226c.116.07.207.163.274.278a.68.68 0 0 1-.06.795c-.134.16-.339.239-.615.239a1.21 1.21 0 0 1-.589-.146c-.642-.362-.963-1.1-.963-2.213 0-.319-.105-.57-.315-.756-.21-.185-.51-.278-.902-.278h-2.502v2.57c0 .24-.065.434-.194.584a.646.646 0 0 1-.515.225c-.259 0-.484-.077-.675-.232a.713.713 0 0 1-.288-.576v-7.66a.794.794 0 0 1 .816-.808l3.853-.001c.463 0 .9.124 1.31.371.41.247.738.588.984 1.02.245.434.367.92.367 1.458 0 .442-.12.873-.36 1.293-.241.42-.554.753-.937 1 .562.39.87.91.923 1.564.027.142.04.279.04.411.036.274.071.47.107.59.036.12.116.21.24.272zm-2.742-3.446c.16 0 .316-.075.468-.226.151-.15.276-.35.374-.603.098-.251.148-.523.148-.815 0-.247-.05-.475-.148-.682a1.4 1.4 0 0 0-.374-.497.735.735 0 0 0-.468-.186h-2.93v3.009h2.93zm16.128-.265c.232 0 .423.077.575.232a.79.79 0 0 1 .227.576v2.81c0 .309-.138.548-.414.715a5.374 5.374 0 0 1-2.876.809 4.845 4.845 0 0 1-2.448-.643 4.838 4.838 0 0 1-1.78-1.736 4.567 4.567 0 0 1-.655-2.392c0-.866.218-1.664.655-2.393a4.838 4.838 0 0 1 1.78-1.736 4.845 4.845 0 0 1 2.448-.643c.882 0 1.65.177 2.3.53a.725.725 0 0 1 .401.65c0 .22-.073.413-.22.577a.7.7 0 0 1-.542.245c-.134 0-.28-.036-.441-.106a3.816 3.816 0 0 0-1.498-.305c-.571 0-1.097.143-1.579.43a3.184 3.184 0 0 0-1.144 1.16 3.122 3.122 0 0 0-.421 1.59 3.184 3.184 0 0 0 1.565 2.75c.482.288 1.008.431 1.579.431.25 0 .517-.022.802-.066.286-.044.535-.101.75-.172v-1.723h-1.258a.806.806 0 0 1-.582-.225.757.757 0 0 1-.234-.57c0-.23.078-.42.234-.57a.806.806 0 0 1 .582-.225h2.194zm13.626-3.486a.88.88 0 0 1-.147.49l-2.796 3.963v3.234a.79.79 0 0 1-.227.576.74.74 0 0 1-.549.232.778.778 0 0 1-.568-.232.779.779 0 0 1-.234-.576v-3.42l-2.783-3.657c-.16-.212-.24-.42-.24-.623 0-.23.091-.422.274-.577a.888.888 0 0 1 .582-.232c.25 0 .468.124.655.371l2.355 3.22 2.207-3.193c.187-.265.41-.398.669-.398.214 0 .4.08.561.239a.79.79 0 0 1 .241.583zm15.718 8.628c-.642 0-1.213-.08-1.712-.239a3.972 3.972 0 0 1-1.405-.808c-.24-.212-.361-.446-.361-.703 0-.203.076-.382.227-.536a.74.74 0 0 1 .549-.232c.17 0 .32.053.455.159.356.291.704.503 1.043.636.339.132.74.199 1.204.199.5 0 .93-.11 1.29-.332.362-.22.543-.494.543-.821 0-.398-.179-.71-.535-.935-.357-.225-.923-.395-1.7-.51-1.952-.283-2.929-1.184-2.929-2.704 0-.556.147-1.04.442-1.45.294-.412.695-.725 1.204-.942a4.294 4.294 0 0 1 1.698-.325c.562 0 1.09.084 1.586.252.494.168.907.389 1.237.663.259.203.388.437.388.702a.744.744 0 0 1-.228.537.725.725 0 0 1-.535.232.59.59 0 0 1-.36-.12c-.233-.185-.556-.355-.97-.51-.415-.154-.788-.231-1.118-.231-.561 0-.996.103-1.304.311-.308.208-.461.48-.461.815 0 .38.158.667.475.862.316.194.813.353 1.491.477.767.132 1.38.302 1.84.51.459.208.804.49 1.036.848.232.358.348.833.348 1.425 0 .557-.158 1.045-.475 1.464a3.05 3.05 0 0 1-1.264.968 4.27 4.27 0 0 1-1.699.338zm18.362-4.771c0 .874-.196 1.676-.589 2.405a4.483 4.483 0 0 1-1.625 1.73c-.691.424-1.47.636-2.334.636-.865 0-1.643-.212-2.334-.636-.692-.424-1.231-1-1.619-1.73a5.04 5.04 0 0 1-.582-2.405c0-.875.194-1.677.582-2.406a4.434 4.434 0 0 1 1.619-1.73c.69-.423 1.469-.636 2.334-.636s1.643.213 2.334.637c.691.424 1.233 1 1.625 1.73.393.728.589 1.53.589 2.405zm-1.739 0a3.55 3.55 0 0 0-.361-1.61 2.896 2.896 0 0 0-1.003-1.147 2.563 2.563 0 0 0-1.445-.424c-.544 0-1.028.139-1.452.417-.423.279-.753.66-.99 1.147a3.648 3.648 0 0 0-.354 1.617c0 .592.118 1.13.355 1.617.236.486.566.868.99 1.146.423.278.907.417 1.45.417.536 0 1.017-.14 1.446-.424a2.896 2.896 0 0 0 1.003-1.146 3.55 3.55 0 0 0 .361-1.61zm13.212 3.088a.82.82 0 0 1 .582.218.736.736 0 0 1 .234.564.72.72 0 0 1-.234.55.82.82 0 0 1-.582.218h-4.348a.794.794 0 0 1-.816-.808v-7.66c0-.23.08-.422.241-.577a.85.85 0 0 1 .616-.232.8.8 0 0 1 .575.232c.16.155.24.347.24.576v6.919h3.492zm13.506-7.74a.74.74 0 0 1 .562.225c.143.15.214.345.214.583v4.798c0 .733-.156 1.383-.468 1.948a3.361 3.361 0 0 1-1.311 1.326c-.562.318-1.204.477-1.927.477-.722 0-1.366-.16-1.932-.477a3.349 3.349 0 0 1-1.318-1.326c-.312-.565-.468-1.215-.468-1.948v-4.798c0-.23.08-.422.24-.576a.85.85 0 0 1 .616-.232c.214 0 .401.077.562.232.16.154.24.346.24.576v4.798c0 .424.094.802.281 1.133.188.331.44.585.756.762.317.177.658.265 1.023.265a2.27 2.27 0 0 0 1.077-.265c.335-.177.602-.43.803-.762.2-.331.3-.709.3-1.133v-4.798c0-.238.068-.433.202-.583.133-.15.316-.225.548-.225zm13.707.013c.24 0 .437.07.588.212a.726.726 0 0 1 .228.557c0 .23-.076.413-.228.55a.844.844 0 0 1-.588.205h-2.1v6.945c0 .23-.085.422-.254.576a.898.898 0 0 1-.63.232.85.85 0 0 1-.615-.232.768.768 0 0 1-.24-.576V35.54h-2.1a.829.829 0 0 1-.59-.212.726.726 0 0 1-.226-.557.7.7 0 0 1 .234-.543.834.834 0 0 1 .582-.212h5.939zm8.664 8.469c0 .23-.085.422-.255.576a.847.847 0 0 1-.588.232.81.81 0 0 1-.595-.232.779.779 0 0 1-.235-.576v-7.66c0-.23.08-.422.241-.577a.85.85 0 0 1 .616-.232.8.8 0 0 1 .575.232c.16.155.24.347.24.576v7.66zm15.392-3.83c0 .874-.196 1.676-.589 2.405a4.483 4.483 0 0 1-1.625 1.73c-.691.424-1.47.636-2.334.636-.865 0-1.643-.212-2.335-.636-.69-.424-1.23-1-1.618-1.73a5.04 5.04 0 0 1-.582-2.405c0-.875.194-1.677.582-2.406a4.434 4.434 0 0 1 1.618-1.73c.692-.423 1.47-.636 2.335-.636s1.643.213 2.334.637c.691.424 1.233 1 1.625 1.73.393.728.589 1.53.589 2.405zm-1.74 0a3.55 3.55 0 0 0-.36-1.61 2.896 2.896 0 0 0-1.004-1.147 2.563 2.563 0 0 0-1.444-.424c-.544 0-1.028.139-1.452.417-.423.279-.753.66-.99 1.147a3.648 3.648 0 0 0-.354 1.617c0 .592.118 1.13.354 1.617.237.486.567.868.99 1.146.424.278.908.417 1.452.417.535 0 1.016-.14 1.444-.424a2.896 2.896 0 0 0 1.004-1.146 3.55 3.55 0 0 0 .36-1.61zm15.152-4.639c.214 0 .388.07.522.212.134.141.2.318.2.53v7.727a.794.794 0 0 1-.816.808c-.124 0-.247-.02-.367-.06a.52.52 0 0 1-.26-.165l-4.91-6.176v5.66c0 .211-.07.388-.208.53a.724.724 0 0 1-.541.211.686.686 0 0 1-.522-.212.741.741 0 0 1-.2-.53v-7.727a.794.794 0 0 1 .816-.808c.133 0 .265.027.394.08.13.053.225.123.288.212l4.869 6.15v-5.7c0-.212.069-.389.207-.53a.707.707 0 0 1 .528-.212zm10.51 9.41c-.642 0-1.213-.08-1.712-.239a3.972 3.972 0 0 1-1.405-.808c-.24-.212-.36-.446-.36-.703 0-.203.075-.382.227-.536a.74.74 0 0 1 .548-.232c.17 0 .321.053.455.159.357.291.704.503 1.043.636.34.132.74.199 1.204.199.5 0 .93-.11 1.291-.332.361-.22.542-.494.542-.821 0-.398-.179-.71-.535-.935-.357-.225-.923-.395-1.7-.51-1.952-.283-2.929-1.184-2.929-2.704 0-.556.147-1.04.442-1.45.294-.412.695-.725 1.204-.942a4.294 4.294 0 0 1 1.699-.325c.561 0 1.09.084 1.585.252.495.168.907.389 1.237.663.259.203.388.437.388.702a.744.744 0 0 1-.227.537.725.725 0 0 1-.535.232.59.59 0 0 1-.362-.12c-.232-.185-.555-.355-.97-.51-.414-.154-.786-.231-1.116-.231-.562 0-.997.103-1.305.311-.307.208-.461.48-.461.815 0 .38.158.667.475.862.316.194.813.353 1.491.477.767.132 1.38.302 1.84.51.459.208.804.49 1.036.848.232.358.348.833.348 1.425 0 .557-.158 1.045-.475 1.464a3.05 3.05 0 0 1-1.264.968 4.27 4.27 0 0 1-1.699.338z"/>
    </g>
</svg>
