<svg xmlns="http://www.w3.org/2000/svg" xmlns:xlink="http://www.w3.org/1999/xlink" width="200" height="148" viewBox="0 0 200 148">
    <defs>
        <path id="a" d="M0 .209h20.828V31.67H0z"/>
    </defs>
    <g fill="none" fill-rule="evenodd">
        <g fill="#506676" opacity=".7">
            <path d="M6.651 139.757a.705.705 0 0 1 .202.521v6.856a.69.69 0 0 1-.214.516.754.754 0 0 1-.547.207.71.71 0 0 1-.51-.207.69.69 0 0 1-.215-.516v-2.764H1.576v2.764a.674.674 0 0 1-.226.516.75.75 0 0 1-.523.207.717.717 0 0 1-.529-.207.7.7 0 0 1-.208-.516v-6.856c0-.205.071-.377.214-.515a.752.752 0 0 1 .547-.208c.197 0 .368.069.51.208.143.138.215.31.215.515v2.728h3.791v-2.728c0-.205.076-.377.226-.515a.748.748 0 0 1 .523-.208c.222 0 .4.067.535.202M19.09 146.701a.66.66 0 0 1 .208.48c0 .198-.07.36-.208.486a.737.737 0 0 1-.517.19h-3.982a.703.703 0 0 1-.517-.207.699.699 0 0 1-.208-.516v-6.856c0-.205.069-.377.208-.515a.7.7 0 0 1 .517-.208h3.982c.206 0 .378.065.517.195.138.13.208.3.208.505a.62.62 0 0 1-.202.48.747.747 0 0 1-.523.184h-3.221v2.016h2.686c.206 0 .379.065.517.196.139.13.208.298.208.504a.619.619 0 0 1-.202.48.746.746 0 0 1-.523.184h-2.686v2.195h3.221c.206 0 .378.068.517.207M27.583 144.631h2.377l-1.2-2.775-1.177 2.775zm4.897 2.586a.671.671 0 0 1-.202.504.648.648 0 0 1-.464.196.628.628 0 0 1-.386-.13.845.845 0 0 1-.267-.357l-.619-1.435H27l-.618 1.447a.731.731 0 0 1-.256.35.626.626 0 0 1-.374.125c-.206 0-.362-.055-.47-.166a.621.621 0 0 1-.16-.451c0-.071.012-.146.036-.225l2.96-7.094a.784.784 0 0 1 .285-.367.627.627 0 0 1 .428-.107c.142 0 .275.042.398.125.123.083.212.2.267.35l2.925 6.95c.04.103.059.198.059.285zM44.116 139.744a.652.652 0 0 1 .203.5c0 .204-.068.369-.203.491a.746.746 0 0 1-.523.184h-1.866v6.215a.672.672 0 0 1-.226.516.794.794 0 0 1-.558.207.751.751 0 0 1-.547-.207.689.689 0 0 1-.214-.516v-6.215h-1.866a.731.731 0 0 1-.523-.19.65.65 0 0 1-.202-.498c0-.197.07-.36.208-.487a.739.739 0 0 1 .517-.189h5.277c.214 0 .389.063.523.19M52.057 147.65a.749.749 0 0 1-.523.207.716.716 0 0 1-.53-.207.7.7 0 0 1-.207-.516v-6.856a.69.69 0 0 1 .214-.515.753.753 0 0 1 .546-.208.71.71 0 0 1 .512.208.69.69 0 0 1 .213.515v6.856a.674.674 0 0 1-.225.516M66.07 139.744a.668.668 0 0 1 .179.475v6.915a.7.7 0 0 1-.209.516.7.7 0 0 1-.516.207c-.111 0-.22-.017-.327-.053a.465.465 0 0 1-.232-.148l-4.362-5.528v5.065a.639.639 0 0 1-.666.664.606.606 0 0 1-.463-.19.665.665 0 0 1-.179-.474v-6.915a.7.7 0 0 1 .208-.516.704.704 0 0 1 .517-.207c.12 0 .236.024.351.071.115.047.2.11.256.19l4.326 5.503v-5.1c0-.19.062-.348.184-.475a.627.627 0 0 1 .47-.189c.19 0 .345.063.463.19M79.906 143.582a.71.71 0 0 1 .202.515v2.515c0 .277-.123.49-.369.64a4.747 4.747 0 0 1-2.555.724 4.28 4.28 0 0 1-2.175-.576 4.312 4.312 0 0 1-1.581-1.553 4.106 4.106 0 0 1-.583-2.14c0-.776.194-1.49.583-2.141a4.311 4.311 0 0 1 1.58-1.555 4.285 4.285 0 0 1 2.176-.575c.784 0 1.466.159 2.044.475a.66.66 0 0 1 .268.249.657.657 0 0 1 .089.332c0 .198-.066.37-.196.516a.622.622 0 0 1-.482.22.974.974 0 0 1-.392-.096 3.368 3.368 0 0 0-1.331-.272c-.508 0-.975.128-1.403.385a2.844 2.844 0 0 0-1.016 1.038c-.25.435-.374.909-.374 1.423s.124.989.374 1.423c.25.436.588.782 1.016 1.038.428.257.895.386 1.403.386.222 0 .46-.02.713-.06.254-.04.476-.09.666-.154v-1.542h-1.118a.713.713 0 0 1-.517-.201.68.68 0 0 1-.208-.51.68.68 0 0 1 .208-.51.715.715 0 0 1 .517-.202h1.95c.206 0 .376.07.51.208M99.566 146.019a23.012 23.012 0 0 1-1.973-1.969l-.214-.25c-.428.128-.725.301-.892.523-.166.221-.25.502-.25.842 0 .403.15.75.446 1.037.298.29.763.433 1.397.433.562 0 1.058-.205 1.486-.616zm2.853.783l.07.142a.734.734 0 0 1 .072.332c0 .135-.052.27-.154.404a.51.51 0 0 1-.428.2c-.174 0-.31-.038-.404-.117l-.654-.558-.38-.332c-.737.735-1.669 1.103-2.794 1.103-.547 0-1.048-.12-1.504-.362a2.799 2.799 0 0 1-1.07-.961 2.31 2.31 0 0 1-.386-1.274c0-1.17.583-2.013 1.748-2.527a2.912 2.912 0 0 1-.345-.593 1.546 1.546 0 0 1-.119-.605c0-.395.107-.76.321-1.097.214-.336.517-.607.91-.813.391-.205.845-.308 1.36-.308.547 0 1.04.093 1.48.279.44.186.735.425.886.717.071.143.107.297.107.463 0 .158-.058.29-.172.398a.63.63 0 0 1-.446.16c-.207 0-.361-.071-.464-.214a1.426 1.426 0 0 0-.588-.474 2.055 2.055 0 0 0-.803-.143c-.34 0-.608.091-.802.273a.903.903 0 0 0-.291.688c0 .254.097.508.291.765.194.257.461.551.802.884l.333.332c.254.276.702.72 1.343 1.328.159-.356.27-.747.333-1.174a.423.423 0 0 1 .155-.302c.087-.067.226-.101.416-.101a.57.57 0 0 1 .451.207.748.748 0 0 1 .179.505l-.012.118a5.176 5.176 0 0 1-.535 1.66c.317.277.626.558.927.843l.167.154zM123.73 140.563a.8.8 0 0 1-.177.486.587.587 0 0 1-.488.25.863.863 0 0 1-.404-.107 2.93 2.93 0 0 0-1.26-.273c-.555 0-1.038.117-1.45.35-.412.233-.73.561-.95.984-.223.424-.334.907-.334 1.453 0 .933.251 1.64.755 2.123.503.483 1.163.723 1.98.723.482 0 .902-.09 1.259-.272a.955.955 0 0 1 .38-.095c.206 0 .38.087.523.26.12.151.179.314.179.487a.622.622 0 0 1-.368.581 4.368 4.368 0 0 1-1.974.463c-.777 0-1.49-.164-2.14-.492a3.791 3.791 0 0 1-1.557-1.453c-.388-.641-.582-1.416-.582-2.325 0-.807.184-1.53.552-2.17.37-.64.878-1.14 1.528-1.5.65-.36 1.383-.54 2.2-.54.704 0 1.358.154 1.96.462a.636.636 0 0 1 .369.605M136.009 142.265a2.589 2.589 0 0 0-.891-1.026 2.269 2.269 0 0 0-1.284-.38c-.483 0-.913.125-1.29.374-.376.25-.67.592-.88 1.026-.21.435-.314.918-.314 1.447 0 .53.104 1.013.315 1.447.21.435.503.777.88 1.026.376.249.806.373 1.289.373.475 0 .903-.126 1.284-.379.38-.253.677-.595.891-1.026.214-.43.32-.911.32-1.44 0-.53-.106-1.011-.32-1.442m1.343 3.594a4.006 4.006 0 0 1-1.444 1.548c-.614.38-1.306.57-2.074.57-.769 0-1.46-.19-2.074-.57a3.958 3.958 0 0 1-1.438-1.548 4.537 4.537 0 0 1-.518-2.153c0-.783.173-1.5.518-2.153a3.95 3.95 0 0 1 1.438-1.547 3.864 3.864 0 0 1 2.074-.57c.768 0 1.46.19 2.074.57a3.998 3.998 0 0 1 1.444 1.547c.349.653.523 1.37.523 2.153 0 .783-.174 1.5-.523 2.153M150.26 142.265a2.589 2.589 0 0 0-.89-1.026 2.269 2.269 0 0 0-1.284-.38c-.484 0-.914.125-1.29.374-.377.25-.67.592-.88 1.026-.21.435-.315.918-.315 1.447 0 .53.105 1.013.316 1.447.21.435.502.777.88 1.026.375.249.805.373 1.289.373.475 0 .903-.126 1.283-.379.38-.253.678-.595.892-1.026.214-.43.32-.911.32-1.44 0-.53-.106-1.011-.32-1.442m1.343 3.594a4.006 4.006 0 0 1-1.444 1.548c-.615.38-1.306.57-2.074.57-.769 0-1.46-.19-2.074-.57a3.958 3.958 0 0 1-1.439-1.548 4.537 4.537 0 0 1-.517-2.153c0-.783.173-1.5.517-2.153a3.95 3.95 0 0 1 1.439-1.547 3.864 3.864 0 0 1 2.074-.57c.768 0 1.46.19 2.074.57a3.998 3.998 0 0 1 1.444 1.547c.349.653.523 1.37.523 2.153 0 .783-.174 1.5-.523 2.153M163.829 146.665c.138.13.208.299.208.505 0 .197-.07.361-.208.492a.726.726 0 0 1-.517.196h-3.863a.7.7 0 0 1-.517-.208.697.697 0 0 1-.208-.516v-6.856c0-.205.07-.377.214-.516a.752.752 0 0 1 .546-.207.71.71 0 0 1 .512.207c.142.14.214.31.214.516v6.191h3.102c.206 0 .378.066.517.196M171.894 147.65a.749.749 0 0 1-.523.207.716.716 0 0 1-.53-.207.7.7 0 0 1-.207-.516v-6.856a.69.69 0 0 1 .214-.515.753.753 0 0 1 .547-.208.71.71 0 0 1 .51.208.69.69 0 0 1 .215.515v6.856a.674.674 0 0 1-.226.516M185.908 139.744a.668.668 0 0 1 .178.475v6.915a.7.7 0 0 1-.208.516.7.7 0 0 1-.517.207c-.111 0-.22-.017-.327-.053a.465.465 0 0 1-.232-.148l-4.362-5.528v5.065a.639.639 0 0 1-.666.664.606.606 0 0 1-.463-.19.665.665 0 0 1-.179-.474v-6.915a.7.7 0 0 1 .208-.516.704.704 0 0 1 .517-.207c.12 0 .236.024.351.071.115.047.2.11.256.19l4.326 5.503v-5.1c0-.19.062-.348.184-.475a.627.627 0 0 1 .47-.189c.19 0 .345.063.464.19M199.743 143.582a.71.71 0 0 1 .202.515v2.515c0 .277-.123.49-.368.64a4.747 4.747 0 0 1-2.556.724 4.28 4.28 0 0 1-2.175-.576 4.312 4.312 0 0 1-1.581-1.553 4.106 4.106 0 0 1-.583-2.14c0-.776.194-1.49.583-2.141a4.311 4.311 0 0 1 1.58-1.555 4.285 4.285 0 0 1 2.176-.575c.784 0 1.466.159 2.044.475a.66.66 0 0 1 .268.249.657.657 0 0 1 .089.332c0 .198-.066.37-.196.516a.622.622 0 0 1-.482.22.974.974 0 0 1-.392-.096 3.368 3.368 0 0 0-1.331-.272c-.508 0-.975.128-1.403.385a2.844 2.844 0 0 0-1.016 1.038c-.25.435-.374.909-.374 1.423s.124.989.374 1.423c.25.436.588.782 1.016 1.038.428.257.895.386 1.403.386.222 0 .46-.02.713-.06.254-.04.476-.09.666-.154v-1.542h-1.118a.713.713 0 0 1-.517-.201.68.68 0 0 1-.208-.51.68.68 0 0 1 .208-.51.715.715 0 0 1 .517-.202h1.95c.206 0 .376.07.51.208"/>
        </g>
        <path fill="#37C4E9" d="M143.038 108.123c-.725 1.716-1.406 3.333-2.091 4.949-2.198 5.182-4.395 10.365-6.6 15.545-.586 1.375-1.627 1.992-2.881 1.747-1.317-.258-2.027-1.405-1.686-2.781.219-.883.647-1.692.993-2.527 3.274-7.887 6.556-15.77 9.84-23.652.794-1.908 2.617-2.523 4.182-1.425.484.341.77.82.992 1.35 2.168 5.175 4.335 10.351 6.504 15.526 1.352 3.223 2.705 6.445 4.06 9.666.532 1.266.371 2.4-.461 3.195-1.216 1.161-3.041.848-3.848-.727-.568-1.107-1.019-2.275-1.518-3.418-.25-.571-.514-1.137-.725-1.724-.137-.382-.344-.502-.75-.5-2.968.018-6.468.01-9.437.009-.625 0-.628-.004-.387-.562.57-1.317 1.164-2.624 1.703-3.956.174-.432.41-.542.846-.535 1.531.026 3.595.006 5.127.012.325.002.517-.03.34-.44-1.39-3.207-2.768-6.417-4.203-9.752"/>
        <path fill="#425563" d="M94.653 125.467v-23.994c0-.228-.007-.455.01-.682a1.188 1.188 0 0 1 1.214-1.103c.634.005 1.119.443 1.18 1.073.017.17.01.34.01.51l.001 27.197v.284c-.016.768-.296 1.196-.918 1.4-.588.192-1.217-.031-1.637-.597-1.726-2.322-3.449-4.647-5.172-6.972l-13.044-17.589c-.066-.09-.141-.17-.32-.384v.714c0 7.798-.002 15.595.003 23.393 0 .447-.021.866-.406 1.181-.385.317-.799.415-1.265.227-.465-.188-.714-.54-.743-1.042-.006-.114-.004-.227-.004-.34 0-9.16.002-18.32-.005-27.48 0-.607.091-1.139.686-1.439.62-.311 1.272-.115 1.773.556 1.233 1.65 2.454 3.311 3.681 4.967l14.627 19.734c.074.1.162.191.329.386"/>
        <g transform="translate(0 98.987)">
            <mask id="b" fill="#fff">
                <use xlink:href="#a"/>
            </mask>
            <path fill="#425563" d="M10.7 31.668c-4.065.076-7.409-1.539-10.23-4.37-.63-.63-.622-1.406-.006-2 .575-.555 1.294-.545 1.9.105 1.73 1.859 3.801 3.096 6.323 3.504 2.246.365 4.436.24 6.522-.799 3.721-1.855 3.763-6.541.535-8.713-1.574-1.06-3.342-1.66-5.115-2.252-1.844-.617-3.71-1.17-5.41-2.151-2.842-1.644-4.226-4.084-3.967-7.384.235-2.995 1.887-5.076 4.55-6.207C10.262-.492 14.608-.16 18.67 2.61a5.428 5.428 0 0 1 1.578 1.69c.384.638.255 1.232-.344 1.694-.546.421-1.201.388-1.678-.133C15.511 2.896 10.882 2.113 7.3 3.526 4.55 4.608 3.339 7.056 4.184 9.78c.317 1.022.986 1.773 1.863 2.351 1.786 1.18 3.779 1.882 5.802 2.513 1.75.547 3.5 1.098 5.09 2.036 2.997 1.766 4.146 4.354 3.841 7.627-.347 3.728-2.813 5.685-6.118 6.803-1.28.433-2.616.568-3.961.557" mask="url(#b)"/>
        </g>
        <path fill="#425563" d="M61.656 114.97v-13.625c0-.905.272-1.358.925-1.573.875-.288 1.713.23 1.837 1.145.027.205.017.416.017.623 0 8.93 0 17.861.002 26.793 0 .302.004.605-.091.898-.215.657-.794 1.043-1.48.981-.674-.06-1.112-.502-1.195-1.223-.025-.206-.015-.416-.015-.623v-13.397M124.242 127.637c-.17-.015-.34-.007-.51-.007-4.482 0-8.963-.006-13.444.01-.473.003-.64-.082-.64-.608.01-3.746.001-7.491.002-11.236l11.462-.008c.838-.005 1.376-.512 1.376-1.257 0-.759-.525-1.32-1.327-1.323l-11.51-.012c-.002-3.45.006-6.9 0-10.35 0-.492.15-.582.605-.58 4.5.016 9 .01 13.5.01.208 0 .418.012.623-.014.839-.104 1.318-.85 1.075-1.65-.194-.638-.657-.927-1.507-.927-5.123-.002-10.248-.002-15.371 0-1.243 0-1.65.413-1.65 1.678v13.569c0 4.599-.002 9.197.002 13.796 0 .967.443 1.484 1.316 1.485 5.313.01 10.626.01 15.94.002.799-.001 1.334-.52 1.34-1.24.008-.694-.544-1.274-1.282-1.338M31.418 101.267c-.002-.854-.41-1.41-1.116-1.555-.975-.199-1.659.49-1.66 1.686 0 9.027 0 18.054.002 27.082 0 .226.013.455.054.676.116.635.577 1.03 1.215 1.059.902.042 1.504-.614 1.505-1.665v-27.283zM53.688 100.998c-.088-.793-.643-1.29-1.445-1.305-.784-.016-1.449.528-1.548 1.284a6.52 6.52 0 0 0-.046.84c-.003 3.914-.006 5.975.005 9.89.002.408-.059.608-.567.606-5.17-.013-10.926-.01-16.096-.003a.394.394 0 0 0-.4.387v1.844c0 .26.218.472.488.473 5.085.013 10.757.014 15.842-.008.635-.002.741.199.739.752-.023 4.135-.014 8.27-.01 12.404 0 .251.004.505.036.754.103.785.85 1.38 1.667 1.293.828-.089 1.345-.749 1.345-1.74.002-4.817.002-9.635.002-14.452V101.6c0-.201.01-.403-.012-.602"/>
        <path fill="#37C4E9" d="M164.712 130.207a2.714 2.714 0 0 1-2.717-2.71v-25.103a2.713 2.713 0 0 1 2.717-2.71c1.5 0 2.716 1.213 2.716 2.71v25.103a2.714 2.714 0 0 1-2.716 2.71M174.544 102.624c-.038-2.122 1.396-3.1 3.076-3.077 3.932.054 7.866.063 11.797.006 4.713-.07 8.324 3.618 8.895 7.857.49 3.644-.873 6.496-3.668 8.754-.217.176-.527.285-.1.601 1.854 1.377 2.599 3.312 2.75 5.546.045.658.15 1.314.234 1.97.08.63.367 1.124.892 1.512.703.516 1.26 1.142 1.255 2.103-.006 1.18-.826 2.083-2.005 2.206-1.708.178-3.013-.527-4.021-1.85-.95-1.244-1.31-2.706-1.463-4.23-.06-.6-.076-1.207-.1-1.812-.065-1.67-1.086-2.84-2.74-3.12a8.108 8.108 0 0 0-1.41-.119c-1.606.01-3.745-.007-5.352.012-.364.003-.487-.091-.48-.47a83.334 83.334 0 0 0-.001-3.577c-.01-.393.133-.472.487-.47 1.985.013 4.503-.026 6.487.02.985.022 1.698-.358 2.296-1.097 1.5-1.852 1.82-4.938.692-6.95-.692-1.234-1.678-1.908-3.167-1.88-2.76.053-5.52.03-8.28.003-.517-.006-.62.154-.618.639.014 7.248.01 14.495.009 21.742 0 .283-.004.569-.041.849-.257 1.947-1.769 2.813-3.588 2.063-1.268-.522-1.815-1.33-1.815-2.708-.002-4.125 0-8.25 0-12.375 0-4.05.05-8.1-.021-12.148M98.396 25.6a.927.927 0 0 0-.603-.867L70.576 14.549a2.081 2.081 0 0 0-2.477.825c-.209.318-.32.726-.32 1.178v7.21c.011 11.1 8.728 20.099 19.844 20.487l.54.019h9.17c.582 0 1.054-.471 1.054-1.052V41.19c0-.581-.472-1.052-1.055-1.052H88.34c-9.046-.005-16.413-7.352-16.421-16.378V19.96c0-.24.242-.408.468-.323l25.063 9.378a.7.7 0 0 0 .946-.654v-2.761zM110.608 59.66l27.25 10.196a2.078 2.078 0 0 0 2.477-.825c.21-.318.32-.725.32-1.178v-6.97c0-11.186-8.887-20.358-20.09-20.735l-.291-.01h-9.361a.85.85 0 0 0-.85.848v2.434c0 .468.38.848.85.848h8.944c9.2 0 16.659 7.442 16.659 16.623v3.697c0 .172-.173.29-.334.23l-25.29-9.463a.625.625 0 0 0-.58.072.622.622 0 0 0-.273.517v2.895c0 .365.226.692.569.82"/>
        <path fill="#37C4E9" d="M117.864 36.395l3.19-.001a.642.642 0 0 0 .6-.416l10.277-27.344a2.04 2.04 0 0 0 .132-.725c0-.62-.279-1.206-.766-1.606-.36-.296-.87-.459-1.436-.459h-7.154c-11.138 0-20.161 8.697-20.541 19.8l-.018.53V57.79c0 9.19-7.467 16.641-16.678 16.641h-3.146a.62.62 0 0 1-.582-.835l9.335-24.84a.544.544 0 0 0-.064-.508.547.547 0 0 0-.454-.237l-2.796.003c-.493 0-.935.307-1.109.768l-10.15 26.99c-.374.995.059 2.085 1.03 2.59.253.132.577.2.962.2h7.083c11.16 0 20.313-8.827 20.695-19.957l.013-.373V26.616c0-9.19 7.467-16.642 16.678-16.642h3.147a.62.62 0 0 1 .582.835l-9.343 24.847a.547.547 0 0 0 .513.739"/>
        <path fill="#435664" d="M96.748 80.032a24.783 24.783 0 0 1-3.946 1.579c-.602.182-.602 1.04.004 1.21a42.135 42.135 0 0 0 11.451 1.584c10.95 0 20.934-4.181 28.453-11.02a.688.688 0 0 0-.23-1.15l-2.58-.965a1.32 1.32 0 0 0-1.306.226c-6.61 5.478-15.092 8.783-24.337 8.783-2.047 0-4.055-.17-6.016-.483a2.452 2.452 0 0 0-1.493.236M142.128 49.696a24.592 24.592 0 0 1 1.582 3.938c.183.6 1.042.6 1.213-.004a41.881 41.881 0 0 0 1.587-11.427c0-10.927-4.19-20.889-11.042-28.391a.692.692 0 0 0-1.154.229l-.968 2.576c-.166.443-.076.938.227 1.302 5.49 6.596 8.803 15.059 8.803 24.284 0 2.043-.171 4.046-.485 6.003-.082.51.003 1.028.237 1.49M111.685 4.373a24.708 24.708 0 0 1 3.946-1.578c.603-.183.602-1.04-.004-1.211A42.14 42.14 0 0 0 104.175 0c-10.95 0-20.933 4.182-28.451 11.02a.688.688 0 0 0 .23 1.15l2.58.965c.444.167.94.077 1.305-.226 6.61-5.478 15.092-8.783 24.336-8.783 2.049 0 4.056.17 6.016.484a2.454 2.454 0 0 0 1.494-.237M66.305 34.71a24.617 24.617 0 0 1-1.582-3.939c-.182-.601-1.042-.6-1.213.005a41.875 41.875 0 0 0-1.587 11.426c0 10.927 4.19 20.889 11.043 28.391a.691.691 0 0 0 1.153-.229l.968-2.576a1.312 1.312 0 0 0-.227-1.302c-5.49-6.596-8.803-15.059-8.803-24.284 0-2.043.171-4.046.485-6.002a2.435 2.435 0 0 0-.237-1.49"/>
    </g>
</svg>
