<svg xmlns="http://www.w3.org/2000/svg" xmlns:xlink="http://www.w3.org/1999/xlink" width="300" height="48" viewBox="0 0 300 48">
    <defs>
        <path id="a" d="M.085.026h22.424V27.14H.085z"/>
        <path id="c" d="M.006.047h7.16v1.9H.006z"/>
        <path id="e" d="M0 0h7.16V1.9H0z"/>
    </defs>
    <g fill="none" fill-rule="evenodd">
        <path fill="#FF6900" d="M218.325 23.968c.006-1.85-.408-3.588-1.328-5.202-2.938-5.155-9.98-5.488-13.275-.626-2.245 3.312-2.248 8.35-.007 11.667 2.803 4.149 8.504 4.677 11.994 1.087 1.87-1.924 2.597-4.299 2.616-6.926m5.058.036c-.072 4.256-1.496 7.936-4.753 10.797-2.03 1.784-4.418 2.76-7.123 3.029-7.619.757-13.463-4.688-14.363-11.688-.522-4.063.268-7.823 2.794-11.106 2.29-2.976 5.356-4.61 9.132-4.923 7.245-.598 12.748 4.41 14.007 10.792.202 1.023.318 2.053.306 3.1"/>
        <g transform="translate(277.087 10.4)">
            <mask id="b" fill="#fff">
                <use xlink:href="#a"/>
            </mask>
            <path fill="#FF6900" d="M.086 2.754C.052.873 1.33.006 2.83.027 6.339.074 9.848.082 13.356.03c4.205-.061 7.427 3.208 7.936 6.966.438 3.231-.779 5.76-3.272 7.762-.194.155-.47.252-.09.533 1.655 1.22 2.319 2.936 2.454 4.917.04.583.134 1.164.209 1.745.07.56.327.998.796 1.341.627.459 1.124 1.013 1.12 1.865-.006 1.047-.738 1.847-1.79 1.956-1.524.157-2.688-.467-3.587-1.64-.847-1.103-1.168-2.4-1.305-3.75-.054-.533-.069-1.07-.09-1.607-.058-1.48-.968-2.517-2.444-2.767a7.267 7.267 0 0 0-1.258-.104c-1.434.008-3.342-.006-4.776.01-.325.003-.435-.081-.428-.417a73.469 73.469 0 0 0-.001-3.17c-.008-.35.118-.42.435-.418 1.77.012 4.018-.023 5.788.018.878.02 1.514-.317 2.048-.972 1.34-1.642 1.624-4.379.617-6.162-.617-1.094-1.497-1.692-2.825-1.667-2.462.047-4.925.026-7.388.002-.461-.004-.552.137-.551.567.013 6.426.01 12.851.008 19.276 0 .251-.004.505-.037.753-.23 1.726-1.578 2.494-3.201 1.83-1.132-.463-1.619-1.18-1.62-2.402V13.524c0-3.59.046-7.18-.018-10.77z" mask="url(#b)"/>
        </g>
        <path fill="#FF6900" d="M182.716 37.906c-2.506-.073-4.98-.466-7.185-1.881-.71-.456-1.406-.936-1.962-1.575-1.224-1.406-.646-3.425 1.09-3.834.702-.166 1.331.011 1.892.458 1.06.843 2.175 1.609 3.497 1.968 2.061.56 4.122.65 6.13-.252.274-.124.535-.283.789-.446 2.074-1.321 1.54-3.78.05-4.81-1.12-.775-2.402-1.115-3.706-1.394-1.332-.284-2.696-.41-4.005-.811-1.737-.532-3.312-1.315-4.497-2.745-2.108-2.547-2.416-8.035 1.857-10.799 1.443-.933 3.037-1.448 4.731-1.63 2.793-.298 5.476.112 8 1.381.846.426 1.648.928 2.302 1.618.653.69.882 1.522.518 2.414-.347.85-.996 1.378-1.96 1.44-.459.03-.848-.129-1.223-.386-2.1-1.435-4.387-2.266-6.974-2.063-1.213.096-2.368.38-3.28 1.257-1.3 1.246-1.132 3.364.36 4.374 1.211.82 2.615 1.137 4.022 1.411 1.935.376 3.87.74 5.69 1.532 2.726 1.186 4.017 3.274 4.147 6.222.179 4.048-2.539 6.631-5.527 7.75-1.518.568-3.087.815-4.756.801M260.828 17.949c-.647 1.522-1.255 2.955-1.866 4.387-1.962 4.595-3.922 9.19-5.89 13.783-.521 1.219-1.45 1.766-2.569 1.548-1.175-.228-1.81-1.244-1.505-2.465.196-.782.578-1.5.887-2.24 2.92-6.993 5.85-13.981 8.779-20.97.708-1.692 2.335-2.236 3.73-1.263.434.302.689.727.887 1.197 1.934 4.588 3.867 9.177 5.803 13.764 1.205 2.858 2.413 5.715 3.622 8.57.475 1.123.332 2.128-.412 2.833-1.084 1.03-2.713.752-3.433-.644-.507-.982-.909-2.018-1.354-3.03-.223-.507-.459-1.009-.647-1.529-.122-.339-.307-.446-.669-.443-2.648.015-5.771.009-8.42.008-.557 0-.56-.004-.345-.498.508-1.169 1.039-2.328 1.519-3.508.156-.383.365-.48.755-.475 1.366.023 3.208.006 4.574.011.29.002.462-.027.304-.39-1.24-2.843-2.47-5.69-3.75-8.646M228.342 23.956c0-3.69.022-7.381-.01-11.071-.015-1.819 1.718-2.761 3.16-2.338 1 .294 1.65 1.168 1.706 2.304.008.168.002.336.002.504 0 6.34.007 12.68-.013 19.02-.002.528.15.626.644.622 3.136-.023 6.273-.016 9.41-.01 1.13.004 2.001.564 2.32 1.457.524 1.464-.422 2.923-1.982 3.056-.168.014-.337.012-.506.012-4.03.001-8.061-.031-12.092.018-1.49.017-2.684-.96-2.657-2.655.057-3.639.017-7.28.018-10.92"/>
        <path fill="#425563" d="M139.668 33.3V12.025c0-.201-.006-.403.01-.604a1.059 1.059 0 0 1 1.083-.978c.565.005.998.393 1.052.952.015.15.01.302.01.452v24.364c-.014.68-.264 1.06-.819 1.241-.525.17-1.085-.027-1.46-.53-1.54-2.058-3.078-4.12-4.615-6.18L123.29 15.15c-.06-.08-.127-.152-.286-.341v.634c0 6.913-.001 13.826.003 20.739 0 .397-.02.768-.362 1.047-.344.282-.713.369-1.129.201-.415-.166-.637-.477-.663-.924-.005-.1-.004-.2-.004-.302 0-8.12.003-16.242-.004-24.363 0-.538.081-1.01.612-1.275.553-.276 1.135-.102 1.581.492 1.101 1.464 2.19 2.937 3.285 4.404l13.05 17.497c.067.089.145.169.294.341M64.764 37.899c-3.627.068-6.611-1.364-9.128-3.874-.562-.56-.555-1.247-.005-1.774.512-.492 1.154-.483 1.694.094 1.545 1.648 3.392 2.744 5.642 3.107 2.004.323 3.958.212 5.82-.71 3.32-1.644 3.357-5.799.477-7.724-1.404-.94-2.982-1.471-4.564-1.997-1.645-.547-3.311-1.036-4.826-1.907-2.537-1.457-3.771-3.621-3.54-6.546.21-2.656 1.683-4.5 4.06-5.504 3.979-1.678 7.856-1.384 11.48 1.073a4.82 4.82 0 0 1 1.408 1.498c.342.565.227 1.092-.307 1.502-.487.373-1.072.343-1.498-.118-2.421-2.63-6.552-3.323-9.749-2.07-2.45.959-3.533 3.13-2.778 5.545.283.907.88 1.572 1.662 2.085 1.593 1.046 3.371 1.668 5.176 2.228 1.561.484 3.124.973 4.541 1.804 2.675 1.567 3.7 3.86 3.428 6.762-.31 3.306-2.51 5.041-5.459 6.032-1.141.383-2.334.503-3.534.494M110.227 23.992V11.914c.001-.803.243-1.205.826-1.395.78-.255 1.528.204 1.639 1.015.024.181.015.368.015.552 0 7.918 0 15.836.002 23.754 0 .269.004.537-.081.797a1.236 1.236 0 0 1-1.321.87c-.601-.054-.992-.445-1.066-1.085-.022-.182-.013-.369-.013-.553V23.992M166.068 35.223c-.15-.013-.303-.005-.455-.005-3.998 0-7.996-.007-11.994.008-.422.002-.572-.073-.571-.54.008-3.32 0-6.64.001-9.961 1.615-.013 4.824-.004 6.08-.004 1.382 0 2.764.007 4.146-.003.748-.005 1.229-.454 1.229-1.114 0-.672-.469-1.17-1.184-1.173-2.64-.013-7.371-.005-10.271-.01-.001-3.06.007-6.118 0-9.177 0-.436.135-.516.54-.514 4.016.014 8.03.009 12.046.008.185 0 .373.011.556-.012.748-.092 1.176-.752.959-1.463-.173-.564-.587-.822-1.344-.822H152.09c-1.11 0-1.472.367-1.472 1.488v12.03c0 4.077-.002 8.155 0 12.232.001.857.397 1.316 1.176 1.317 4.74.008 9.48.007 14.221.001.713 0 1.19-.461 1.197-1.1.006-.615-.486-1.129-1.145-1.186M83.248 11.845c-.001-.758-.365-1.252-.996-1.38-.87-.176-1.48.435-1.48 1.495 0 8.003 0 16.007.002 24.011 0 .2.011.403.048.6.103.563.515.912 1.084.938.804.037 1.341-.544 1.342-1.476V11.845zM101.466 11.535c-.07-.663-.52-1.078-1.17-1.09a1.227 1.227 0 0 0-1.254 1.073c-.03.232-.037.468-.037.702-.002 3.272-.005 6.544.004 9.816.001.342-.048.509-.46.508-4.187-.011-8.85-.008-13.038-.002a.324.324 0 0 0-.324.323v1.542c0 .217.177.393.395.394 4.12.011 8.714.012 12.833-.006.515-.002.601.166.599.629-.019 3.456-.011 6.913-.009 10.37 0 .209.004.422.03.63.083.656.689 1.154 1.35 1.08.67-.074 1.09-.625 1.09-1.455.002-4.027.001-8.054.001-12.08v-11.93c0-.168.008-.338-.01-.504"/>
        <g>
            <path fill="#425563" d="M23.887 47.515a.952.952 0 0 1-.956-.95V41.35c0-.524.428-.95.956-.95.527 0 .955.426.955.95v5.216c0 .524-.428.949-.955.949M30.07 46.701a.956.956 0 0 1-1.17-.671l-1.36-5.038a.956.956 0 0 1 1.846-.491l1.359 5.037a.949.949 0 0 1-.676 1.163M35.806 44.329a.959.959 0 0 1-1.305-.348l-2.625-4.517a.946.946 0 0 1 .35-1.297.959.959 0 0 1 1.305.348l2.625 4.517a.946.946 0 0 1-.35 1.297M40.76 40.548a.96.96 0 0 1-1.35 0l-3.712-3.689a.945.945 0 0 1 0-1.342.96.96 0 0 1 1.351 0l3.712 3.688a.945.945 0 0 1 0 1.343M44.576 35.65a.959.959 0 0 1-1.305.347l-4.546-2.608a.946.946 0 0 1-.35-1.296.959.959 0 0 1 1.305-.348l4.546 2.608a.946.946 0 0 1 .35 1.297M46.945 29.931a.956.956 0 0 1-1.17.672l-5.07-1.35a.949.949 0 1 1 .494-1.834l5.07 1.35c.51.135.813.656.676 1.162"/>
            <g transform="translate(40.607 22.784)">
                <mask id="d" fill="#fff">
                    <use xlink:href="#c"/>
                </mask>
                <path fill="#425563" d="M7.166.997c0 .524-.428.95-.956.95H.961a.952.952 0 0 1-.955-.95c0-.525.427-.95.955-.95h5.25c.527 0 .955.425.955.95" mask="url(#d)"/>
            </g>
            <g transform="translate(0 22.832)">
                <mask id="f" fill="#fff">
                    <use xlink:href="#e"/>
                </mask>
                <path fill="#425563" d="M0 .95C0 .425.428 0 .955 0h5.25c.527 0 .955.425.955.95 0 .524-.428.949-.955.949H.955A.952.952 0 0 1 0 .949" mask="url(#f)"/>
            </g>
            <path fill="#425563" d="M.82 29.924a.949.949 0 0 1 .675-1.162l5.07-1.35a.949.949 0 1 1 .495 1.834l-5.07 1.35a.956.956 0 0 1-1.17-.672M3.207 35.624a.946.946 0 0 1 .35-1.296l4.546-2.608a.959.959 0 0 1 1.305.347.946.946 0 0 1-.35 1.297l-4.546 2.608a.959.959 0 0 1-1.305-.348M23.886.047c.528 0 .956.425.956.95v5.215c0 .525-.428.95-.956.95a.952.952 0 0 1-.955-.95V.997c0-.525.428-.95.955-.95M7.012 7.015a.96.96 0 0 1 1.351 0l3.712 3.688a.945.945 0 0 1 0 1.343.96.96 0 0 1-1.351 0L7.012 8.358a.945.945 0 0 1 0-1.343M3.197 11.913a.959.959 0 0 1 1.305-.348l4.546 2.608a.946.946 0 0 1 .35 1.297.959.959 0 0 1-1.305.347L3.547 13.21a.946.946 0 0 1-.35-1.297M.828 17.631a.956.956 0 0 1 1.17-.671l5.07 1.35a.949.949 0 1 1-.494 1.834l-5.07-1.35a.949.949 0 0 1-.676-1.163M46.954 17.638a.949.949 0 0 1-.676 1.163l-5.07 1.35a.949.949 0 1 1-.495-1.834l5.07-1.35a.956.956 0 0 1 1.17.671M44.566 11.938a.946.946 0 0 1-.35 1.297l-4.546 2.608a.959.959 0 0 1-1.305-.348.946.946 0 0 1 .35-1.296l4.546-2.608a.959.959 0 0 1 1.305.347M40.76 7.015a.945.945 0 0 1 0 1.342l-3.711 3.688a.96.96 0 0 1-1.351 0 .945.945 0 0 1 0-1.342l3.712-3.688a.96.96 0 0 1 1.35 0M35.831 3.224a.946.946 0 0 1 .35 1.297l-2.624 4.517a.959.959 0 0 1-1.306.347.946.946 0 0 1-.35-1.296l2.625-4.517a.959.959 0 0 1 1.305-.348M30.076.87c.51.136.812.656.676 1.163L29.393 7.07a.956.956 0 0 1-1.846-.492l1.359-5.038a.956.956 0 0 1 1.17-.67"/>
            <path fill="#FF6900" d="M23.887 37.56a.952.952 0 0 1-.956-.95v-2.848c0-.524.428-.95.956-.95.527 0 .955.426.955.95v2.848c0 .524-.428.95-.955.95M32.965 23.762c0-.524.428-.95.955-.95h2.867c.527 0 .955.426.955.95s-.428.95-.955.95H33.92a.952.952 0 0 1-.955-.95M31.742 28.287a.959.959 0 0 1 1.305-.347l2.482 1.424a.946.946 0 0 1 .35 1.297.959.959 0 0 1-1.305.347l-2.483-1.424a.946.946 0 0 1-.35-1.297M28.414 31.607a.959.959 0 0 1 1.305.347l1.433 2.467a.946.946 0 0 1-.35 1.297.959.959 0 0 1-1.305-.348l-1.433-2.466a.946.946 0 0 1 .35-1.297"/>
            <path fill="#425563" d="M17.704.861a.956.956 0 0 1 1.17.672l1.359 5.038a.956.956 0 0 1-1.846.491l-1.359-5.038a.949.949 0 0 1 .676-1.163M11.967 3.234a.959.959 0 0 1 1.305.347l2.625 4.517a.946.946 0 0 1-.35 1.297.959.959 0 0 1-1.305-.347L11.618 4.53a.946.946 0 0 1 .35-1.297M7.012 40.548a.945.945 0 0 1 0-1.343l3.712-3.688a.96.96 0 0 1 1.351 0 .945.945 0 0 1 0 1.343l-3.711 3.688a.96.96 0 0 1-1.352 0"/>
            <path fill="#FF6900" d="M23.878 10.012c.528 0 .956.425.956.95v2.848c0 .524-.428.949-.956.949a.952.952 0 0 1-.955-.95v-2.847c0-.525.428-.95.955-.95M16.023 19.284a.959.959 0 0 1-1.305.348l-2.482-1.424a.946.946 0 0 1-.35-1.297.959.959 0 0 1 1.305-.348l2.483 1.424a.946.946 0 0 1 .35 1.297M19.351 15.965a.959.959 0 0 1-1.305-.348l-1.433-2.466a.946.946 0 0 1 .35-1.297.959.959 0 0 1 1.305.347l1.433 2.467a.946.946 0 0 1-.35 1.297M28.4 15.974a.946.946 0 0 1-.35-1.297l1.434-2.466a.959.959 0 0 1 1.305-.348.946.946 0 0 1 .35 1.297l-1.433 2.467a.959.959 0 0 1-1.305.347M31.742 19.28a.946.946 0 0 1 .35-1.296l2.482-1.424a.959.959 0 0 1 1.305.347.946.946 0 0 1-.35 1.297l-2.482 1.424a.959.959 0 0 1-1.305-.347"/>
            <path fill="#425563" d="M11.942 44.338a.946.946 0 0 1-.35-1.297l2.625-4.517a.959.959 0 0 1 1.305-.347.946.946 0 0 1 .35 1.297l-2.625 4.517a.959.959 0 0 1-1.305.347"/>
            <path fill="#FF6900" d="M10.032 23.793c0-.525.428-.95.956-.95h2.866c.528 0 .956.425.956.95 0 .524-.428.949-.956.949h-2.866a.952.952 0 0 1-.956-.95M19.364 31.597a.946.946 0 0 1 .35 1.297l-1.433 2.467a.959.959 0 0 1-1.305.347.946.946 0 0 1-.35-1.297l1.433-2.466a.959.959 0 0 1 1.305-.348M16.023 28.29a.946.946 0 0 1-.35 1.298l-2.482 1.424a.959.959 0 0 1-1.305-.348.946.946 0 0 1 .35-1.297l2.482-1.424a.959.959 0 0 1 1.305.348"/>
            <path fill="#425563" d="M17.697 46.692a.949.949 0 0 1-.676-1.162l1.36-5.038a.956.956 0 0 1 1.845.491l-1.359 5.038a.956.956 0 0 1-1.17.671"/>
        </g>
    </g>
</svg>
