<svg xmlns="http://www.w3.org/2000/svg" width="104" height="95" viewBox="0 0 104 95">
    <g fill="none" fill-rule="evenodd" stroke="#FF6900" stroke-linejoin="round" stroke-width="4">
        <path d="M52.323 2.899c-24.879 0-45.046 20.117-45.046 44.934v2.247H2.773l11.261 15.727 9.01-15.727h-4.505v-2.247c0-18.612 15.126-33.7 33.784-33.7 12.036 0 22.599 6.277 28.583 15.729M75.025 9.015a45.46 45.46 0 0 1 4.512 3.008M66.074 5.031c1.47.47 2.91 1.014 4.31 1.625M56.928 3.131c1.42.144 2.82.353 4.196.625M52.51 92.768c24.878 0 44.858-20.117 44.858-44.935v-2.246h4.504L90.611 29.859 81.6 45.587h4.505v2.246c0 18.612-14.734 33.701-33.392 33.701-12.036 0-22.599-6.277-28.585-15.73M29.807 86.652a45.46 45.46 0 0 1-4.512-3.008M38.758 90.635a45.065 45.065 0 0 1-4.31-1.624M47.904 92.535a45.025 45.025 0 0 1-4.196-.624"/>
        <path d="M59.183 47.782c0 3.75-3.05 6.792-6.809 6.792-3.759 0-6.808-3.042-6.808-6.792s3.05-6.792 6.808-6.792c3.76 0 6.809 3.042 6.809 6.792z"/>
        <path d="M68.139 47.782c0-1.247-.16-2.456-.435-3.617l4.424-2.55-4.505-7.783-4.414 2.543a15.727 15.727 0 0 0-6.38-3.673v-5.089h-9.01v5.114a15.736 15.736 0 0 0-6.317 3.684l-4.48-2.58-4.505 7.784 4.514 2.601a15.623 15.623 0 0 0-.424 3.566c0 1.26.165 2.48.446 3.655l-4.536 2.616 4.505 7.782 4.547-2.62a15.78 15.78 0 0 0 6.25 3.622v5.217h9.01v-5.192a15.736 15.736 0 0 0 6.308-3.61l4.486 2.583 4.505-7.782-4.446-2.564a15.72 15.72 0 0 0 .457-3.707z"/>
    </g>
</svg>
